<svg xmlns="http://www.w3.org/2000/svg" viewBox="0 0 800 600">
  <path d="M494.6,296.3 L494.2,296.4 L493.9,296.4 L493.5,296.4 L492.4,296.4 L492.0,296.4 L491.2,296.4 L491.1,296.4 L490.5,296.4 L488.7,296.4 L488.3,296.4 L487.8,296.4 L486.4,296.4 L485.8,296.4 L484.8,296.3 L484.2,296.3 L481.8,296.3 L481.4,296.3 L480.1,296.3 L479.7,296.3 L478.9,296.3 L478.0,296.3 L477.1,296.3 L476.0,296.3 L475.2,296.3 L474.6,296.3 L474.0,296.3 L473.6,296.3 L473.7,296.3 L473.6,296.3 L473.0,296.3 L472.0,296.3 L471.4,296.3 L469.9,296.3 L469.2,296.3 L468.9,296.3 L468.5,296.3 L468.0,296.3 L466.7,296.3 L465.9,296.3 L465.4,296.2 L464.7,296.2 L463.4,296.2 L462.9,296.2 L462.7,296.2 L462.2,296.2 L461.7,296.2 L461.0,296.1 L460.3,296.1 L459.4,296.1 L458.7,296.1 L457.4,296.1 L456.5,296.1 L453.0,296.1 L453.1,296.1 L452.8,296.1 L452.1,296.0 L451.3,296.0 L450.7,296.0 L450.4,296.0 L450.3,296.0 L450.0,296.0 L449.0,296.0 L449.0,296.0 L449.7,296.0 L449.6,295.9 L448.6,295.9 L448.7,295.9 L449.4,295.9 L449.6,295.9 L449.4,295.9 L448.7,295.9 L448.4,295.9 L447.4,295.9 L447.0,295.9 L446.1,295.9 L446.3,295.9 L447.1,295.9 L447.3,295.9 L447.4,295.9 L447.3,295.9 L446.7,295.9 L446.4,295.9 L446.6,295.9 L446.7,295.9 L446.5,295.9 L446.6,295.9 L446.9,295.9 L447.0,295.9 L446.9,295.9 L445.9,295.9 L445.9,295.8 L446.1,295.8 L446.8,295.8 L446.8,295.8 L446.6,295.8 L445.9,295.8 L445.8,295.8 L445.9,295.8 L446.3,295.8 L446.5,295.8 L446.3,295.8 L446.5,295.8 L446.9,295.8 L447.0,295.8 L446.9,295.8 L446.3,295.8 L446.6,295.8 L447.3,295.8 L447.4,295.8 L446.6,295.8 L446.4,295.7 L446.5,295.7 L446.4,295.7 L446.8,295.7 L446.8,295.7 L446.6,295.7 L446.2,295.7 L445.7,295.7 L445.3,295.7 L445.8,295.7 L445.0,295.7 L444.5,295.7 L444.6,295.7 L444.5,295.6 L443.8,295.6 L443.5,295.7 L443.2,295.7 L443.2,295.6 L442.6,295.6 L442.7,295.6 L443.6,295.6 L443.8,295.6 L444.1,295.6 L444.6,295.6 L444.7,295.6 L444.7,295.6 L444.9,295.6 L445.4,295.6 L445.7,295.6 L446.2,295.6 L446.6,295.6 L446.9,295.6 L448.6,295.6 L448.8,295.6 L449.2,295.6 L449.3,295.6 L449.1,295.5 L448.3,295.5 L448.2,295.5 L448.4,295.5 L450.1,295.5 L450.7,295.5 L451.2,295.5 L451.6,295.5 L451.5,295.5 L450.8,295.5 L450.3,295.5 L450.0,295.5 L450.2,295.5 L450.1,295.5 L449.5,295.5 L449.1,295.5 L449.4,295.5 L450.1,295.5 L450.5,295.4 L450.6,295.4 L450.5,295.4 L450.1,295.4 L449.8,295.4 L449.9,295.4 L450.4,295.4 L450.6,295.4 L450.8,295.4 L450.3,295.4 L450.2,295.4 L450.2,295.4 L450.0,295.4 L449.4,295.4 L448.7,295.4 L448.1,295.3 L448.2,295.3 L448.8,295.3 L449.5,295.3 L449.5,295.3 L449.6,295.3 L449.8,295.3 L450.1,295.3 L450.4,295.3 L451.1,295.3 L451.5,295.3 L452.1,295.3 L452.3,295.3 L452.8,295.3 L453.3,295.3 L453.4,295.3 L453.7,295.3 L454.1,295.3 L454.7,295.3 L455.2,295.3 L455.6,295.3 L455.7,295.3 L456.1,295.3 L457.1,295.3 L457.5,295.3 L457.8,295.3 L458.4,295.3 L458.6,295.3 L459.5,295.3 L459.7,295.3 L459.9,295.3 L460.1,295.3 L460.4,295.3 L460.8,295.3 L461.1,295.3 L461.6,295.3 L461.9,295.3 L463.0,295.4 L463.0,295.4 L463.0,295.4 L463.2,295.4 L463.4,295.4 L464.2,295.4 L465.0,295.4 L465.5,295.4 L465.8,295.4 L466.0,295.4 L466.3,295.4 L466.7,295.4 L466.9,295.4 L467.6,295.4 L468.5,295.4 L469.2,295.4 L469.5,295.4 L470.1,295.4 L470.8,295.4 L469.9,295.4 L468.2,295.4 L467.0,295.4 L466.8,295.4 L466.6,295.4 L466.7,295.4 L467.0,295.4 L467.1,295.5 L467.4,295.5 L468.0,295.5 L469.1,295.5 L469.4,295.5 L469.7,295.5 L469.8,295.4 L470.2,295.4 L470.3,295.4 L470.3,295.4 L470.8,295.4 L470.8,295.4 L470.8,295.4 L473.0,295.4 L473.2,295.4 L474.5,295.4 L474.6,295.4 L474.4,295.3 L474.5,295.3 L475.3,295.3 L476.0,295.3 L476.5,295.3 L476.7,295.3 L476.8,295.3 L476.6,295.3 L476.4,295.3 L476.1,295.3 L477.0,295.3 L477.1,295.3 L477.2,295.3 L477.3,295.3 L477.5,295.3 L477.9,295.3 L478.2,295.3 L478.4,295.3 L478.4,295.3 L478.1,295.3 L478.1,295.3 L478.0,295.3 L478.1,295.3 L478.1,295.3 L477.7,295.3 L477.2,295.3 L477.2,295.3 L476.8,295.2 L476.8,295.2 L477.2,295.2 L477.3,295.2 L476.8,295.2 L476.6,295.2 L476.6,295.2 L476.8,295.2 L476.6,295.2 L476.6,295.2 L477.0,295.2 L477.2,295.2 L476.8,295.1 L476.8,295.1 L477.5,295.1 L478.5,295.1 L478.6,295.1 L478.6,295.1 L478.2,295.1 L478.0,295.1 L478.0,295.1 L478.2,295.1 L479.1,295.1 L479.4,295.1 L479.4,295.1 L479.4,295.1 L479.2,295.1 L479.1,295.1 L479.0,295.1 L479.2,295.1 L479.3,295.1 L479.3,295.1 L479.7,295.1 L479.6,295.1 L479.4,295.1 L479.4,295.1 L479.6,295.1 L479.9,295.1 L479.8,295.1 L479.9,295.1 L480.1,295.1 L480.1,295.1 L480.4,295.1 L480.5,295.0 L480.8,295.0 L480.8,295.0 L480.9,295.0 L481.4,295.0 L481.6,295.0 L481.6,295.0 L481.8,295.0 L482.0,295.0 L482.0,295.0 L482.2,295.0 L482.6,295.0 L482.8,295.0 L482.9,295.0 L483.1,295.0 L483.2,295.0 L483.6,295.0 L483.8,295.0 L483.8,295.0 L484.1,295.0 L484.5,295.0 L484.5,295.0 L485.0,295.0 L485.0,295.0 L484.9,295.0 L484.9,295.0 L484.9,295.0 L485.4,295.0 L485.8,295.0 L486.1,295.0 L486.2,295.0 L486.8,295.0 L486.9,295.0 L487.0,295.0 L487.1,295.0 L487.3,295.0 L487.4,295.0 L487.6,295.0 L487.7,295.0 L487.8,295.0 L487.7,295.0 L488.2,295.0 L488.3,295.0 L488.7,295.0 L488.7,295.0 L488.7,295.0 L488.9,295.0 L489.0,295.0 L488.9,295.0 L489.3,295.0 L489.2,295.0 L489.3,295.0 L489.7,295.0 L489.8,295.0 L489.9,295.0 L490.4,295.0 L492.5,295.0 L492.9,295.0 L493.6,295.0 L494.0,295.0 L494.2,295.1 L494.1,295.1 L494.2,295.1 L494.6,295.1 L494.7,295.1 L495.2,295.1 L495.5,295.1 L495.0,295.1 L495.1,295.2 L495.8,295.2 L495.8,295.1 L496.6,295.1 L497.5,295.2 L498.3,295.2 L498.9,295.2 L499.0,295.2 L499.3,295.2 L500.2,295.2 L500.6,295.2 L501.1,295.2 L503.0,295.2 L504.0,295.2 L504.8,295.2 L506.0,295.2 L505.5,295.2 L502.8,295.3 L502.6,295.3 L502.5,295.3 L502.6,295.3 L503.2,295.4 L503.8,295.4 L504.5,295.4 L504.8,295.4 L504.5,295.4 L503.7,295.4 L503.3,295.5 L503.2,295.5 L503.2,295.5 L503.7,295.5 L503.7,295.5 L503.4,295.5 L503.1,295.6 L504.6,295.6 L505.8,295.6 L506.5,295.6 L507.0,295.6 L507.5,295.6 L508.8,295.6 L509.7,295.6 L510.8,295.6 L512.6,295.6 L513.5,295.6 L514.5,295.6 L516.4,295.6 L518.4,295.6 L519.0,295.6 L519.7,295.6 L520.3,295.6 L521.2,295.6 L522.3,295.6 L523.2,295.6 L524.2,295.6 L526.0,295.5 L525.8,295.6 L525.0,295.6 L524.4,295.6 L524.3,295.6 L524.7,295.6 L525.7,295.6 L527.0,295.6 L528.1,295.6 L528.8,295.6 L529.4,295.7 L529.9,295.7 L530.6,295.7 L531.4,295.7 L531.8,295.7 L532.1,295.7 L532.4,295.7 L533.3,295.7 L534.0,295.7 L535.4,295.7 L535.9,295.7 L536.7,295.7 L536.8,295.8 L536.8,295.8 L537.1,295.8 L539.2,295.8 L539.6,295.8 L539.5,295.8 L538.7,295.8 L538.0,295.8 L537.1,295.8 L536.6,295.8 L536.4,295.9 L536.5,295.9 L537.2,295.9 L538.0,295.9 L538.9,295.9 L539.4,295.9 L540.2,295.9 L541.1,295.9 L541.2,295.9 L541.4,295.9 L543.1,295.9 L542.7,296.0 L542.1,296.0 L542.0,296.0 L542.5,296.0 L542.2,296.0 L542.5,296.0 L542.6,296.0 L541.8,296.0 L541.4,296.0 L540.8,296.1 L540.1,296.1 L539.0,296.1 L538.2,296.1 L536.9,296.1 L535.5,296.1 L534.3,296.1 L533.4,296.1 L532.9,296.1 L532.4,296.1 L532.1,296.1 L530.9,296.1 L529.1,296.1 L528.3,296.1 L526.1,296.1 L525.8,296.1 L524.9,296.1 L522.3,296.1 L521.0,296.1 L520.4,296.1 L517.7,296.1 L515.8,296.1 L515.3,296.1 L514.9,296.1 L514.6,296.1 L514.0,296.1 L513.7,296.1 L514.3,296.1 L514.2,296.1 L514.1,296.1 L513.2,296.1 L511.9,296.1 L510.5,296.1 L508.2,296.1 L507.1,296.1 L506.7,296.1 L506.1,296.1 L505.8,296.1 L503.8,296.1 L503.0,296.1 L502.2,296.2 L501.1,296.2 L500.8,296.2 L500.0,296.2 L498.9,296.2 L497.9,296.1 L496.8,296.1 L497.0,296.2 L496.4,296.2 L496.5,296.2 L496.3,296.2 L496.3,296.3 L496.1,296.3 L494.6,296.3 Z M487.1,295.0 L486.9,295.0 L486.8,295.0 L486.9,295.0 L487.1,295.0 L487.1,295.0 Z M489.5,295.0 L489.4,295.0 L489.1,295.0 L489.1,295.0 L489.5,295.0 L489.5,295.0 Z M467.3,295.5 L467.1,295.5 L467.0,295.4 L466.7,295.4 L466.6,295.4 L466.8,295.4 L467.0,295.4 L468.2,295.4 L469.9,295.4 L470.8,295.4 L470.1,295.4 L469.5,295.4 L469.2,295.4 L468.5,295.4 L467.6,295.4 L466.9,295.4 L466.7,295.4 L466.3,295.4 L466.0,295.4 L465.8,295.4 L465.5,295.4 L465.3,295.4 L464.6,295.4 L464.2,295.4 L463.4,295.4 L463.2,295.4 L463.0,295.4 L463.0,295.4 L463.0,295.4 L461.9,295.3 L461.6,295.3 L461.1,295.3 L460.8,295.3 L460.4,295.3 L460.1,295.3 L459.9,295.3 L459.7,295.3 L459.5,295.3 L458.6,295.3 L458.4,295.3 L457.8,295.3 L457.5,295.3 L457.1,295.3 L456.1,295.3 L455.7,295.3 L455.6,295.3 L455.2,295.3 L454.7,295.3 L454.1,295.3 L453.7,295.3 L453.4,295.3 L453.5,295.3 L453.5,295.3 L453.7,295.3 L453.8,295.3 L454.2,295.3 L454.4,295.3 L454.6,295.3 L454.6,295.3 L455.3,295.3 L455.6,295.3 L455.8,295.3 L456.4,295.3 L456.4,295.3 L456.7,295.3 L456.7,295.3 L456.8,295.3 L457.0,295.3 L457.1,295.3 L457.8,295.3 L458.2,295.3 L458.1,295.3 L458.1,295.2 L458.2,295.2 L458.2,295.3 L458.3,295.3 L458.4,295.3 L458.6,295.3 L460.0,295.2 L460.1,295.2 L460.5,295.2 L460.7,295.2 L461.3,295.2 L462.1,295.2 L462.4,295.2 L462.5,295.2 L462.5,295.2 L462.6,295.2 L462.7,295.2 L462.7,295.2 L462.9,295.2 L463.5,295.2 L463.6,295.2 L464.3,295.2 L464.7,295.2 L464.8,295.2 L464.8,295.2 L464.9,295.2 L465.0,295.2 L465.1,295.2 L465.3,295.2 L465.7,295.2 L465.8,295.2 L466.0,295.2 L466.1,295.2 L466.1,295.2 L466.2,295.2 L466.4,295.2 L466.5,295.2 L466.8,295.2 L467.3,295.2 L467.3,295.2 L466.9,295.2 L466.6,295.2 L466.8,295.2 L466.7,295.2 L466.8,295.2 L467.0,295.2 L467.1,295.2 L467.0,295.2 L467.1,295.2 L467.3,295.2 L467.3,295.2 L467.1,295.2 L467.2,295.2 L467.5,295.2 L467.6,295.2 L467.7,295.2 L467.6,295.2 L467.5,295.2 L467.6,295.2 L467.9,295.2 L468.1,295.2 L468.3,295.2 L468.5,295.2 L468.6,295.2 L468.7,295.2 L468.9,295.2 L469.0,295.2 L469.1,295.2 L469.2,295.2 L469.6,295.2 L469.8,295.2 L469.9,295.2 L470.0,295.2 L470.1,295.2 L470.0,295.2 L470.1,295.2 L470.7,295.2 L470.7,295.2 L471.1,295.2 L471.9,295.2 L472.5,295.1 L472.7,295.1 L473.0,295.1 L473.7,295.1 L473.7,295.1 L473.7,295.1 L473.8,295.1 L474.1,295.1 L474.8,295.1 L475.0,295.1 L474.9,295.1 L475.0,295.1 L475.1,295.1 L475.0,295.1 L475.2,295.1 L475.1,295.1 L475.3,295.1 L475.3,295.1 L475.5,295.1 L475.8,295.1 L476.0,295.1 L476.1,295.1 L476.3,295.1 L476.2,295.1 L476.6,295.1 L476.5,295.1 L476.7,295.1 L476.9,295.1 L477.4,295.1 L477.5,295.1 L477.5,295.1 L477.4,295.1 L477.1,295.1 L477.4,295.1 L477.4,295.1 L477.0,295.1 L477.1,295.1 L477.2,295.1 L477.1,295.1 L477.0,295.1 L476.9,295.1 L477.0,295.1 L477.0,295.1 L477.2,295.1 L477.5,295.1 L477.9,295.1 L478.0,295.1 L478.4,295.1 L478.5,295.1 L478.1,295.1 L478.2,295.1 L478.5,295.1 L478.7,295.1 L479.2,295.1 L479.4,295.1 L479.2,295.1 L478.2,295.1 L478.0,295.1 L478.0,295.1 L478.2,295.1 L478.6,295.1 L478.6,295.1 L478.5,295.1 L477.5,295.1 L476.8,295.1 L476.8,295.1 L477.2,295.2 L477.0,295.2 L476.6,295.2 L476.6,295.2 L476.8,295.2 L476.6,295.2 L476.6,295.2 L476.8,295.2 L477.3,295.2 L477.2,295.2 L476.8,295.2 L476.8,295.2 L477.2,295.3 L477.2,295.3 L477.7,295.3 L478.1,295.3 L478.1,295.3 L478.0,295.3 L478.1,295.3 L478.1,295.3 L478.4,295.3 L478.4,295.3 L478.2,295.3 L477.9,295.3 L477.5,295.3 L477.3,295.3 L477.2,295.3 L477.1,295.3 L477.0,295.3 L476.1,295.3 L476.4,295.3 L476.6,295.3 L476.8,295.3 L476.7,295.3 L476.5,295.3 L476.0,295.3 L475.3,295.3 L474.5,295.3 L474.4,295.3 L474.6,295.4 L474.5,295.4 L473.2,295.4 L473.0,295.4 L470.8,295.4 L470.8,295.4 L470.8,295.4 L470.3,295.4 L470.3,295.4 L470.2,295.4 L469.8,295.4 L469.7,295.5 L469.4,295.5 L469.1,295.5 L468.0,295.5 L467.4,295.5 L467.3,295.5 Z M467.7,295.2 L467.7,295.2 L467.4,295.2 L467.7,295.2 L467.7,295.2 Z M479.2,295.1 L479.2,295.1 L479.2,295.1 L479.2,295.1 Z" data-name="Casablanca-Settat" fill="#DDD0BB" stroke="#B8A898" stroke-width="1.2" stroke-linejoin="round" stroke-linecap="round"/>
  <path d="M400.5,296.9 L400.3,296.9 L400.3,296.9 L399.9,296.9 L399.5,296.9 L397.9,296.9 L397.1,296.9 L395.9,296.9 L394.2,296.8 L392.0,296.8 L390.9,296.8 L390.1,296.8 L389.5,296.8 L388.8,296.8 L387.6,296.9 L386.4,296.8 L385.0,296.8 L383.8,296.8 L382.7,296.8 L380.5,296.8 L380.9,296.8 L380.9,296.8 L381.1,296.8 L381.9,296.8 L382.2,296.8 L382.2,296.8 L382.4,296.8 L382.4,296.8 L384.2,296.7 L384.7,296.7 L385.0,296.7 L384.8,296.7 L385.0,296.7 L384.9,296.7 L384.7,296.7 L384.7,296.7 L385.5,296.7 L385.5,296.7 L385.7,296.7 L385.7,296.7 L386.0,296.7 L385.8,296.7 L386.1,296.6 L386.9,296.6 L387.2,296.6 L387.9,296.6 L388.3,296.6 L388.7,296.6 L388.7,296.6 L388.7,296.6 L388.8,296.6 L389.1,296.6 L389.1,296.6 L389.1,296.6 L389.2,296.6 L389.1,296.5 L389.0,296.5 L388.9,296.5 L388.7,296.5 L388.7,296.5 L388.5,296.5 L388.5,296.5 L388.8,296.5 L389.0,296.5 L389.1,296.5 L389.4,296.5 L389.5,296.5 L389.3,296.5 L389.1,296.5 L388.9,296.5 L389.1,296.5 L389.3,296.5 L389.4,296.5 L389.4,296.5 L389.3,296.5 L389.3,296.5 L389.3,296.5 L389.2,296.5 L389.3,296.5 L389.2,296.5 L389.1,296.5 L388.7,296.5 L388.3,296.4 L387.8,296.4 L387.7,296.4 L387.7,296.4 L387.6,296.4 L387.6,296.4 L387.3,296.4 L387.3,296.4 L387.5,296.4 L387.9,296.4 L388.7,296.4 L389.0,296.4 L389.1,296.4 L389.3,296.4 L389.3,296.4 L389.4,296.3 L389.8,296.3 L389.8,296.3 L390.0,296.3 L390.0,296.3 L390.1,296.3 L390.1,296.3 L389.7,296.3 L389.3,296.3 L388.8,296.3 L388.6,296.3 L388.5,296.3 L388.2,296.3 L388.2,296.2 L387.8,296.2 L387.6,296.2 L387.5,296.2 L388.8,296.2 L388.9,296.2 L388.9,296.2 L389.4,296.2 L389.6,296.2 L390.0,296.2 L390.7,296.2 L391.3,296.2 L392.1,296.2 L392.6,296.2 L393.4,296.1 L394.2,296.1 L394.7,296.1 L394.8,296.1 L395.4,296.1 L395.8,296.1 L395.9,296.1 L397.6,296.1 L398.6,296.0 L398.7,296.0 L398.9,296.0 L398.9,296.0 L398.8,296.0 L398.8,296.0 L399.0,296.0 L399.1,296.0 L399.0,296.0 L399.1,296.0 L399.2,296.0 L399.6,296.0 L399.7,296.0 L399.6,296.0 L399.6,296.0 L399.4,296.0 L399.2,296.0 L399.2,296.0 L401.2,296.0 L402.7,296.0 L403.7,296.0 L403.9,296.0 L404.5,296.0 L404.6,296.0 L405.6,295.9 L405.8,295.9 L405.9,295.9 L406.3,295.9 L406.5,295.9 L406.6,295.9 L407.0,295.9 L407.2,295.9 L407.4,295.9 L408.1,295.9 L409.1,295.9 L411.0,295.8 L411.4,295.8 L411.4,295.8 L411.2,295.8 L411.2,295.8 L411.3,295.8 L411.6,295.8 L411.5,295.8 L412.6,295.8 L412.6,295.8 L412.7,295.8 L413.0,295.8 L413.1,295.8 L413.3,295.8 L413.3,295.8 L413.4,295.8 L413.5,295.8 L413.6,295.8 L413.5,295.8 L413.3,295.8 L413.2,295.8 L413.3,295.8 L413.1,295.8 L412.7,295.8 L412.5,295.8 L412.5,295.8 L413.1,295.8 L413.2,295.8 L413.8,295.8 L413.7,295.8 L413.8,295.8 L414.2,295.8 L414.3,295.8 L414.1,295.8 L414.2,295.8 L414.4,295.8 L414.5,295.8 L414.4,295.8 L414.5,295.8 L414.5,295.8 L414.6,295.8 L414.6,295.8 L414.9,295.8 L415.1,295.8 L415.2,295.8 L415.3,295.8 L415.3,295.7 L415.2,295.7 L415.2,295.7 L415.2,295.8 L415.1,295.8 L415.0,295.8 L414.9,295.8 L414.9,295.8 L415.0,295.8 L415.1,295.8 L415.0,295.8 L414.9,295.8 L414.8,295.8 L414.7,295.8 L414.7,295.8 L414.9,295.8 L414.9,295.8 L415.1,295.7 L415.1,295.7 L415.3,295.7 L415.2,295.7 L415.4,295.7 L415.5,295.7 L415.8,295.7 L415.9,295.7 L415.8,295.7 L416.2,295.7 L416.2,295.7 L416.2,295.7 L416.3,295.7 L416.4,295.7 L416.4,295.7 L416.5,295.7 L416.6,295.7 L416.9,295.7 L416.9,295.7 L417.2,295.7 L417.2,295.7 L417.5,295.7 L417.7,295.7 L417.8,295.7 L417.8,295.7 L417.7,295.7 L417.7,295.7 L418.1,295.7 L418.1,295.7 L418.2,295.7 L418.2,295.7 L418.1,295.7 L418.2,295.7 L418.6,295.7 L418.7,295.7 L418.3,295.7 L418.7,295.7 L418.7,295.7 L418.5,295.7 L418.5,295.7 L418.8,295.7 L418.8,295.7 L418.6,295.7 L418.7,295.7 L418.6,295.7 L418.7,295.7 L418.8,295.7 L418.8,295.7 L418.9,295.7 L418.9,295.7 L418.7,295.7 L419.1,295.7 L419.0,295.7 L419.0,295.7 L418.9,295.6 L418.6,295.7 L418.3,295.7 L417.9,295.7 L417.9,295.7 L418.5,295.6 L418.9,295.6 L419.1,295.6 L419.4,295.6 L419.4,295.6 L418.9,295.6 L418.9,295.6 L418.6,295.6 L418.7,295.6 L418.7,295.6 L418.8,295.6 L418.8,295.6 L418.9,295.6 L419.1,295.6 L419.0,295.6 L419.1,295.6 L419.2,295.6 L419.3,295.6 L419.5,295.6 L419.6,295.6 L419.7,295.6 L419.9,295.6 L420.0,295.6 L420.0,295.6 L420.1,295.6 L420.1,295.6 L420.2,295.6 L420.5,295.6 L420.5,295.6 L420.6,295.6 L420.8,295.6 L421.0,295.6 L421.3,295.6 L421.8,295.6 L421.9,295.6 L422.1,295.6 L422.2,295.6 L422.0,295.6 L422.0,295.6 L422.4,295.6 L422.6,295.5 L422.9,295.5 L422.9,295.5 L423.9,295.5 L423.9,295.5 L424.3,295.5 L424.4,295.5 L424.7,295.5 L424.8,295.5 L425.0,295.5 L424.8,295.5 L424.8,295.5 L424.8,295.5 L424.9,295.5 L424.7,295.5 L424.9,295.5 L424.9,295.5 L425.1,295.5 L425.3,295.5 L425.5,295.5 L425.6,295.5 L426.1,295.5 L426.6,295.5 L427.3,295.5 L428.5,295.5 L429.7,295.5 L430.4,295.5 L430.7,295.5 L431.4,295.5 L431.8,295.5 L432.2,295.5 L432.5,295.5 L432.6,295.5 L432.6,295.5 L432.7,295.5 L433.2,295.4 L433.7,295.4 L434.1,295.4 L434.4,295.4 L435.4,295.4 L435.9,295.4 L436.1,295.4 L436.5,295.4 L437.0,295.4 L437.8,295.4 L438.3,295.4 L439.5,295.4 L439.8,295.4 L440.0,295.4 L440.1,295.4 L440.3,295.4 L440.6,295.4 L441.2,295.4 L441.4,295.4 L442.3,295.4 L443.2,295.4 L443.7,295.4 L444.1,295.4 L445.3,295.4 L445.5,295.3 L445.9,295.3 L446.1,295.3 L446.5,295.3 L447.6,295.3 L448.1,295.3 L448.7,295.4 L449.4,295.4 L450.0,295.4 L450.2,295.4 L450.2,295.4 L450.3,295.4 L450.8,295.4 L450.6,295.4 L450.4,295.4 L449.9,295.4 L449.8,295.4 L450.1,295.4 L450.5,295.4 L450.6,295.4 L450.5,295.4 L450.1,295.5 L449.4,295.5 L449.1,295.5 L449.5,295.5 L450.1,295.5 L450.2,295.5 L450.0,295.5 L450.3,295.5 L450.8,295.5 L451.5,295.5 L451.6,295.5 L451.2,295.5 L450.7,295.5 L450.1,295.5 L448.4,295.5 L448.2,295.5 L448.3,295.5 L449.1,295.5 L449.3,295.6 L449.2,295.6 L448.8,295.6 L448.6,295.6 L446.9,295.6 L446.6,295.6 L446.2,295.6 L445.7,295.6 L445.4,295.6 L444.9,295.6 L444.7,295.6 L444.7,295.6 L444.6,295.6 L444.1,295.6 L443.8,295.6 L443.6,295.6 L442.7,295.6 L442.6,295.6 L443.2,295.6 L443.2,295.7 L443.5,295.7 L443.8,295.6 L444.5,295.6 L444.6,295.7 L444.5,295.7 L445.0,295.7 L445.8,295.7 L445.3,295.7 L445.7,295.7 L446.2,295.7 L446.6,295.7 L446.8,295.7 L446.8,295.7 L446.4,295.7 L446.5,295.7 L446.4,295.7 L446.6,295.8 L447.4,295.8 L447.3,295.8 L446.6,295.8 L446.3,295.8 L446.9,295.8 L447.0,295.8 L446.9,295.8 L446.5,295.8 L446.3,295.8 L446.5,295.8 L446.3,295.8 L445.9,295.8 L445.8,295.8 L445.9,295.8 L446.6,295.8 L446.8,295.8 L446.8,295.8 L446.1,295.8 L445.9,295.8 L445.9,295.9 L446.9,295.9 L447.0,295.9 L446.9,295.9 L446.6,295.9 L446.5,295.9 L446.7,295.9 L446.6,295.9 L446.4,295.9 L446.7,295.9 L447.3,295.9 L447.4,295.9 L447.3,295.9 L447.1,295.9 L446.3,295.9 L446.1,295.9 L447.0,295.9 L447.4,295.9 L448.4,295.9 L448.7,295.9 L449.4,295.9 L449.6,295.9 L449.4,295.9 L448.7,295.9 L448.6,295.9 L449.6,295.9 L449.7,296.0 L449.0,296.0 L449.0,296.0 L448.0,296.0 L446.9,296.0 L446.9,296.0 L446.6,296.0 L447.0,296.0 L447.1,296.0 L446.7,296.1 L446.8,296.1 L446.7,296.1 L445.0,296.1 L445.3,296.1 L445.0,296.1 L445.5,296.1 L446.3,296.2 L446.6,296.2 L446.3,296.2 L446.0,296.2 L445.5,296.2 L444.6,296.2 L443.8,296.2 L442.6,296.3 L441.9,296.3 L441.2,296.3 L440.5,296.3 L439.8,296.3 L439.2,296.3 L438.1,296.3 L436.9,296.3 L436.1,296.3 L436.1,296.4 L435.9,296.4 L433.8,296.4 L432.4,296.4 L432.2,296.4 L431.9,296.4 L431.4,296.4 L430.3,296.4 L427.7,296.4 L427.6,296.4 L427.4,296.4 L427.6,296.5 L428.2,296.5 L429.0,296.5 L431.0,296.6 L432.0,296.6 L432.9,296.6 L434.6,296.6 L435.4,296.6 L437.4,296.6 L439.3,296.7 L439.5,296.7 L439.5,296.7 L439.5,296.7 L438.9,296.7 L438.1,296.7 L437.9,296.7 L438.1,296.7 L437.9,296.7 L437.4,296.7 L436.7,296.7 L436.1,296.7 L435.2,296.8 L434.0,296.8 L432.9,296.8 L432.3,296.8 L432.0,296.9 L431.4,296.9 L430.8,296.9 L430.6,296.9 L429.8,296.9 L429.0,296.9 L428.4,297.0 L428.4,297.0 L428.9,297.0 L429.3,297.0 L430.1,297.0 L430.8,297.0 L431.6,297.0 L431.6,297.0 L430.2,297.1 L429.6,297.1 L428.8,297.0 L428.0,297.0 L427.3,297.0 L426.5,297.0 L425.8,297.1 L424.6,297.1 L422.1,297.0 L421.2,297.0 L420.4,297.0 L419.8,297.0 L418.7,297.0 L417.7,297.0 L416.7,297.0 L415.8,297.0 L415.1,297.0 L414.7,297.0 L413.9,297.0 L413.3,297.0 L412.7,297.0 L412.3,297.0 L412.0,297.0 L411.5,297.0 L411.3,297.0 L410.9,297.0 L410.3,297.0 L409.5,297.0 L408.9,297.0 L408.7,297.0 L408.3,297.0 L407.4,297.0 L406.8,297.0 L406.8,297.0 L406.4,297.0 L405.9,297.0 L405.4,297.0 L404.7,297.0 L404.0,297.0 L403.6,297.0 L401.9,297.0 L401.0,296.9 L400.5,296.9 Z M412.9,295.8 L413.0,295.8 L413.1,295.8 L413.1,295.8 L412.9,295.8 L412.9,295.8 Z M415.4,295.7 L415.3,295.7 L415.3,295.7 L415.4,295.7 L415.4,295.7 Z M390.5,297.9 L389.9,297.9 L389.3,297.9 L389.1,297.9 L388.4,297.9 L387.5,297.9 L385.8,297.9 L384.7,297.9 L382.6,297.9 L381.6,297.9 L380.7,297.9 L380.1,297.9 L379.4,297.9 L378.6,297.9 L377.8,297.9 L376.7,297.9 L376.2,297.9 L376.0,297.9 L376.4,297.9 L376.2,297.9 L375.9,297.9 L375.1,297.9 L374.1,297.9 L373.4,297.9 L372.8,297.9 L370.4,297.9 L369.3,297.9 L368.3,297.9 L366.7,297.9 L366.9,297.9 L366.6,297.9 L366.3,297.9 L365.8,297.8 L364.4,297.8 L362.9,297.8 L362.4,297.8 L362.3,297.8 L362.3,297.8 L362.1,297.8 L362.1,297.8 L361.9,297.8 L362.0,297.8 L362.1,297.8 L362.3,297.7 L362.6,297.7 L362.8,297.7 L362.7,297.7 L362.8,297.7 L362.8,297.7 L362.6,297.7 L362.6,297.7 L362.4,297.7 L362.5,297.7 L362.3,297.7 L362.4,297.7 L362.4,297.7 L362.3,297.7 L362.0,297.7 L362.0,297.7 L362.2,297.7 L362.4,297.7 L362.4,297.6 L362.3,297.6 L362.0,297.6 L361.8,297.6 L361.3,297.6 L361.2,297.6 L361.3,297.6 L361.4,297.6 L361.5,297.6 L361.6,297.6 L361.4,297.6 L361.4,297.6 L361.5,297.6 L361.8,297.6 L361.7,297.6 L361.7,297.6 L362.0,297.6 L362.4,297.6 L362.4,297.6 L362.5,297.5 L362.5,297.5 L362.5,297.5 L362.2,297.5 L362.1,297.5 L362.2,297.5 L362.3,297.5 L362.3,297.5 L362.4,297.5 L362.3,297.5 L362.2,297.5 L362.4,297.5 L362.4,297.5 L362.6,297.5 L362.6,297.5 L362.7,297.5 L362.7,297.5 L362.8,297.5 L362.9,297.5 L363.0,297.5 L363.3,297.5 L363.4,297.5 L363.2,297.4 L363.3,297.4 L363.3,297.4 L363.4,297.4 L363.4,297.4 L363.5,297.4 L363.5,297.4 L363.3,297.4 L363.3,297.4 L363.4,297.4 L363.3,297.4 L363.2,297.4 L363.2,297.4 L363.1,297.4 L363.1,297.4 L362.9,297.4 L362.9,297.4 L362.8,297.4 L362.4,297.4 L361.6,297.4 L361.3,297.4 L361.4,297.3 L361.6,297.3 L361.6,297.3 L362.0,297.3 L362.4,297.3 L363.2,297.3 L363.9,297.3 L363.9,297.3 L364.3,297.3 L364.5,297.3 L364.5,297.3 L364.7,297.3 L364.7,297.3 L365.0,297.3 L364.9,297.2 L364.7,297.2 L364.5,297.2 L364.5,297.2 L364.4,297.2 L364.4,297.2 L364.3,297.2 L364.2,297.2 L364.1,297.2 L364.4,297.2 L364.5,297.2 L364.5,297.2 L364.6,297.2 L364.8,297.2 L365.2,297.2 L365.4,297.2 L365.5,297.2 L365.5,297.2 L365.7,297.2 L366.1,297.2 L367.1,297.2 L368.3,297.2 L368.5,297.2 L368.4,297.2 L368.6,297.2 L368.6,297.1 L368.7,297.1 L368.8,297.1 L369.2,297.1 L369.0,297.1 L369.1,297.1 L369.0,297.1 L369.1,297.1 L369.0,297.1 L369.1,297.1 L369.1,297.1 L369.0,297.1 L369.1,297.1 L369.0,297.1 L369.1,297.1 L369.3,297.1 L369.5,297.0 L370.2,297.0 L370.4,297.0 L370.9,297.0 L371.0,297.0 L371.0,297.0 L371.5,297.0 L371.9,297.0 L372.3,297.0 L372.4,297.0 L372.6,297.0 L372.7,297.0 L373.1,297.0 L373.3,297.0 L373.3,297.0 L374.0,297.0 L374.2,296.9 L374.3,296.9 L374.5,296.9 L374.7,296.9 L374.9,296.9 L374.8,296.9 L374.9,296.9 L375.1,296.9 L375.3,296.9 L375.6,296.9 L375.7,296.9 L376.1,296.9 L376.2,296.9 L376.2,296.9 L376.4,296.9 L376.8,296.9 L376.9,296.9 L376.9,296.9 L377.3,296.9 L377.5,296.9 L377.7,296.9 L377.7,296.9 L378.2,296.9 L378.7,296.9 L378.8,296.9 L378.8,296.8 L378.9,296.8 L379.3,296.8 L379.6,296.8 L380.4,296.8 L382.7,296.8 L383.8,296.8 L385.0,296.8 L386.4,296.8 L387.6,296.9 L388.8,296.8 L389.5,296.8 L390.1,296.8 L390.9,296.8 L392.0,296.8 L394.2,296.8 L395.9,296.9 L397.1,296.9 L397.9,296.9 L399.5,296.9 L399.9,296.9 L400.3,296.9 L400.3,296.9 L400.5,296.9 L401.0,296.9 L401.9,297.0 L403.6,297.0 L404.0,297.0 L404.7,297.0 L405.4,297.0 L405.9,297.0 L406.4,297.0 L406.8,297.0 L406.8,297.0 L407.4,297.0 L408.3,297.0 L408.7,297.0 L408.9,297.0 L409.5,297.0 L410.3,297.0 L410.9,297.0 L411.3,297.0 L411.5,297.0 L412.0,297.0 L412.3,297.0 L412.7,297.0 L413.3,297.0 L413.9,297.0 L414.7,297.0 L415.1,297.0 L415.8,297.0 L416.7,297.0 L417.7,297.0 L418.7,297.0 L419.8,297.0 L420.4,297.0 L421.2,297.0 L422.1,297.0 L424.6,297.1 L425.8,297.1 L426.5,297.0 L427.3,297.0 L428.0,297.0 L428.8,297.0 L429.6,297.1 L430.2,297.1 L431.6,297.0 L431.6,297.0 L430.8,297.0 L430.1,297.0 L429.3,297.0 L428.9,297.0 L428.4,297.0 L428.4,297.0 L429.0,296.9 L429.8,296.9 L430.6,296.9 L430.8,296.9 L431.4,296.9 L432.0,296.9 L432.3,296.8 L432.9,296.8 L434.0,296.8 L435.2,296.8 L436.1,296.7 L436.7,296.7 L437.4,296.7 L437.9,296.7 L438.1,296.7 L437.9,296.7 L438.1,296.7 L438.9,296.7 L439.5,296.7 L439.5,296.7 L439.5,296.7 L439.3,296.7 L437.4,296.6 L435.4,296.6 L434.6,296.6 L432.9,296.6 L432.0,296.6 L431.0,296.6 L429.0,296.5 L428.2,296.5 L427.6,296.5 L427.4,296.4 L427.6,296.4 L427.7,296.4 L430.3,296.4 L431.4,296.4 L431.9,296.4 L432.2,296.4 L432.4,296.4 L433.8,296.4 L435.9,296.4 L436.1,296.4 L436.1,296.3 L436.9,296.3 L438.1,296.3 L439.2,296.3 L439.8,296.3 L440.5,296.3 L441.2,296.3 L441.9,296.3 L442.6,296.3 L443.8,296.2 L444.6,296.2 L445.5,296.2 L446.0,296.2 L446.3,296.2 L446.6,296.2 L446.3,296.2 L445.5,296.1 L445.0,296.1 L445.3,296.1 L445.0,296.1 L446.7,296.1 L446.8,296.1 L446.7,296.1 L447.1,296.0 L447.0,296.0 L446.6,296.0 L446.9,296.0 L446.9,296.0 L448.0,296.0 L449.1,296.0 L450.0,296.0 L450.3,296.0 L450.4,296.0 L450.7,296.0 L451.3,296.0 L452.1,296.0 L452.8,296.1 L453.1,296.1 L453.0,296.1 L456.5,296.1 L457.4,296.1 L458.7,296.1 L459.4,296.1 L460.3,296.1 L461.0,296.1 L461.7,296.2 L462.2,296.2 L462.7,296.2 L462.9,296.2 L463.4,296.2 L464.7,296.2 L465.4,296.2 L465.9,296.3 L466.7,296.3 L468.0,296.3 L468.5,296.3 L468.9,296.3 L469.2,296.3 L469.9,296.3 L471.4,296.3 L472.0,296.3 L473.0,296.3 L473.6,296.3 L473.7,296.3 L473.6,296.3 L474.0,296.3 L474.6,296.3 L475.2,296.3 L476.0,296.3 L477.1,296.3 L478.0,296.3 L478.9,296.3 L479.7,296.3 L480.1,296.3 L481.4,296.3 L481.8,296.3 L484.2,296.3 L484.8,296.3 L485.8,296.4 L486.4,296.4 L487.8,296.4 L488.3,296.4 L488.7,296.4 L490.5,296.4 L491.1,296.4 L491.4,296.4 L491.3,296.5 L491.3,296.5 L490.8,296.5 L490.9,296.5 L491.3,296.5 L491.6,296.6 L491.8,296.6 L491.3,296.6 L491.3,296.6 L491.6,296.7 L491.8,296.7 L492.5,296.7 L493.2,296.7 L494.1,296.8 L494.8,296.8 L495.2,296.8 L495.4,296.8 L494.6,296.8 L494.3,296.8 L494.2,296.8 L494.7,296.8 L494.5,296.9 L494.8,296.9 L495.5,296.9 L496.9,296.9 L496.5,296.9 L495.9,296.9 L495.5,296.9 L495.3,296.9 L495.4,297.0 L495.7,297.0 L495.3,297.0 L494.9,297.0 L494.2,297.0 L492.7,297.0 L491.7,297.0 L490.6,297.0 L489.6,297.0 L489.1,297.0 L487.7,297.0 L486.5,297.0 L485.4,297.0 L484.0,297.0 L483.2,297.0 L483.2,297.0 L483.2,297.1 L483.6,297.1 L485.2,297.1 L485.6,297.1 L485.5,297.1 L485.3,297.1 L486.1,297.1 L486.6,297.1 L487.3,297.1 L487.9,297.1 L489.1,297.1 L490.0,297.1 L490.3,297.2 L490.1,297.2 L489.8,297.2 L489.2,297.2 L488.6,297.3 L488.4,297.3 L488.5,297.3 L489.0,297.3 L487.8,297.4 L486.2,297.4 L485.0,297.4 L483.1,297.4 L482.5,297.4 L481.1,297.4 L479.4,297.4 L475.0,297.5 L472.7,297.5 L471.3,297.5 L468.8,297.5 L467.6,297.6 L466.6,297.6 L465.8,297.6 L464.2,297.6 L463.0,297.6 L461.2,297.6 L460.3,297.6 L459.0,297.6 L456.4,297.7 L455.3,297.7 L453.0,297.7 L452.8,297.7 L453.3,297.7 L453.2,297.7 L452.9,297.7 L451.4,297.7 L449.8,297.8 L449.0,297.8 L446.3,297.8 L445.8,297.8 L445.1,297.8 L445.0,297.8 L445.3,297.8 L445.3,297.8 L444.7,297.8 L444.5,297.8 L443.8,297.8 L442.5,297.8 L439.8,297.8 L438.2,297.8 L435.7,297.8 L433.2,297.8 L431.0,297.8 L430.0,297.8 L429.0,297.8 L428.4,297.8 L427.2,297.8 L425.5,297.8 L422.4,297.8 L420.7,297.8 L419.3,297.8 L418.3,297.9 L417.7,297.9 L416.6,297.9 L416.0,297.9 L415.3,297.8 L414.8,297.8 L413.9,297.8 L412.0,297.8 L411.8,297.8 L411.5,297.8 L410.7,297.8 L409.7,297.8 L408.9,297.8 L407.8,297.8 L406.5,297.8 L404.8,297.8 L403.3,297.8 L401.3,297.8 L400.9,297.9 L400.5,297.9 L400.2,297.9 L399.8,297.9 L399.0,297.9 L397.1,297.9 L394.7,297.9 L394.1,297.9 L393.1,297.9 L392.2,297.9 L391.4,297.9 L390.5,297.9 Z M364.0,297.3 L363.9,297.3 L363.8,297.3 L363.6,297.3 L363.6,297.3 L363.6,297.3 L363.7,297.3 L363.7,297.2 L363.9,297.2 L363.9,297.2 L364.1,297.2 L364.0,297.3 Z" data-name="Marrakech-Safi" fill="#DDD0BB" stroke="#B8A898" stroke-width="1.2" stroke-linejoin="round" stroke-linecap="round"/>
  <path d="M647.0,295.8 L644.6,295.9 L644.1,295.9 L643.7,295.9 L642.5,295.9 L640.4,296.0 L638.8,296.0 L637.7,296.1 L637.4,296.1 L636.8,296.1 L635.4,296.1 L635.0,296.1 L635.0,296.1 L635.2,296.1 L633.6,296.2 L632.2,296.2 L628.7,296.2 L627.0,296.1 L625.6,296.1 L624.5,296.1 L624.1,296.1 L624.2,296.1 L623.9,296.1 L622.6,296.0 L619.6,296.0 L617.7,296.0 L616.5,295.9 L615.7,295.9 L615.0,295.9 L613.4,295.9 L610.4,295.9 L608.8,295.9 L607.2,295.9 L606.1,295.9 L604.0,295.9 L602.1,295.9 L601.7,295.8 L601.8,295.8 L602.4,295.8 L602.6,295.8 L602.3,295.8 L599.9,295.7 L598.8,295.7 L598.2,295.7 L596.3,295.6 L596.1,295.6 L595.7,295.6 L594.0,295.5 L592.3,295.5 L591.1,295.4 L590.2,295.4 L590.1,295.4 L590.4,295.4 L591.6,295.4 L593.7,295.3 L594.8,295.3 L595.3,295.3 L595.6,295.2 L595.6,295.2 L595.3,295.2 L594.5,295.2 L593.3,295.2 L591.8,295.1 L590.6,295.1 L589.2,295.1 L586.1,295.1 L585.0,295.1 L584.5,295.1 L584.5,295.1 L585.9,295.0 L586.6,295.0 L586.6,294.9 L586.4,294.9 L585.6,294.9 L584.8,294.9 L583.6,294.9 L583.3,294.8 L583.1,294.8 L582.6,294.8 L581.4,294.8 L579.9,294.8 L578.4,294.8 L577.7,294.8 L577.4,294.7 L576.9,294.7 L576.3,294.7 L575.1,294.7 L573.5,294.7 L572.9,294.7 L572.5,294.7 L572.4,294.7 L572.6,294.6 L572.4,294.6 L571.9,294.5 L571.3,294.5 L570.8,294.5 L570.1,294.5 L569.9,294.5 L570.1,294.5 L571.2,294.5 L572.0,294.5 L572.6,294.5 L573.3,294.5 L573.7,294.5 L574.2,294.5 L574.3,294.5 L574.6,294.5 L575.5,294.5 L576.0,294.5 L576.8,294.5 L577.5,294.5 L578.3,294.5 L578.8,294.5 L579.1,294.5 L579.8,294.5 L580.2,294.5 L580.5,294.5 L580.8,294.5 L581.6,294.5 L581.9,294.5 L582.8,294.5 L583.5,294.5 L584.1,294.5 L584.4,294.5 L585.1,294.5 L585.6,294.5 L585.7,294.5 L585.6,294.5 L586.0,294.5 L586.5,294.5 L587.1,294.5 L587.5,294.5 L588.0,294.5 L587.9,294.5 L587.7,294.5 L587.9,294.5 L588.4,294.5 L588.6,294.5 L588.9,294.5 L590.3,294.5 L590.8,294.5 L591.5,294.5 L592.1,294.5 L592.9,294.5 L593.3,294.5 L593.4,294.5 L593.1,294.5 L592.7,294.5 L593.0,294.5 L593.8,294.5 L594.7,294.5 L595.3,294.5 L595.4,294.5 L596.0,294.5 L596.1,294.5 L594.9,294.5 L594.7,294.5 L595.3,294.6 L595.5,294.6 L595.5,294.6 L595.8,294.6 L596.8,294.6 L597.3,294.6 L597.8,294.6 L599.0,294.6 L599.7,294.6 L599.9,294.6 L599.8,294.6 L599.7,294.6 L599.7,294.6 L600.0,294.6 L600.5,294.6 L601.2,294.6 L601.6,294.6 L601.7,294.6 L601.7,294.6 L601.9,294.6 L601.7,294.6 L601.6,294.6 L601.7,294.7 L602.0,294.7 L602.7,294.7 L602.8,294.7 L603.5,294.7 L604.5,294.7 L605.0,294.7 L605.7,294.7 L606.9,294.7 L607.4,294.7 L608.2,294.7 L608.7,294.7 L609.9,294.7 L610.6,294.7 L610.4,294.7 L611.4,294.8 L611.6,294.8 L611.6,294.8 L611.4,294.8 L611.5,294.9 L612.3,294.9 L612.9,294.9 L614.6,294.9 L615.6,294.9 L616.3,294.9 L618.0,294.9 L618.7,294.9 L619.2,294.9 L619.4,294.9 L619.8,294.9 L620.8,294.9 L621.4,294.9 L622.1,294.9 L623.3,294.9 L624.6,294.9 L625.9,294.9 L626.1,294.9 L626.5,294.9 L626.8,294.9 L627.5,294.9 L628.1,295.0 L631.2,295.0 L631.8,295.0 L631.7,295.0 L630.1,295.0 L629.3,295.0 L628.9,295.0 L628.6,295.0 L628.1,295.0 L628.1,295.0 L627.8,295.1 L627.9,295.1 L628.3,295.1 L629.0,295.1 L629.2,295.1 L630.3,295.1 L630.9,295.1 L631.8,295.1 L632.8,295.1 L633.5,295.1 L634.0,295.1 L633.9,295.1 L633.4,295.1 L632.4,295.2 L632.2,295.2 L632.5,295.2 L633.3,295.2 L633.7,295.2 L634.1,295.2 L635.4,295.2 L636.6,295.2 L638.1,295.2 L639.1,295.2 L640.7,295.2 L642.6,295.2 L643.7,295.2 L644.7,295.2 L645.3,295.1 L645.7,295.1 L646.2,295.1 L646.3,295.1 L646.5,295.1 L647.3,295.1 L648.2,295.1 L649.2,295.1 L649.9,295.0 L650.3,295.0 L652.1,295.0 L653.1,295.0 L653.9,295.0 L654.8,295.0 L655.8,294.9 L656.5,294.9 L657.1,294.9 L657.7,294.9 L658.0,294.9 L658.4,294.9 L659.1,294.9 L659.7,294.9 L660.1,294.9 L660.3,294.9 L661.6,294.9 L662.0,294.9 L662.3,294.9 L663.1,294.9 L664.4,294.9 L665.3,295.0 L666.0,295.0 L669.0,295.0 L670.0,295.0 L671.1,295.0 L672.5,295.0 L673.5,295.0 L674.3,295.0 L675.3,295.0 L677.9,295.0 L679.5,295.0 L679.4,295.1 L679.2,295.1 L678.6,295.1 L677.9,295.1 L677.2,295.1 L676.1,295.2 L674.1,295.2 L673.6,295.2 L673.0,295.3 L672.9,295.3 L673.1,295.3 L673.4,295.3 L673.9,295.3 L675.9,295.3 L676.9,295.3 L678.7,295.4 L680.3,295.4 L680.9,295.4 L681.6,295.4 L682.2,295.4 L684.7,295.5 L685.9,295.5 L686.6,295.6 L686.2,295.6 L685.2,295.6 L683.9,295.6 L682.2,295.6 L681.1,295.6 L680.0,295.7 L677.5,295.7 L674.7,295.7 L673.4,295.7 L671.9,295.7 L668.5,295.7 L664.0,295.7 L662.3,295.7 L659.1,295.7 L657.7,295.7 L656.6,295.7 L653.8,295.7 L653.1,295.7 L652.0,295.7 L650.7,295.7 L648.9,295.8 L647.0,295.8 Z" data-name="Fès-Meknès" fill="#DDD0BB" stroke="#B8A898" stroke-width="1.2" stroke-linejoin="round" stroke-linecap="round"/>
  <path d="M567.4,294.6 L567.6,294.6 L567.2,294.6 L566.5,294.6 L565.5,294.6 L564.8,294.7 L563.0,294.7 L562.3,294.7 L561.8,294.7 L562.2,294.7 L562.0,294.6 L561.3,294.6 L558.4,294.6 L557.5,294.6 L556.7,294.6 L555.6,294.6 L555.3,294.6 L556.1,294.6 L556.4,294.6 L555.8,294.6 L554.6,294.6 L554.1,294.6 L553.5,294.5 L551.8,294.5 L550.1,294.6 L550.2,294.6 L549.6,294.6 L548.9,294.6 L547.2,294.6 L546.8,294.6 L546.8,294.6 L547.3,294.6 L548.2,294.6 L548.8,294.6 L549.3,294.7 L549.6,294.7 L547.0,294.7 L546.0,294.7 L544.7,294.7 L542.6,294.7 L541.6,294.7 L539.2,294.7 L538.3,294.7 L537.2,294.7 L534.9,294.6 L534.0,294.6 L532.8,294.6 L531.5,294.6 L527.9,294.6 L526.8,294.6 L525.7,294.6 L524.2,294.6 L523.3,294.6 L522.6,294.6 L521.6,294.6 L521.0,294.6 L520.0,294.6 L519.0,294.6 L517.3,294.7 L516.6,294.7 L516.0,294.7 L514.7,294.7 L514.1,294.7 L513.3,294.6 L512.6,294.6 L512.3,294.6 L511.8,294.6 L511.2,294.6 L510.4,294.6 L510.1,294.6 L509.4,294.6 L510.2,294.6 L510.9,294.5 L511.0,294.5 L510.6,294.5 L511.1,294.5 L511.6,294.5 L511.9,294.5 L512.4,294.5 L512.4,294.5 L512.2,294.5 L512.1,294.5 L512.0,294.5 L511.8,294.5 L511.2,294.5 L510.7,294.5 L510.7,294.5 L511.1,294.5 L512.4,294.5 L512.6,294.5 L512.7,294.5 L513.2,294.5 L513.4,294.5 L513.4,294.5 L516.5,294.4 L518.3,294.3 L518.7,294.3 L518.8,294.3 L519.5,294.3 L519.5,294.3 L519.7,294.3 L520.7,294.2 L523.6,294.1 L524.7,294.1 L524.8,294.1 L526.0,294.0 L526.1,294.0 L526.6,294.0 L526.6,294.0 L526.8,294.0 L526.9,294.0 L527.3,294.0 L528.8,293.9 L529.3,293.9 L529.6,293.9 L529.8,293.9 L529.7,293.9 L529.6,293.9 L529.7,293.9 L529.5,293.9 L529.3,293.9 L529.1,293.9 L529.1,294.0 L529.3,294.0 L529.2,294.0 L529.4,294.0 L529.6,294.0 L530.1,294.0 L530.3,294.0 L530.3,294.0 L530.4,294.0 L530.4,294.0 L530.5,294.0 L530.9,294.0 L530.9,294.0 L530.9,294.0 L531.3,294.0 L531.3,294.0 L531.4,294.0 L531.4,293.9 L531.5,293.9 L531.2,293.9 L531.3,293.9 L531.1,293.9 L530.9,293.9 L530.3,293.9 L530.1,293.9 L529.8,293.9 L529.7,293.9 L529.4,293.9 L529.2,293.9 L529.0,293.9 L529.1,293.9 L529.4,293.9 L529.7,293.9 L530.1,293.9 L530.3,293.8 L531.3,293.8 L532.6,293.8 L535.8,293.8 L537.3,293.8 L538.9,293.8 L540.2,293.8 L545.5,293.8 L548.4,293.8 L549.3,293.9 L551.0,293.9 L551.4,293.9 L552.0,293.9 L552.9,293.9 L553.7,293.9 L554.1,293.9 L555.0,293.9 L556.2,293.9 L556.9,293.9 L557.9,293.9 L558.5,294.0 L558.9,294.0 L559.4,294.0 L560.1,294.0 L561.4,294.0 L561.8,294.0 L562.3,294.0 L563.0,294.0 L563.5,294.0 L564.5,294.0 L564.8,294.0 L565.4,294.0 L565.5,294.0 L566.9,294.0 L567.2,294.0 L567.5,294.0 L567.9,294.0 L568.8,294.0 L569.2,294.0 L569.6,294.0 L571.1,294.1 L573.6,294.1 L575.0,294.1 L576.2,294.1 L577.3,294.1 L578.2,294.1 L579.2,294.1 L579.7,294.0 L580.3,294.0 L582.8,294.1 L583.5,294.1 L583.0,294.1 L583.0,294.1 L582.6,294.2 L582.2,294.2 L582.3,294.2 L583.0,294.2 L582.8,294.2 L582.2,294.2 L580.9,294.2 L580.1,294.2 L579.4,294.2 L579.1,294.3 L578.5,294.3 L577.7,294.3 L576.7,294.3 L576.0,294.3 L575.7,294.3 L575.7,294.3 L575.0,294.3 L574.3,294.3 L573.7,294.3 L573.0,294.4 L569.9,294.4 L567.7,294.4 L567.3,294.4 L568.0,294.4 L568.2,294.4 L567.8,294.4 L568.1,294.5 L568.7,294.5 L569.6,294.5 L570.2,294.5 L569.9,294.5 L570.1,294.5 L570.8,294.5 L571.3,294.5 L570.7,294.5 L569.8,294.5 L569.3,294.5 L569.4,294.6 L569.2,294.6 L568.1,294.6 L567.0,294.6 L566.7,294.6 L567.4,294.6 Z M530.9,293.9 L530.8,293.9 L530.7,293.9 L530.9,293.9 L530.9,293.9 Z M530.0,293.9 L530.1,293.9 L530.0,293.9 L529.7,293.9 L529.8,293.9 L529.9,293.9 L530.0,293.9 Z M544.2,295.5 L543.3,295.5 L542.4,295.5 L541.4,295.5 L540.5,295.5 L540.0,295.5 L539.1,295.5 L538.1,295.5 L537.4,295.5 L537.2,295.5 L536.8,295.4 L536.8,295.4 L536.4,295.4 L535.3,295.4 L534.8,295.4 L534.2,295.4 L533.6,295.4 L533.3,295.4 L532.9,295.4 L532.2,295.4 L530.7,295.4 L529.5,295.4 L528.4,295.4 L526.6,295.4 L525.9,295.4 L525.2,295.5 L525.7,295.5 L525.2,295.5 L524.8,295.5 L525.6,295.5 L526.0,295.5 L524.2,295.6 L523.2,295.6 L522.3,295.6 L521.2,295.6 L520.3,295.6 L519.7,295.6 L519.0,295.6 L518.4,295.6 L516.4,295.6 L514.5,295.6 L513.5,295.6 L512.6,295.6 L510.8,295.6 L509.7,295.6 L508.8,295.6 L507.5,295.6 L507.0,295.6 L506.5,295.6 L505.8,295.6 L504.6,295.6 L503.1,295.6 L503.4,295.5 L503.7,295.5 L503.7,295.5 L503.2,295.5 L503.2,295.5 L503.3,295.5 L503.7,295.4 L504.5,295.4 L504.8,295.4 L504.5,295.4 L503.8,295.4 L503.2,295.4 L502.6,295.3 L502.5,295.3 L502.6,295.3 L502.8,295.3 L505.5,295.2 L506.0,295.2 L504.8,295.2 L504.0,295.2 L503.0,295.2 L501.1,295.2 L500.6,295.2 L500.2,295.2 L499.3,295.2 L499.0,295.2 L498.9,295.2 L498.3,295.2 L497.5,295.2 L496.6,295.1 L495.8,295.1 L495.8,295.2 L495.1,295.2 L495.0,295.1 L495.5,295.1 L495.2,295.1 L494.7,295.1 L494.6,295.1 L494.2,295.1 L494.1,295.1 L494.2,295.1 L494.0,295.0 L493.6,295.0 L492.9,295.0 L492.5,295.0 L490.4,295.0 L489.9,295.0 L489.8,295.0 L490.0,295.0 L490.0,295.0 L490.1,295.0 L490.2,295.0 L490.4,295.0 L490.6,295.0 L490.6,295.0 L490.8,294.9 L490.9,294.9 L491.1,294.9 L491.0,294.9 L491.2,294.9 L491.3,294.9 L491.7,294.9 L491.7,294.9 L491.9,294.9 L492.0,294.9 L492.1,294.9 L492.5,294.9 L492.6,294.9 L492.7,294.9 L492.6,294.9 L492.5,294.9 L492.4,294.9 L492.4,294.9 L492.1,294.9 L492.6,294.9 L492.8,294.9 L492.8,294.9 L493.2,294.9 L493.3,294.9 L493.3,294.9 L493.5,294.9 L493.3,294.9 L493.4,294.9 L493.5,294.9 L493.6,294.9 L493.6,294.9 L493.7,294.9 L493.7,294.9 L493.9,294.9 L494.2,294.9 L494.4,294.9 L494.4,294.9 L495.0,294.9 L495.1,294.9 L495.3,294.9 L495.7,294.9 L495.6,294.9 L495.9,294.9 L496.2,294.9 L496.2,294.9 L496.5,294.9 L496.7,294.9 L496.8,294.9 L496.7,294.9 L496.6,294.9 L496.7,294.9 L496.8,294.9 L496.9,294.9 L496.9,294.9 L497.1,294.9 L497.2,294.9 L497.1,294.9 L497.3,294.9 L497.4,294.9 L497.3,294.9 L497.5,294.9 L497.5,294.9 L497.5,294.9 L497.8,294.9 L497.9,294.9 L498.0,294.9 L498.7,294.8 L499.1,294.8 L499.4,294.8 L499.8,294.8 L500.0,294.8 L500.7,294.8 L501.1,294.8 L501.2,294.8 L501.4,294.8 L501.5,294.8 L502.7,294.8 L503.1,294.8 L503.3,294.8 L503.3,294.8 L503.4,294.8 L503.4,294.8 L503.6,294.8 L503.6,294.8 L503.7,294.8 L504.6,294.8 L504.5,294.8 L503.9,294.8 L503.8,294.8 L503.8,294.8 L503.4,294.8 L503.4,294.8 L503.6,294.8 L504.5,294.7 L504.7,294.7 L504.8,294.7 L504.9,294.7 L505.0,294.7 L505.1,294.7 L505.9,294.7 L506.3,294.7 L506.6,294.7 L507.1,294.7 L507.2,294.7 L507.3,294.7 L507.4,294.7 L507.5,294.7 L507.8,294.7 L508.2,294.6 L508.5,294.6 L509.1,294.6 L509.4,294.6 L510.1,294.6 L510.4,294.6 L511.2,294.6 L511.8,294.6 L512.3,294.6 L512.6,294.6 L513.3,294.6 L514.1,294.7 L514.7,294.7 L516.0,294.7 L516.6,294.7 L517.3,294.7 L519.0,294.6 L520.0,294.6 L521.0,294.6 L521.6,294.6 L522.6,294.6 L523.3,294.6 L524.2,294.6 L525.7,294.6 L526.8,294.6 L527.9,294.6 L531.5,294.6 L532.8,294.6 L534.0,294.6 L534.9,294.6 L537.2,294.7 L538.3,294.7 L539.2,294.7 L541.6,294.7 L542.6,294.7 L544.7,294.7 L546.0,294.7 L547.0,294.7 L549.6,294.7 L549.8,294.7 L550.4,294.8 L552.5,294.8 L553.4,294.8 L553.9,294.8 L553.5,294.9 L552.0,294.9 L551.3,294.9 L551.3,294.9 L551.6,294.9 L551.9,294.9 L552.6,294.9 L553.1,294.9 L553.3,294.9 L552.9,294.9 L552.9,295.0 L553.3,295.0 L554.5,295.0 L555.1,295.0 L555.2,295.0 L554.5,295.2 L553.6,295.2 L553.1,295.3 L553.3,295.4 L554.0,295.4 L553.9,295.5 L553.0,295.5 L551.9,295.5 L549.6,295.5 L547.0,295.5 L546.0,295.5 L544.2,295.5 Z M493.0,294.9 L493.0,294.9 L492.8,294.9 L492.9,294.9 L493.0,294.9 Z" data-name="Rabat-Salé-Kénitra" fill="#DDD0BB" stroke="#B8A898" stroke-width="1.2" stroke-linejoin="round" stroke-linecap="round"/>
  <path d="M279.7,300.7 L277.5,300.7 L277.1,300.6 L275.9,300.6 L274.5,300.5 L272.6,300.5 L269.7,300.4 L271.2,300.4 L271.3,300.4 L271.7,300.4 L271.8,300.4 L272.1,300.4 L272.3,300.4 L272.6,300.4 L272.8,300.4 L273.1,300.4 L273.4,300.4 L273.7,300.3 L274.5,300.3 L274.6,300.3 L275.2,300.3 L276.4,300.3 L276.5,300.3 L276.6,300.3 L276.7,300.3 L276.6,300.3 L276.7,300.3 L277.2,300.3 L277.8,300.3 L278.6,300.3 L279.0,300.3 L280.2,300.3 L280.7,300.3 L281.0,300.3 L281.1,300.3 L281.2,300.3 L281.1,300.3 L281.0,300.3 L281.1,300.3 L281.2,300.3 L281.4,300.3 L281.4,300.3 L281.5,300.3 L281.5,300.3 L281.6,300.3 L281.7,300.3 L281.8,300.3 L281.6,300.3 L281.4,300.3 L281.4,300.3 L281.5,300.3 L281.5,300.3 L281.6,300.3 L281.6,300.3 L281.9,300.3 L282.4,300.3 L283.1,300.3 L283.5,300.3 L283.8,300.3 L284.0,300.3 L284.5,300.3 L285.1,300.3 L285.3,300.2 L285.5,300.2 L286.0,300.2 L286.2,300.2 L286.5,300.2 L287.2,300.2 L287.6,300.2 L288.0,300.2 L288.1,300.2 L288.0,300.2 L288.4,300.2 L288.9,300.2 L289.4,300.1 L289.5,300.1 L289.7,300.1 L289.6,300.1 L289.7,300.1 L289.8,300.1 L289.7,300.1 L289.9,300.1 L289.8,300.1 L289.4,300.1 L289.7,300.1 L289.4,300.1 L289.8,300.1 L289.9,300.1 L290.2,300.1 L290.3,300.1 L290.6,300.1 L290.6,300.1 L291.3,300.1 L291.7,300.1 L292.0,300.1 L293.1,300.1 L293.9,300.1 L294.0,300.1 L294.0,300.1 L294.2,300.1 L294.4,300.0 L295.2,300.0 L295.5,300.0 L295.7,300.0 L296.4,300.0 L298.5,300.0 L300.1,299.9 L300.3,299.9 L300.4,299.9 L301.0,299.9 L301.1,299.9 L301.3,299.9 L301.8,299.9 L302.2,299.9 L302.9,299.9 L302.9,299.9 L303.2,299.9 L303.5,299.9 L303.8,299.9 L304.2,299.9 L304.5,299.9 L305.5,299.9 L306.2,299.9 L306.8,299.8 L307.6,299.8 L307.7,299.8 L308.2,299.8 L308.8,299.8 L309.1,299.8 L310.4,299.8 L310.8,299.8 L311.3,299.8 L311.5,299.8 L312.4,299.8 L315.0,299.8 L317.4,299.7 L317.6,299.7 L318.4,299.7 L319.0,299.7 L320.4,299.7 L321.6,299.7 L322.0,299.7 L323.9,299.7 L324.2,299.7 L325.0,299.7 L325.2,299.7 L325.3,299.7 L326.1,299.7 L326.2,299.7 L327.3,299.6 L327.5,299.6 L327.8,299.6 L328.1,299.6 L329.6,299.6 L329.8,299.6 L329.9,299.6 L329.9,299.6 L330.1,299.6 L330.5,299.6 L330.7,299.6 L330.9,299.6 L330.9,299.6 L331.1,299.6 L331.1,299.6 L331.4,299.6 L331.7,299.6 L331.8,299.6 L331.9,299.6 L332.1,299.6 L332.3,299.6 L332.5,299.6 L332.6,299.6 L332.9,299.6 L332.9,299.6 L335.2,299.6 L336.1,299.6 L337.6,299.6 L339.8,299.6 L340.9,299.6 L341.9,299.6 L342.8,299.6 L343.9,299.6 L345.1,299.6 L345.9,299.6 L346.2,299.6 L346.8,299.6 L347.4,299.6 L348.8,299.6 L350.3,299.6 L351.1,299.6 L351.9,299.6 L352.8,299.6 L353.8,299.5 L354.8,299.5 L355.6,299.5 L356.3,299.5 L356.7,299.5 L357.5,299.5 L358.3,299.5 L359.3,299.5 L359.8,299.5 L360.7,299.5 L361.4,299.4 L361.8,299.4 L362.4,299.4 L363.2,299.4 L364.4,299.4 L365.3,299.4 L366.2,299.4 L366.9,299.4 L367.7,299.4 L368.6,299.4 L368.9,299.5 L369.3,299.5 L370.0,299.5 L371.2,299.5 L371.9,299.5 L373.1,299.5 L373.8,299.4 L374.9,299.4 L377.8,299.4 L378.9,299.4 L381.5,299.4 L383.2,299.4 L383.8,299.4 L384.2,299.3 L385.2,299.3 L386.2,299.3 L387.5,299.3 L389.5,299.3 L391.3,299.4 L391.8,299.4 L392.0,299.4 L393.5,299.4 L393.7,299.4 L394.0,299.4 L394.1,299.4 L395.0,299.3 L395.5,299.3 L396.2,299.3 L396.3,299.3 L397.1,299.3 L398.3,299.2 L398.9,299.2 L400.4,299.2 L401.9,299.2 L403.9,299.2 L405.2,299.2 L406.5,299.2 L407.4,299.2 L409.2,299.2 L411.3,299.2 L412.5,299.2 L414.0,299.2 L415.1,299.2 L415.9,299.2 L416.9,299.2 L417.5,299.2 L417.1,299.1 L416.2,299.1 L415.6,299.1 L415.2,299.1 L414.7,299.1 L414.6,299.1 L414.6,299.0 L414.6,299.0 L414.7,299.0 L414.8,299.0 L414.9,298.9 L415.2,298.9 L416.7,298.9 L418.4,298.9 L418.7,298.8 L418.7,298.8 L418.4,298.8 L417.1,298.8 L415.6,298.8 L415.2,298.8 L414.7,298.8 L414.3,298.8 L414.2,298.8 L414.3,298.8 L414.1,298.8 L414.2,298.8 L415.0,298.8 L415.9,298.7 L416.7,298.7 L417.5,298.7 L419.6,298.7 L420.9,298.7 L421.8,298.8 L424.5,298.8 L426.8,298.8 L427.7,298.8 L428.6,298.8 L429.2,298.8 L430.1,298.8 L431.1,298.8 L432.1,298.8 L433.1,298.7 L433.6,298.7 L434.1,298.7 L435.1,298.7 L436.1,298.7 L437.4,298.7 L438.5,298.7 L439.4,298.7 L440.8,298.7 L441.9,298.7 L442.8,298.8 L444.0,298.8 L445.1,298.8 L446.0,298.8 L447.2,298.8 L447.9,298.8 L448.6,298.8 L449.7,298.8 L450.9,298.8 L451.5,298.8 L452.3,298.7 L453.1,298.7 L454.0,298.7 L455.1,298.7 L456.1,298.7 L456.9,298.7 L457.9,298.7 L458.8,298.7 L460.3,298.7 L460.7,298.7 L461.3,298.7 L462.5,298.7 L464.0,298.7 L464.8,298.7 L465.6,298.7 L465.7,298.7 L464.3,298.5 L464.5,298.5 L465.9,298.5 L467.7,298.4 L468.7,298.4 L469.8,298.4 L471.7,298.4 L472.6,298.5 L473.5,298.5 L474.2,298.5 L474.7,298.5 L474.7,298.5 L475.1,298.6 L475.7,298.6 L476.5,298.6 L477.5,298.6 L478.9,298.6 L480.6,298.6 L481.9,298.6 L482.9,298.6 L486.1,298.6 L486.8,298.6 L487.2,298.6 L488.0,298.5 L488.8,298.5 L489.7,298.4 L490.2,298.4 L492.3,298.4 L493.0,298.4 L494.0,298.4 L495.0,298.4 L496.6,298.4 L497.5,298.4 L498.4,298.4 L499.5,298.4 L500.6,298.4 L501.8,298.4 L502.6,298.4 L504.3,298.4 L505.6,298.4 L506.8,298.4 L507.9,298.3 L509.3,298.3 L510.4,298.3 L511.6,298.3 L512.7,298.3 L513.9,298.3 L516.0,298.4 L516.7,298.4 L517.4,298.4 L517.9,298.4 L519.1,298.4 L520.3,298.5 L523.2,298.6 L524.1,298.6 L525.1,298.6 L525.3,298.7 L525.3,298.7 L525.4,298.7 L525.4,298.8 L524.8,298.8 L524.4,298.9 L524.6,298.9 L524.6,298.9 L524.5,299.0 L524.0,299.0 L524.0,299.0 L524.5,299.1 L524.3,299.1 L523.7,299.1 L522.3,299.1 L521.3,299.1 L520.1,299.1 L518.8,299.1 L518.4,299.1 L518.2,299.1 L517.9,299.1 L517.2,299.1 L516.6,299.1 L515.9,299.1 L514.0,299.1 L513.6,299.1 L513.6,299.1 L513.3,299.1 L512.6,299.1 L512.0,299.2 L510.9,299.2 L510.3,299.2 L509.0,299.2 L507.8,299.2 L507.3,299.2 L507.0,299.2 L506.4,299.2 L504.7,299.2 L503.7,299.2 L503.1,299.2 L502.6,299.2 L502.3,299.2 L501.7,299.2 L501.0,299.2 L500.2,299.2 L499.8,299.2 L498.2,299.2 L497.5,299.2 L497.2,299.2 L496.7,299.2 L496.3,299.2 L495.7,299.2 L495.1,299.2 L494.8,299.2 L494.2,299.2 L493.8,299.2 L492.8,299.2 L492.0,299.2 L490.7,299.1 L490.4,299.1 L489.5,299.1 L488.7,299.1 L487.0,299.2 L485.4,299.2 L484.5,299.2 L483.4,299.2 L480.0,299.3 L479.1,299.3 L478.0,299.3 L477.7,299.3 L477.6,299.3 L477.3,299.3 L476.3,299.3 L474.1,299.3 L472.4,299.3 L470.4,299.3 L469.1,299.3 L467.8,299.3 L467.4,299.3 L466.5,299.3 L466.2,299.3 L466.1,299.3 L466.3,299.3 L466.2,299.3 L466.2,299.3 L465.8,299.3 L465.7,299.3 L465.3,299.3 L465.0,299.4 L464.3,299.4 L463.4,299.4 L462.6,299.4 L462.2,299.4 L460.4,299.4 L458.6,299.4 L455.8,299.4 L455.0,299.5 L454.3,299.5 L453.9,299.5 L453.6,299.5 L453.3,299.5 L452.7,299.5 L451.6,299.5 L450.5,299.5 L450.4,299.5 L450.4,299.5 L450.2,299.5 L449.9,299.5 L448.5,299.5 L446.1,299.6 L445.4,299.6 L444.7,299.6 L443.5,299.6 L441.5,299.6 L441.3,299.6 L440.7,299.6 L440.0,299.6 L437.9,299.7 L436.4,299.7 L435.6,299.7 L433.2,299.7 L430.9,299.8 L429.4,299.8 L427.9,299.8 L426.6,299.8 L424.6,299.8 L421.0,299.9 L420.5,299.9 L417.7,299.9 L416.8,299.9 L416.9,300.8 L416.9,300.9 L416.8,300.9 L278.9,300.9 L278.8,300.9 L278.1,300.8 L279.7,300.8 L283.7,300.8 L279.7,300.7 Z" data-name="Guelmim-Oued Noun" fill="#DDD0BB" stroke="#B8A898" stroke-width="1.2" stroke-linejoin="round" stroke-linecap="round"/>
  <path d="M203.7,300.9 L188.1,301.1 L164.4,301.4 L140.7,301.8 L117.0,302.3 L93.4,302.8 L69.7,303.4 L46.0,304.0 L22.4,304.5 L20.0,305.2 L69.7,305.2 L164.4,305.2 L259.1,305.2 L353.8,305.0 L415.3,304.7 L415.3,303.4 L416.2,301.5 L416.7,300.9 L353.8,300.9 L306.4,300.9 L259.1,300.9 L203.7,300.9 Z" data-name="Laâyoune-Saguia al Hamra" fill="#DDD0BB" stroke="#B8A898" stroke-width="1.2" stroke-linejoin="round" stroke-linecap="round"/>
  <path d="M599.0,298.5 L593.5,298.6 L584.9,298.7 L583.3,298.6 L582.6,298.6 L581.9,298.6 L581.4,298.6 L581.1,298.5 L580.9,298.5 L580.5,298.5 L580.3,298.5 L580.4,298.5 L580.4,298.5 L580.6,298.4 L580.6,298.4 L580.4,298.4 L580.5,298.3 L580.5,298.3 L580.7,298.3 L581.0,298.3 L581.0,298.2 L580.9,298.2 L581.1,298.1 L581.1,298.1 L581.0,298.1 L579.4,298.1 L578.6,298.0 L578.4,298.0 L577.0,298.0 L574.4,297.9 L574.3,297.9 L573.9,297.9 L573.7,297.9 L573.6,297.8 L573.5,297.8 L573.9,297.8 L574.3,297.7 L574.9,297.7 L574.9,297.7 L575.4,297.6 L575.8,297.6 L576.0,297.5 L576.5,297.5 L577.3,297.5 L577.9,297.5 L578.3,297.4 L578.8,297.4 L579.1,297.4 L579.3,297.3 L579.0,297.3 L578.4,297.3 L577.8,297.3 L577.0,297.3 L575.8,297.2 L572.1,297.2 L571.1,297.2 L570.0,297.2 L568.7,297.2 L568.0,297.2 L567.5,297.1 L566.7,297.1 L565.3,297.1 L563.1,297.1 L560.1,297.1 L557.7,297.1 L556.7,297.1 L553.3,297.1 L552.7,297.1 L552.7,297.1 L553.3,297.1 L558.2,297.0 L559.5,297.0 L563.3,296.9 L564.1,296.9 L564.8,296.8 L565.3,296.8 L565.3,296.8 L564.8,296.8 L563.6,296.8 L562.5,296.8 L560.3,296.8 L559.3,296.7 L558.3,296.7 L557.7,296.7 L557.1,296.7 L556.5,296.7 L554.0,296.8 L553.0,296.8 L552.1,296.8 L552.5,296.8 L552.1,296.7 L551.0,296.7 L550.6,296.7 L550.9,296.7 L551.5,296.7 L552.0,296.7 L551.9,296.7 L551.6,296.7 L551.7,296.7 L552.5,296.6 L552.9,296.6 L552.9,296.6 L553.0,296.6 L553.3,296.6 L554.0,296.6 L554.7,296.6 L555.8,296.6 L556.7,296.6 L557.4,296.6 L557.6,296.5 L558.0,296.5 L559.1,296.5 L562.0,296.5 L563.3,296.5 L564.4,296.5 L565.2,296.5 L565.4,296.5 L565.4,296.5 L564.2,296.5 L564.3,296.4 L565.0,296.4 L565.3,296.4 L564.8,296.4 L564.7,296.4 L565.5,296.4 L565.7,296.4 L565.7,296.4 L566.5,296.3 L566.8,296.3 L566.5,296.3 L565.6,296.3 L564.4,296.3 L563.8,296.2 L563.3,296.2 L562.7,296.2 L561.5,296.2 L560.5,296.2 L560.1,296.2 L559.4,296.2 L558.1,296.2 L556.7,296.2 L556.1,296.2 L555.1,296.2 L553.9,296.2 L553.6,296.2 L553.3,296.1 L552.8,296.1 L551.8,296.1 L550.8,296.1 L549.8,296.1 L549.0,296.1 L548.2,296.0 L546.1,296.0 L545.3,296.0 L543.2,296.0 L542.5,296.0 L542.2,296.0 L542.5,296.0 L542.0,296.0 L542.1,296.0 L542.7,296.0 L543.1,295.9 L541.4,295.9 L541.2,295.9 L541.1,295.9 L540.2,295.9 L539.4,295.9 L538.9,295.9 L538.0,295.9 L537.2,295.9 L536.5,295.9 L536.4,295.9 L536.6,295.8 L537.1,295.8 L538.0,295.8 L538.7,295.8 L539.5,295.8 L539.6,295.8 L539.2,295.8 L537.1,295.8 L536.8,295.8 L536.8,295.8 L536.7,295.7 L535.9,295.7 L535.4,295.7 L534.0,295.7 L533.3,295.7 L532.4,295.7 L532.1,295.7 L531.8,295.7 L531.4,295.7 L530.6,295.7 L529.9,295.7 L529.4,295.7 L528.8,295.6 L528.1,295.6 L527.0,295.6 L525.7,295.6 L524.7,295.6 L524.3,295.6 L524.4,295.6 L525.0,295.6 L525.8,295.6 L526.0,295.5 L525.6,295.5 L524.8,295.5 L525.2,295.5 L525.7,295.5 L525.2,295.5 L525.9,295.4 L526.6,295.4 L528.4,295.4 L529.5,295.4 L530.7,295.4 L532.2,295.4 L532.9,295.4 L533.3,295.4 L533.6,295.4 L534.2,295.4 L534.8,295.4 L535.3,295.4 L536.4,295.4 L536.8,295.4 L536.8,295.4 L537.2,295.5 L537.4,295.5 L538.1,295.5 L539.1,295.5 L540.0,295.5 L540.5,295.5 L541.4,295.5 L542.4,295.5 L543.3,295.5 L544.2,295.5 L546.0,295.5 L547.0,295.5 L549.6,295.5 L551.9,295.5 L553.0,295.5 L553.9,295.5 L554.0,295.4 L553.3,295.4 L553.1,295.3 L553.6,295.2 L554.5,295.2 L555.2,295.0 L555.1,295.0 L554.5,295.0 L553.3,295.0 L552.9,295.0 L552.9,294.9 L553.3,294.9 L553.1,294.9 L552.6,294.9 L551.9,294.9 L551.6,294.9 L551.3,294.9 L551.3,294.9 L552.0,294.9 L553.5,294.9 L553.9,294.8 L553.4,294.8 L552.5,294.8 L550.4,294.8 L549.8,294.7 L549.6,294.7 L549.3,294.7 L548.8,294.6 L548.2,294.6 L547.3,294.6 L546.8,294.6 L546.8,294.6 L547.2,294.6 L548.9,294.6 L549.6,294.6 L550.2,294.6 L550.1,294.6 L551.8,294.5 L553.5,294.5 L554.1,294.6 L554.6,294.6 L555.8,294.6 L556.4,294.6 L556.1,294.6 L555.3,294.6 L555.6,294.6 L556.7,294.6 L557.5,294.6 L558.4,294.6 L561.3,294.6 L562.0,294.6 L562.2,294.7 L561.8,294.7 L562.3,294.7 L563.0,294.7 L564.8,294.7 L565.5,294.6 L566.5,294.6 L567.2,294.6 L567.6,294.6 L567.4,294.6 L566.7,294.6 L567.0,294.6 L568.1,294.6 L569.2,294.6 L569.4,294.6 L569.3,294.5 L569.8,294.5 L570.7,294.5 L571.3,294.5 L571.9,294.5 L572.4,294.6 L572.6,294.6 L572.4,294.7 L572.5,294.7 L572.9,294.7 L573.5,294.7 L575.1,294.7 L576.3,294.7 L576.9,294.7 L577.4,294.7 L577.7,294.8 L578.4,294.8 L579.9,294.8 L581.4,294.8 L582.6,294.8 L583.1,294.8 L583.3,294.8 L583.6,294.9 L584.8,294.9 L585.6,294.9 L586.4,294.9 L586.6,294.9 L586.6,295.0 L585.9,295.0 L584.5,295.1 L584.5,295.1 L585.0,295.1 L586.1,295.1 L589.2,295.1 L590.6,295.1 L591.8,295.1 L593.3,295.2 L594.5,295.2 L595.3,295.2 L595.6,295.2 L595.6,295.2 L595.3,295.3 L594.8,295.3 L593.7,295.3 L591.6,295.4 L590.4,295.4 L590.1,295.4 L590.2,295.4 L591.1,295.4 L592.3,295.5 L594.0,295.5 L595.7,295.6 L596.1,295.6 L596.3,295.6 L598.2,295.7 L598.8,295.7 L599.9,295.7 L602.3,295.8 L602.6,295.8 L602.4,295.8 L601.8,295.8 L601.7,295.8 L602.1,295.9 L604.0,295.9 L606.1,295.9 L607.2,295.9 L608.8,295.9 L610.4,295.9 L611.9,295.9 L613.4,295.9 L615.0,295.9 L615.7,295.9 L616.5,295.9 L617.7,296.0 L619.6,296.0 L622.6,296.0 L623.9,296.1 L624.2,296.1 L624.1,296.1 L624.5,296.1 L625.6,296.1 L627.0,296.1 L628.7,296.2 L632.2,296.2 L633.6,296.2 L635.2,296.1 L636.9,296.2 L638.5,296.2 L640.4,296.3 L641.9,296.3 L644.0,296.4 L644.8,296.4 L644.9,296.5 L645.0,296.5 L646.2,296.5 L647.7,296.5 L648.5,296.5 L649.5,296.5 L650.1,296.5 L651.0,296.5 L652.7,296.5 L653.5,296.5 L653.5,296.5 L652.6,296.6 L652.7,296.6 L653.5,296.6 L655.3,296.6 L657.1,296.6 L658.8,296.6 L661.5,296.6 L663.2,296.6 L667.1,296.6 L668.0,296.6 L669.8,296.6 L671.5,296.6 L673.2,296.6 L673.5,296.6 L673.6,296.6 L673.1,296.7 L672.1,296.7 L671.7,296.7 L671.3,296.8 L671.0,296.8 L671.1,296.8 L671.1,296.9 L671.4,296.9 L671.7,296.9 L672.2,297.0 L672.3,297.0 L672.7,297.0 L653.8,297.1 L653.7,297.2 L653.8,297.3 L654.5,297.4 L654.4,297.4 L654.0,297.4 L653.7,297.4 L653.4,297.4 L653.2,297.4 L653.0,297.4 L652.6,297.4 L652.4,297.4 L652.1,297.4 L651.9,297.4 L651.7,297.4 L651.5,297.4 L651.4,297.4 L651.0,297.4 L650.8,297.4 L650.4,297.4 L650.2,297.4 L649.9,297.4 L649.7,297.4 L649.3,297.4 L649.4,297.4 L649.1,297.4 L649.1,297.4 L649.2,297.4 L649.1,297.4 L648.4,297.4 L648.0,297.5 L648.2,297.5 L648.5,297.5 L648.6,297.5 L648.8,297.5 L649.4,297.5 L649.4,297.5 L649.2,297.5 L648.7,297.5 L648.4,297.5 L648.1,297.5 L648.3,297.5 L647.8,297.5 L648.2,297.5 L648.6,297.5 L648.6,297.5 L648.8,297.5 L648.9,297.5 L648.9,297.6 L649.2,297.6 L649.2,297.6 L648.9,297.6 L648.6,297.6 L648.4,297.6 L648.4,297.6 L648.5,297.6 L648.4,297.6 L648.5,297.6 L648.6,297.6 L649.4,297.6 L649.6,297.6 L649.9,297.6 L650.1,297.6 L650.4,297.6 L650.6,297.6 L650.7,297.6 L650.9,297.6 L650.9,297.6 L650.5,297.6 L650.7,297.6 L651.0,297.6 L651.2,297.6 L651.7,297.6 L651.6,297.6 L651.4,297.6 L651.5,297.6 L652.0,297.6 L652.2,297.6 L652.3,297.6 L653.0,297.6 L653.4,297.6 L653.3,297.6 L653.4,297.6 L653.4,297.6 L653.2,297.6 L653.2,297.6 L653.0,297.6 L653.2,297.7 L653.4,297.7 L653.8,297.7 L654.1,297.7 L653.7,297.6 L653.8,297.6 L653.7,297.6 L653.9,297.6 L654.1,297.6 L654.7,297.6 L655.0,297.6 L654.7,297.6 L654.6,297.6 L654.4,297.6 L654.7,297.6 L654.9,297.6 L654.9,297.6 L654.9,297.6 L655.1,297.6 L655.0,297.6 L654.9,297.6 L655.0,297.6 L655.3,297.6 L655.7,297.6 L655.9,297.6 L656.1,297.6 L656.0,297.6 L656.0,297.6 L656.3,297.6 L656.5,297.6 L656.4,297.6 L656.6,297.7 L657.1,297.7 L657.2,297.7 L657.4,297.7 L657.6,297.7 L657.9,297.7 L658.0,297.7 L658.1,297.7 L658.4,297.7 L658.5,297.7 L658.7,297.7 L658.6,297.7 L658.8,297.7 L659.1,297.7 L659.1,297.7 L659.0,297.7 L658.9,297.7 L659.1,297.7 L659.2,297.7 L659.3,297.7 L659.5,297.7 L659.5,297.7 L659.8,297.7 L659.8,297.7 L659.6,297.7 L659.7,297.7 L659.6,297.7 L659.6,297.8 L659.4,297.8 L659.3,297.8 L659.6,297.8 L659.6,297.8 L659.4,297.8 L659.0,297.8 L658.9,297.8 L659.0,297.8 L658.8,297.8 L658.8,297.8 L658.7,297.8 L658.5,297.8 L658.1,297.8 L657.9,297.8 L657.9,297.8 L657.5,297.8 L657.5,297.8 L657.6,297.8 L657.1,297.8 L656.9,297.8 L656.7,297.8 L656.5,297.8 L656.2,297.8 L656.0,297.9 L655.9,297.9 L655.6,297.9 L655.6,297.9 L655.1,297.9 L655.2,297.9 L655.0,297.9 L654.6,297.9 L654.4,297.9 L654.2,297.9 L654.2,297.9 L653.7,297.9 L654.0,297.9 L654.0,298.0 L654.3,298.0 L654.4,298.0 L654.7,298.0 L655.5,298.0 L655.7,298.0 L655.7,298.0 L656.0,298.0 L656.0,298.0 L655.7,298.0 L655.6,298.0 L655.4,298.0 L655.3,298.0 L655.3,298.0 L654.7,298.0 L654.5,298.0 L651.4,298.0 L645.2,298.1 L638.0,298.1 L630.9,298.1 L622.6,298.2 L609.1,298.4 L599.0,298.5 Z M651.7,297.6 L651.8,297.6 L651.7,297.6 L651.7,297.6 Z M654.5,297.7 L654.4,297.6 L654.1,297.7 L654.5,297.7 Z M654.8,297.6 L654.9,297.6 L654.9,297.6 L654.7,297.6 L654.8,297.6 Z" data-name="Drâa-Tafilalet" fill="#DDD0BB" stroke="#B8A898" stroke-width="1.2" stroke-linejoin="round" stroke-linecap="round"/>
  <path d="M710.6,296.6 L709.5,296.6 L708.6,296.6 L706.7,296.6 L706.0,296.6 L704.5,296.7 L704.1,296.7 L701.1,296.6 L699.5,296.7 L698.0,296.7 L696.9,296.7 L696.4,296.7 L694.7,296.7 L693.7,296.7 L690.8,296.7 L690.1,296.7 L689.9,296.7 L689.6,296.6 L689.2,296.6 L689.1,296.7 L689.0,296.7 L688.5,296.7 L688.5,296.7 L688.6,296.7 L688.3,296.7 L688.3,296.7 L688.0,296.7 L688.1,296.7 L688.7,296.8 L688.8,296.8 L689.4,296.8 L690.3,296.8 L690.4,296.8 L690.3,296.8 L690.5,296.8 L690.8,296.8 L691.0,296.8 L691.5,296.9 L691.7,296.9 L692.1,296.9 L692.2,296.9 L692.4,296.9 L692.3,296.9 L692.1,296.9 L692.1,296.9 L692.3,296.9 L692.8,296.9 L693.1,296.9 L693.2,296.9 L693.1,297.0 L692.6,297.0 L691.3,297.0 L685.5,297.0 L685.1,297.0 L685.2,297.0 L672.7,297.0 L672.3,297.0 L672.2,297.0 L671.7,296.9 L671.4,296.9 L671.1,296.9 L671.1,296.8 L671.0,296.8 L671.3,296.8 L671.7,296.7 L672.1,296.7 L673.1,296.7 L673.6,296.6 L673.5,296.6 L673.2,296.6 L671.5,296.6 L669.8,296.6 L668.0,296.6 L667.1,296.6 L663.2,296.6 L661.5,296.6 L658.8,296.6 L657.1,296.6 L655.3,296.6 L653.5,296.6 L652.7,296.6 L652.6,296.6 L653.5,296.5 L653.5,296.5 L652.7,296.5 L651.0,296.5 L650.1,296.5 L649.5,296.5 L648.5,296.5 L647.7,296.5 L646.2,296.5 L645.0,296.5 L644.9,296.5 L644.8,296.4 L644.0,296.4 L641.9,296.3 L640.4,296.3 L638.5,296.2 L636.9,296.2 L635.2,296.1 L635.0,296.1 L635.0,296.1 L635.4,296.1 L636.8,296.1 L637.4,296.1 L637.7,296.1 L638.8,296.0 L640.4,296.0 L642.5,295.9 L643.7,295.9 L644.1,295.9 L644.6,295.9 L647.0,295.8 L648.9,295.8 L650.7,295.7 L652.0,295.7 L653.1,295.7 L653.8,295.7 L656.6,295.7 L657.7,295.7 L659.1,295.7 L662.3,295.7 L664.0,295.7 L668.5,295.7 L671.9,295.7 L673.4,295.7 L674.7,295.7 L677.5,295.7 L680.0,295.7 L681.1,295.6 L682.2,295.6 L683.9,295.6 L685.2,295.6 L686.2,295.6 L686.6,295.6 L685.9,295.5 L684.7,295.5 L682.2,295.4 L681.6,295.4 L680.9,295.4 L680.3,295.4 L678.7,295.4 L676.9,295.3 L675.9,295.3 L673.9,295.3 L673.4,295.3 L673.1,295.3 L672.9,295.3 L673.0,295.3 L673.6,295.2 L674.1,295.2 L674.6,295.2 L677.2,295.1 L677.9,295.1 L678.6,295.1 L679.2,295.1 L679.4,295.1 L679.6,295.0 L679.4,295.0 L679.2,295.0 L678.1,294.9 L677.5,294.9 L676.2,294.9 L674.8,294.9 L673.1,294.8 L672.7,294.8 L672.6,294.8 L672.8,294.8 L672.9,294.8 L673.3,294.8 L673.9,294.8 L674.8,294.8 L675.8,294.8 L678.0,294.7 L678.6,294.7 L679.2,294.7 L679.7,294.7 L679.8,294.7 L680.4,294.7 L680.9,294.7 L681.0,294.7 L681.0,294.6 L680.5,294.6 L679.5,294.6 L679.0,294.6 L678.8,294.6 L678.8,294.6 L678.9,294.5 L678.9,294.5 L678.7,294.5 L678.1,294.5 L677.6,294.5 L676.5,294.5 L675.1,294.5 L674.2,294.4 L674.0,294.4 L674.0,294.4 L674.5,294.4 L674.4,294.4 L674.5,294.4 L674.8,294.4 L675.5,294.4 L677.8,294.4 L678.2,294.4 L678.3,294.4 L678.4,294.3 L678.8,294.3 L679.3,294.3 L679.7,294.3 L679.8,294.3 L679.6,294.3 L679.4,294.3 L679.5,294.3 L679.7,294.3 L680.8,294.3 L681.2,294.3 L681.4,294.3 L681.4,294.3 L681.6,294.3 L682.0,294.3 L681.8,294.2 L681.7,294.2 L681.8,294.2 L682.9,294.2 L684.0,294.2 L684.6,294.2 L685.2,294.2 L685.7,294.2 L686.5,294.2 L687.2,294.2 L687.7,294.2 L687.7,294.2 L687.6,294.2 L685.7,294.2 L685.9,294.2 L686.4,294.2 L686.6,294.1 L686.4,294.1 L686.2,294.1 L684.9,294.1 L684.5,294.1 L683.8,294.1 L683.4,294.1 L682.9,294.1 L681.5,294.1 L679.9,294.1 L679.4,294.1 L678.8,294.1 L678.3,294.0 L677.3,294.0 L675.8,294.0 L674.0,294.0 L672.1,294.0 L671.2,294.0 L670.6,294.0 L670.4,294.1 L670.7,294.1 L670.5,294.1 L669.9,294.1 L668.9,294.1 L667.5,294.1 L666.8,294.1 L665.8,294.2 L665.4,294.2 L664.9,294.2 L664.2,294.1 L663.8,294.1 L663.6,294.2 L663.6,294.2 L663.7,294.2 L663.5,294.2 L663.0,294.2 L662.7,294.2 L662.4,294.2 L662.1,294.2 L661.9,294.2 L661.6,294.2 L661.2,294.2 L660.7,294.2 L660.1,294.2 L659.6,294.2 L659.0,294.2 L658.4,294.2 L658.0,294.2 L657.9,294.2 L657.9,294.2 L657.5,294.2 L657.1,294.2 L656.6,294.2 L656.1,294.2 L655.1,294.2 L654.7,294.2 L654.5,294.2 L654.7,294.2 L655.6,294.2 L655.7,294.2 L655.2,294.1 L655.2,294.1 L655.5,294.1 L655.9,294.1 L657.3,294.1 L657.7,294.1 L658.0,294.1 L658.0,294.1 L658.0,294.1 L657.6,294.1 L656.8,294.1 L656.4,294.1 L656.3,294.1 L656.8,294.1 L657.5,294.0 L657.6,294.0 L657.1,294.0 L657.1,294.0 L657.6,294.0 L657.5,294.0 L657.1,294.0 L656.3,294.0 L655.8,294.0 L655.0,294.0 L654.3,294.0 L653.1,293.9 L652.7,293.9 L652.5,293.9 L651.9,293.9 L651.7,293.9 L651.3,293.9 L651.0,293.9 L650.6,293.9 L650.2,293.9 L650.2,293.9 L650.9,293.9 L650.8,293.9 L650.4,293.9 L649.4,293.9 L648.7,293.9 L648.2,293.9 L648.1,293.9 L648.1,293.9 L647.9,293.9 L647.4,293.9 L647.3,293.9 L647.5,293.9 L647.3,293.8 L647.3,293.8 L647.6,293.8 L647.6,293.8 L647.2,293.8 L647.3,293.8 L647.2,293.7 L647.1,293.7 L646.7,293.7 L646.8,293.7 L647.2,293.6 L647.4,293.6 L647.0,293.6 L647.4,293.6 L648.2,293.6 L648.6,293.6 L648.7,293.6 L648.9,293.6 L648.9,293.5 L649.1,293.5 L649.1,293.5 L649.2,293.5 L649.3,293.5 L649.6,293.5 L650.0,293.5 L650.2,293.5 L650.3,293.5 L650.5,293.5 L651.0,293.5 L651.3,293.5 L651.6,293.5 L652.7,293.5 L653.0,293.5 L653.2,293.5 L653.6,293.5 L654.3,293.5 L654.4,293.5 L655.0,293.5 L655.1,293.5 L655.3,293.5 L655.7,293.5 L655.8,293.5 L655.9,293.5 L656.0,293.5 L657.1,293.6 L658.2,293.6 L658.7,293.6 L659.8,293.6 L660.5,293.6 L661.9,293.6 L662.3,293.6 L662.7,293.6 L663.6,293.6 L663.8,293.6 L664.0,293.6 L664.0,293.6 L664.9,293.6 L666.1,293.6 L666.7,293.6 L667.8,293.6 L668.2,293.6 L668.6,293.6 L669.4,293.6 L670.1,293.6 L670.4,293.6 L670.4,293.6 L670.6,293.6 L670.7,293.6 L671.9,293.6 L672.0,293.6 L672.9,293.6 L673.3,293.6 L673.8,293.6 L673.8,293.6 L674.4,293.6 L674.7,293.6 L674.8,293.6 L675.2,293.6 L675.2,293.6 L675.4,293.6 L675.8,293.6 L676.0,293.6 L676.0,293.6 L676.0,293.6 L676.5,293.6 L677.1,293.5 L677.7,293.5 L678.4,293.5 L678.4,293.5 L678.8,293.5 L678.8,293.5 L679.3,293.5 L679.4,293.5 L679.8,293.5 L679.9,293.5 L680.7,293.5 L681.0,293.5 L681.2,293.5 L681.2,293.5 L681.6,293.5 L681.7,293.5 L682.0,293.5 L682.1,293.5 L682.3,293.5 L682.3,293.5 L682.5,293.5 L682.8,293.5 L682.8,293.5 L683.6,293.4 L683.7,293.4 L683.8,293.4 L683.8,293.4 L683.8,293.4 L684.1,293.4 L684.2,293.4 L684.3,293.4 L684.4,293.4 L684.5,293.4 L684.5,293.4 L684.7,293.4 L684.7,293.4 L684.7,293.4 L684.8,293.4 L684.6,293.4 L684.6,293.4 L684.9,293.4 L684.9,293.4 L685.0,293.4 L684.9,293.4 L684.7,293.4 L684.7,293.4 L684.9,293.4 L684.8,293.4 L684.9,293.4 L685.0,293.4 L685.2,293.4 L685.3,293.4 L685.3,293.4 L685.3,293.4 L685.3,293.4 L685.4,293.3 L685.9,293.4 L686.1,293.3 L686.3,293.3 L686.2,293.3 L686.4,293.3 L686.5,293.3 L686.5,293.3 L686.8,293.3 L686.9,293.3 L687.1,293.3 L687.2,293.3 L687.5,293.4 L687.5,293.4 L687.3,293.4 L687.3,293.4 L687.0,293.4 L687.0,293.4 L687.0,293.4 L686.8,293.4 L686.8,293.4 L687.0,293.4 L687.0,293.4 L687.3,293.4 L686.9,293.4 L686.9,293.4 L687.1,293.4 L686.8,293.4 L686.8,293.4 L686.5,293.4 L686.6,293.4 L686.9,293.4 L687.0,293.4 L687.2,293.4 L687.1,293.4 L687.0,293.5 L687.3,293.5 L687.0,293.5 L686.9,293.5 L686.9,293.5 L687.1,293.5 L687.0,293.5 L687.4,293.5 L688.1,293.5 L688.3,293.5 L688.6,293.5 L688.5,293.5 L688.6,293.5 L688.7,293.5 L688.8,293.5 L689.0,293.5 L688.8,293.5 L689.1,293.5 L688.9,293.5 L689.2,293.5 L689.1,293.5 L689.1,293.5 L689.2,293.5 L689.2,293.5 L688.8,293.5 L689.0,293.5 L690.7,293.6 L692.5,293.6 L692.3,293.6 L692.2,293.6 L692.0,293.6 L692.0,293.6 L692.2,293.6 L692.1,293.6 L691.9,293.6 L691.8,293.6 L691.5,293.6 L691.1,293.6 L691.1,293.6 L691.0,293.6 L691.0,293.6 L690.9,293.6 L690.2,293.6 L689.9,293.6 L689.8,293.6 L689.9,293.6 L689.9,293.6 L689.7,293.6 L689.7,293.5 L689.2,293.5 L689.2,293.5 L689.0,293.5 L688.8,293.5 L688.5,293.5 L688.5,293.5 L688.4,293.5 L688.4,293.5 L688.7,293.6 L688.7,293.6 L689.1,293.6 L689.3,293.6 L689.3,293.6 L689.6,293.6 L689.9,293.6 L689.9,293.6 L689.9,293.6 L689.8,293.6 L689.8,293.6 L689.4,293.6 L689.4,293.6 L689.0,293.6 L688.9,293.6 L688.7,293.6 L688.6,293.6 L688.7,293.6 L688.7,293.6 L689.0,293.6 L689.2,293.6 L689.3,293.6 L689.5,293.6 L689.6,293.6 L689.7,293.6 L689.6,293.6 L689.7,293.6 L689.7,293.6 L689.9,293.6 L690.9,293.7 L691.5,293.7 L691.8,293.7 L692.0,293.7 L692.3,293.7 L693.2,293.7 L693.8,293.7 L694.1,293.7 L694.8,293.7 L694.9,293.7 L695.3,293.7 L695.4,293.7 L695.4,293.7 L696.3,293.7 L696.8,293.7 L697.0,293.7 L697.2,293.7 L696.9,293.7 L696.7,293.7 L696.4,293.7 L696.5,293.7 L696.5,293.7 L696.1,293.7 L695.9,293.7 L695.6,293.7 L695.4,293.6 L695.1,293.6 L694.6,293.6 L694.5,293.6 L694.3,293.6 L694.0,293.6 L693.8,293.6 L693.1,293.6 L693.0,293.6 L692.4,293.6 L692.5,293.6 L692.6,293.6 L695.1,293.6 L695.4,293.6 L696.1,293.7 L697.1,293.7 L697.5,293.7 L697.7,293.7 L698.0,293.7 L698.3,293.7 L698.3,293.7 L698.5,293.7 L698.6,293.7 L699.2,293.7 L699.4,293.7 L699.7,293.7 L700.2,293.7 L700.6,293.7 L701.0,293.7 L701.9,293.7 L702.2,293.7 L702.4,293.7 L702.9,293.7 L703.8,293.7 L704.2,293.7 L704.4,293.7 L705.0,293.7 L705.6,293.7 L707.2,293.7 L707.4,293.7 L707.4,293.7 L707.4,293.7 L707.8,293.7 L708.1,293.7 L708.5,293.7 L708.8,293.7 L709.0,293.7 L709.1,293.7 L709.3,293.7 L709.5,293.7 L709.7,293.7 L710.3,293.7 L711.1,293.7 L712.0,293.6 L712.3,293.6 L712.5,293.6 L712.7,293.6 L712.6,293.6 L712.6,293.6 L713.3,293.7 L715.1,293.7 L716.4,293.7 L716.7,293.7 L718.0,293.7 L720.2,293.7 L721.8,293.7 L722.4,293.7 L722.5,293.7 L722.5,293.7 L722.3,293.7 L723.7,293.8 L723.9,293.8 L724.5,293.8 L725.0,293.8 L725.0,293.8 L725.8,293.8 L726.1,293.8 L726.2,293.8 L726.5,293.8 L726.8,293.8 L726.7,293.8 L726.8,293.8 L728.1,293.8 L728.8,293.8 L730.5,293.9 L730.9,293.9 L731.8,293.9 L732.4,293.9 L732.7,293.9 L733.8,293.9 L733.9,293.9 L733.8,293.9 L733.9,293.9 L733.9,293.9 L734.9,293.9 L735.5,293.9 L736.3,293.9 L737.5,293.9 L737.7,294.0 L737.8,294.0 L737.9,294.0 L738.1,294.0 L739.3,294.0 L740.3,294.0 L740.9,294.0 L741.4,294.0 L741.7,294.0 L741.5,294.0 L741.8,294.0 L744.2,294.0 L744.8,294.0 L743.4,294.1 L743.3,294.1 L743.3,294.1 L743.1,294.1 L742.4,294.1 L741.9,294.1 L741.0,294.1 L740.4,294.2 L740.0,294.2 L739.7,294.2 L740.3,294.2 L740.5,294.2 L741.3,294.2 L741.5,294.2 L741.8,294.2 L742.1,294.2 L742.2,294.2 L742.5,294.2 L742.6,294.2 L743.1,294.2 L743.6,294.2 L743.8,294.3 L744.2,294.3 L744.3,294.3 L744.6,294.3 L745.2,294.3 L745.7,294.3 L746.3,294.3 L747.3,294.3 L742.9,294.4 L743.3,294.4 L745.2,294.4 L746.5,294.5 L746.4,294.5 L746.2,294.5 L746.4,294.5 L746.1,294.5 L746.2,294.6 L749.2,294.7 L749.2,294.7 L749.0,294.7 L748.1,294.8 L746.7,294.9 L748.1,295.0 L745.3,295.1 L744.9,295.1 L746.2,295.1 L746.4,295.1 L747.3,295.1 L748.3,295.1 L748.9,295.1 L749.1,295.1 L749.3,295.1 L749.4,295.1 L750.0,295.2 L750.3,295.2 L751.5,295.2 L751.7,295.2 L751.5,295.2 L751.5,295.2 L751.6,295.2 L751.3,295.2 L751.7,295.2 L751.7,295.2 L751.5,295.2 L751.3,295.2 L751.4,295.2 L751.5,295.2 L752.0,295.3 L751.6,295.3 L751.4,295.3 L751.2,295.3 L750.4,295.3 L750.3,295.3 L750.4,295.3 L750.3,295.3 L750.3,295.3 L750.2,295.3 L750.1,295.3 L749.9,295.4 L749.3,295.4 L749.1,295.4 L748.4,295.4 L748.4,295.4 L748.6,295.5 L748.5,295.5 L748.4,295.5 L748.5,295.5 L748.5,295.5 L748.1,295.5 L748.1,295.5 L748.7,295.5 L749.2,295.5 L749.9,295.6 L750.2,295.6 L750.7,295.6 L751.0,295.6 L751.3,295.6 L751.5,295.6 L751.9,295.6 L752.4,295.6 L752.6,295.6 L752.6,295.6 L754.4,295.7 L754.6,295.7 L755.1,295.7 L755.4,295.7 L755.6,295.7 L756.3,295.7 L756.6,295.7 L756.8,295.7 L756.9,295.7 L757.2,295.7 L757.4,295.7 L757.6,295.7 L758.0,295.7 L757.9,295.7 L757.7,295.8 L757.3,295.8 L757.3,295.8 L757.5,295.8 L756.9,295.8 L756.4,295.8 L756.1,295.8 L755.7,295.8 L754.2,295.8 L761.8,296.0 L767.0,296.1 L779.2,296.2 L779.9,296.3 L780.0,296.3 L779.9,296.3 L779.8,296.3 L778.9,296.3 L778.1,296.3 L777.6,296.3 L777.5,296.3 L777.1,296.3 L776.6,296.3 L776.1,296.3 L775.7,296.3 L775.0,296.3 L774.6,296.4 L774.3,296.4 L774.2,296.4 L774.1,296.4 L772.6,296.4 L771.6,296.4 L770.5,296.4 L770.3,296.4 L770.0,296.4 L770.0,296.4 L769.9,296.4 L769.3,296.4 L769.0,296.4 L768.8,296.4 L768.1,296.4 L768.0,296.4 L768.1,296.5 L768.6,296.5 L768.7,296.5 L768.4,296.5 L768.3,296.5 L768.2,296.5 L768.1,296.5 L768.3,296.5 L768.3,296.6 L767.4,296.6 L766.8,296.6 L766.6,296.6 L765.8,296.6 L765.6,296.6 L765.7,296.6 L766.1,296.6 L766.8,296.6 L767.4,296.6 L767.7,296.6 L768.0,296.6 L768.6,296.6 L768.8,296.6 L769.5,296.6 L770.8,296.6 L771.2,296.6 L771.7,296.6 L771.9,296.6 L772.4,296.6 L772.4,296.6 L772.5,296.7 L772.4,296.7 L771.9,296.7 L771.6,296.7 L770.9,296.7 L770.5,296.7 L770.3,296.7 L770.1,296.7 L768.9,296.7 L768.4,296.7 L767.9,296.7 L767.6,296.7 L767.0,296.7 L766.8,296.7 L764.4,296.7 L763.9,296.7 L763.2,296.7 L762.7,296.7 L761.7,296.7 L759.8,296.7 L758.5,296.7 L756.9,296.7 L756.3,296.7 L756.0,296.7 L752.5,296.7 L748.8,296.7 L748.0,296.7 L747.3,296.7 L746.0,296.7 L745.4,296.6 L744.1,296.6 L743.0,296.6 L742.5,296.6 L741.8,296.6 L741.0,296.6 L740.4,296.6 L738.5,296.6 L737.9,296.6 L737.4,296.6 L736.9,296.6 L736.4,296.6 L736.1,296.6 L736.0,296.6 L735.2,296.6 L734.0,296.6 L733.6,296.6 L733.5,296.6 L733.1,296.6 L731.8,296.6 L728.4,296.6 L727.7,296.6 L726.3,296.6 L724.4,296.6 L723.5,296.6 L721.6,296.6 L720.9,296.6 L720.3,296.6 L719.5,296.6 L719.2,296.6 L718.8,296.6 L718.5,296.6 L717.6,296.6 L715.4,296.6 L714.3,296.6 L710.6,296.6 Z" data-name="Oriental" fill="#DDD0BB" stroke="#B8A898" stroke-width="1.2" stroke-linejoin="round" stroke-linecap="round"/>
  <path d="M347.4,299.6 L346.8,299.6 L346.2,299.6 L345.9,299.6 L345.1,299.6 L343.9,299.6 L342.8,299.6 L341.9,299.6 L340.9,299.6 L339.8,299.6 L337.6,299.6 L336.1,299.6 L335.2,299.6 L333.0,299.6 L332.9,299.5 L333.0,299.5 L333.1,299.5 L333.3,299.5 L333.4,299.5 L333.5,299.5 L333.6,299.5 L333.6,299.5 L333.7,299.5 L333.7,299.5 L333.8,299.5 L333.9,299.5 L334.2,299.5 L334.5,299.5 L334.5,299.5 L334.7,299.5 L334.7,299.5 L334.9,299.5 L335.0,299.5 L335.3,299.5 L336.3,299.5 L336.6,299.5 L336.9,299.4 L337.1,299.4 L337.3,299.4 L337.5,299.4 L337.6,299.4 L337.6,299.4 L337.7,299.4 L338.0,299.4 L338.1,299.4 L338.2,299.4 L338.1,299.4 L338.1,299.4 L338.3,299.4 L338.8,299.4 L339.1,299.4 L339.3,299.4 L339.3,299.4 L339.7,299.4 L339.8,299.4 L339.9,299.4 L340.1,299.4 L340.3,299.4 L341.3,299.4 L341.6,299.4 L341.8,299.4 L342.2,299.4 L342.5,299.4 L342.7,299.4 L343.1,299.4 L343.6,299.3 L343.6,299.3 L344.0,299.3 L344.4,299.3 L344.6,299.3 L344.7,299.3 L344.8,299.3 L344.9,299.3 L344.9,299.3 L345.1,299.3 L345.5,299.3 L345.7,299.3 L345.6,299.3 L345.6,299.3 L346.3,299.3 L346.4,299.3 L346.7,299.2 L347.2,299.2 L347.2,299.2 L348.0,299.2 L348.3,299.2 L348.3,299.2 L348.4,299.2 L348.5,299.2 L349.0,299.2 L349.2,299.2 L350.1,299.2 L350.1,299.2 L350.4,299.2 L350.3,299.1 L350.4,299.1 L350.3,299.1 L350.3,299.1 L350.5,299.1 L350.7,299.1 L350.6,299.1 L350.6,299.1 L350.7,299.1 L351.1,299.1 L351.1,299.1 L351.1,299.1 L350.9,299.1 L350.9,299.1 L351.1,299.1 L351.3,299.1 L351.3,299.1 L351.3,299.1 L351.1,299.1 L351.4,299.1 L351.5,299.1 L351.3,299.1 L351.5,299.1 L351.6,299.1 L351.9,299.1 L352.0,299.1 L352.3,299.1 L352.2,299.1 L352.3,299.1 L352.3,299.1 L352.6,299.1 L352.5,299.1 L352.8,299.1 L353.0,299.0 L353.1,299.0 L353.2,299.0 L353.3,299.0 L353.4,299.0 L353.3,299.0 L353.3,299.0 L353.4,299.0 L353.6,299.0 L353.7,299.0 L353.7,299.0 L354.1,299.0 L354.2,299.0 L354.3,299.0 L354.3,299.0 L354.4,299.0 L354.5,299.0 L354.5,299.0 L354.6,299.0 L354.6,299.0 L355.2,299.0 L355.4,299.0 L355.6,299.0 L355.9,299.0 L356.5,299.0 L356.8,299.0 L357.6,298.9 L358.8,298.9 L361.3,298.9 L361.4,298.9 L361.7,298.9 L362.0,298.9 L362.5,298.8 L363.4,298.8 L363.7,298.8 L363.8,298.8 L363.6,298.8 L363.6,298.8 L363.8,298.8 L363.8,298.8 L364.1,298.8 L364.1,298.8 L364.4,298.8 L364.4,298.8 L364.8,298.8 L364.8,298.8 L365.0,298.8 L365.0,298.8 L365.0,298.8 L365.0,298.8 L365.2,298.8 L365.2,298.8 L365.4,298.8 L365.8,298.7 L365.9,298.7 L366.1,298.7 L366.3,298.7 L366.3,298.7 L366.4,298.7 L366.5,298.7 L366.4,298.7 L366.7,298.7 L366.7,298.7 L366.9,298.7 L366.9,298.7 L367.1,298.7 L367.2,298.7 L367.2,298.7 L367.3,298.7 L367.4,298.7 L367.4,298.7 L367.5,298.7 L367.6,298.7 L367.6,298.7 L367.8,298.7 L368.2,298.6 L368.5,298.6 L368.8,298.6 L369.2,298.6 L369.5,298.6 L369.6,298.6 L369.7,298.6 L369.9,298.6 L370.0,298.6 L370.0,298.6 L370.1,298.6 L369.7,298.6 L369.7,298.6 L369.4,298.6 L369.4,298.6 L369.5,298.6 L369.5,298.6 L369.7,298.6 L370.1,298.6 L370.1,298.6 L370.2,298.6 L370.4,298.5 L370.4,298.5 L370.5,298.5 L370.5,298.5 L370.6,298.5 L370.7,298.5 L370.7,298.5 L370.9,298.5 L370.8,298.5 L370.9,298.5 L370.9,298.5 L370.7,298.5 L370.7,298.5 L371.0,298.5 L371.1,298.5 L371.2,298.5 L371.4,298.4 L371.6,298.4 L371.7,298.4 L371.8,298.4 L371.9,298.4 L372.2,298.4 L372.2,298.4 L372.3,298.4 L372.4,298.3 L372.5,298.3 L372.5,298.3 L373.2,298.3 L373.1,298.3 L372.7,298.3 L372.4,298.3 L372.5,298.3 L372.3,298.3 L372.4,298.3 L372.5,298.3 L372.5,298.3 L372.3,298.3 L372.5,298.3 L372.6,298.3 L372.7,298.3 L372.8,298.3 L372.7,298.3 L372.8,298.3 L372.7,298.3 L372.6,298.3 L372.4,298.3 L371.9,298.3 L371.9,298.3 L371.9,298.3 L371.8,298.3 L371.9,298.3 L371.7,298.3 L371.4,298.3 L371.6,298.3 L371.6,298.3 L371.4,298.3 L371.3,298.3 L371.3,298.3 L371.2,298.3 L371.1,298.3 L370.9,298.3 L371.1,298.3 L371.1,298.3 L370.8,298.3 L370.9,298.3 L370.9,298.3 L370.7,298.3 L370.5,298.3 L370.4,298.3 L370.4,298.3 L370.8,298.3 L370.8,298.3 L370.3,298.3 L370.3,298.3 L370.4,298.3 L370.5,298.3 L370.3,298.3 L370.0,298.3 L370.0,298.3 L369.8,298.3 L369.8,298.3 L369.7,298.3 L369.4,298.2 L369.3,298.2 L369.1,298.2 L369.2,298.2 L369.1,298.2 L369.1,298.2 L369.0,298.2 L368.9,298.2 L368.7,298.2 L368.5,298.2 L368.6,298.2 L368.4,298.2 L368.2,298.2 L367.9,298.2 L367.9,298.2 L367.2,298.2 L366.7,298.2 L366.4,298.2 L366.1,298.2 L365.8,298.1 L365.5,298.1 L365.0,298.1 L365.0,298.1 L364.5,298.1 L364.0,298.1 L363.0,298.1 L362.4,298.1 L362.0,298.1 L361.3,298.1 L360.9,298.1 L360.5,298.1 L360.4,298.1 L360.0,298.1 L359.7,298.1 L359.4,298.1 L359.1,298.1 L359.0,298.1 L359.0,298.1 L358.9,298.1 L359.0,298.1 L359.0,298.1 L359.1,298.1 L359.1,298.1 L359.3,298.0 L359.4,298.0 L359.5,298.0 L359.7,298.0 L359.8,298.0 L360.0,298.0 L360.0,298.0 L360.4,298.0 L360.9,298.0 L360.9,298.0 L360.8,298.0 L360.8,298.0 L361.1,298.0 L361.2,298.0 L361.4,298.0 L361.7,298.0 L361.8,298.0 L361.9,298.0 L361.8,297.9 L362.1,297.9 L362.1,297.9 L362.4,297.9 L362.5,297.9 L362.8,297.9 L362.8,297.9 L363.0,297.9 L363.0,297.9 L362.9,297.9 L362.7,297.9 L362.6,297.9 L362.4,297.9 L362.1,297.9 L362.2,297.9 L362.0,297.9 L361.9,297.9 L362.4,297.9 L362.5,297.9 L362.6,297.9 L362.7,297.8 L362.8,297.8 L362.6,297.8 L362.4,297.8 L362.4,297.8 L362.3,297.8 L362.4,297.8 L362.3,297.8 L362.3,297.8 L364.4,297.8 L365.8,297.8 L366.3,297.9 L366.6,297.9 L366.9,297.9 L366.7,297.9 L368.3,297.9 L369.3,297.9 L370.4,297.9 L372.8,297.9 L373.4,297.9 L374.1,297.9 L375.1,297.9 L375.9,297.9 L376.2,297.9 L376.4,297.9 L376.0,297.9 L376.2,297.9 L376.7,297.9 L377.8,297.9 L378.6,297.9 L379.4,297.9 L380.1,297.9 L380.7,297.9 L381.6,297.9 L382.6,297.9 L384.7,297.9 L385.8,297.9 L387.5,297.9 L388.4,297.9 L389.1,297.9 L389.3,297.9 L389.9,297.9 L391.4,297.9 L392.2,297.9 L393.1,297.9 L394.1,297.9 L394.7,297.9 L397.1,297.9 L399.0,297.9 L399.8,297.9 L400.2,297.9 L400.5,297.9 L400.9,297.9 L401.3,297.8 L403.3,297.8 L404.8,297.8 L406.5,297.8 L407.8,297.8 L408.9,297.8 L409.7,297.8 L410.7,297.8 L411.5,297.8 L411.8,297.8 L412.0,297.8 L413.9,297.8 L414.8,297.8 L415.3,297.8 L416.0,297.9 L416.6,297.9 L417.7,297.9 L418.3,297.9 L419.3,297.8 L420.7,297.8 L422.4,297.8 L425.5,297.8 L427.2,297.8 L428.4,297.8 L429.0,297.8 L430.0,297.8 L431.0,297.8 L433.2,297.8 L435.7,297.8 L438.2,297.8 L439.8,297.8 L442.5,297.8 L443.8,297.8 L444.5,297.8 L444.7,297.8 L445.3,297.8 L445.3,297.8 L445.0,297.8 L445.1,297.8 L445.8,297.8 L446.3,297.8 L449.0,297.8 L449.8,297.8 L451.4,297.7 L452.9,297.7 L453.2,297.7 L453.3,297.7 L452.8,297.7 L453.0,297.7 L455.3,297.7 L456.4,297.7 L459.0,297.6 L460.3,297.6 L461.2,297.6 L463.0,297.6 L464.2,297.6 L465.8,297.6 L466.6,297.6 L467.6,297.6 L468.8,297.5 L471.3,297.5 L472.7,297.5 L475.0,297.5 L479.4,297.4 L481.1,297.4 L482.5,297.4 L483.1,297.4 L485.0,297.4 L486.2,297.4 L487.8,297.4 L489.0,297.3 L490.7,297.3 L492.3,297.3 L493.9,297.4 L495.6,297.4 L498.9,297.4 L500.0,297.4 L500.6,297.4 L501.4,297.4 L503.7,297.4 L504.3,297.4 L504.6,297.4 L504.9,297.4 L505.4,297.4 L506.3,297.4 L506.7,297.4 L507.3,297.3 L508.0,297.3 L507.9,297.3 L507.4,297.3 L507.3,297.3 L507.4,297.3 L507.9,297.3 L508.8,297.2 L509.8,297.2 L511.1,297.2 L512.5,297.2 L513.1,297.2 L514.2,297.2 L514.9,297.2 L517.8,297.2 L519.4,297.2 L521.9,297.2 L523.5,297.2 L525.0,297.1 L527.8,297.1 L530.6,297.1 L532.6,297.1 L533.6,297.1 L533.7,297.1 L535.0,297.0 L535.5,297.0 L536.2,297.0 L537.5,297.0 L538.4,297.0 L539.6,297.0 L540.2,297.0 L540.5,297.0 L540.7,297.0 L540.6,297.0 L540.8,297.0 L541.8,297.0 L542.7,297.0 L543.8,296.9 L544.7,296.9 L545.3,296.9 L547.1,296.9 L547.6,296.9 L548.2,296.9 L548.9,296.9 L549.4,296.9 L549.6,296.9 L551.1,296.9 L551.9,296.9 L552.4,296.8 L552.4,296.8 L552.3,296.8 L552.0,296.8 L552.0,296.8 L552.1,296.8 L553.0,296.8 L554.0,296.8 L556.5,296.7 L557.1,296.7 L557.7,296.7 L558.3,296.7 L559.3,296.7 L560.3,296.8 L562.5,296.8 L563.6,296.8 L564.8,296.8 L565.3,296.8 L565.3,296.8 L564.8,296.8 L564.1,296.9 L563.3,296.9 L559.5,297.0 L558.2,297.0 L553.3,297.1 L552.7,297.1 L552.7,297.1 L553.3,297.1 L556.7,297.1 L557.7,297.1 L560.1,297.1 L563.1,297.1 L565.3,297.1 L566.7,297.1 L567.5,297.1 L568.0,297.2 L568.7,297.2 L570.0,297.2 L571.1,297.2 L572.1,297.2 L575.8,297.2 L577.0,297.3 L577.8,297.3 L578.4,297.3 L579.0,297.3 L579.3,297.3 L579.1,297.4 L578.8,297.4 L578.3,297.4 L577.9,297.5 L577.3,297.5 L576.5,297.5 L576.0,297.5 L575.8,297.6 L575.4,297.6 L574.9,297.7 L574.9,297.7 L574.3,297.7 L573.9,297.8 L573.5,297.8 L573.6,297.8 L573.7,297.9 L573.9,297.9 L574.3,297.9 L574.4,297.9 L577.0,298.0 L578.4,298.0 L578.6,298.0 L579.4,298.1 L581.0,298.1 L581.1,298.1 L581.1,298.1 L580.9,298.2 L581.0,298.2 L581.0,298.3 L580.7,298.3 L580.5,298.3 L580.5,298.3 L580.4,298.4 L580.6,298.4 L580.6,298.4 L580.4,298.5 L580.4,298.5 L580.3,298.5 L580.5,298.5 L580.9,298.5 L581.1,298.5 L581.4,298.6 L581.9,298.6 L582.6,298.6 L583.3,298.6 L584.9,298.7 L584.6,298.7 L583.9,298.7 L583.6,298.7 L581.7,298.7 L579.1,298.8 L578.5,298.8 L577.6,298.8 L577.0,298.8 L575.2,298.8 L575.0,298.8 L574.9,298.9 L575.3,298.9 L575.1,298.9 L574.7,298.9 L569.5,299.0 L565.1,299.2 L564.9,299.2 L564.5,299.2 L564.3,299.2 L564.6,299.2 L564.3,299.2 L564.3,299.2 L564.1,299.2 L563.7,299.2 L563.5,299.2 L563.4,299.2 L563.1,299.2 L562.8,299.2 L562.2,299.2 L561.8,299.2 L561.2,299.2 L560.7,299.2 L559.7,299.2 L559.2,299.2 L558.9,299.1 L558.6,299.1 L558.4,299.1 L557.9,299.1 L557.6,299.1 L557.5,299.1 L557.0,299.1 L556.6,299.1 L555.3,299.2 L555.0,299.2 L554.9,299.1 L555.0,299.1 L555.3,299.1 L555.4,299.1 L556.2,299.1 L556.3,299.1 L556.3,299.1 L555.8,299.1 L555.2,299.1 L553.9,299.1 L553.3,299.1 L552.6,299.1 L551.7,299.1 L549.6,299.1 L549.3,299.1 L548.9,299.1 L546.9,299.1 L545.2,299.1 L543.3,299.1 L542.6,299.1 L542.4,299.1 L542.0,299.1 L541.7,299.1 L541.4,299.1 L540.9,299.1 L540.2,299.1 L539.9,299.1 L538.9,299.1 L538.3,299.1 L537.6,299.1 L536.6,299.1 L535.3,299.1 L534.4,299.1 L533.7,299.1 L533.1,299.1 L532.7,299.1 L532.7,299.1 L532.1,299.1 L531.5,299.1 L530.8,299.1 L530.1,299.1 L529.5,299.1 L528.8,299.1 L528.2,299.1 L526.8,299.1 L526.2,299.1 L525.5,299.1 L524.9,299.1 L524.7,299.1 L524.5,299.1 L524.3,299.1 L524.5,299.1 L524.0,299.0 L524.0,299.0 L524.5,299.0 L524.6,298.9 L524.6,298.9 L524.4,298.9 L524.8,298.8 L525.4,298.8 L525.4,298.7 L525.3,298.7 L525.3,298.7 L525.1,298.6 L524.1,298.6 L523.2,298.6 L520.3,298.5 L519.1,298.4 L517.9,298.4 L517.4,298.4 L516.7,298.4 L516.0,298.4 L513.9,298.3 L512.7,298.3 L511.6,298.3 L510.4,298.3 L509.3,298.3 L507.9,298.3 L506.8,298.4 L505.6,298.4 L504.3,298.4 L502.6,298.4 L501.8,298.4 L500.6,298.4 L499.5,298.4 L498.4,298.4 L497.5,298.4 L496.6,298.4 L495.0,298.4 L494.0,298.4 L493.0,298.4 L492.3,298.4 L490.2,298.4 L489.7,298.4 L488.8,298.5 L488.0,298.5 L487.2,298.6 L486.8,298.6 L486.1,298.6 L482.9,298.6 L481.9,298.6 L480.6,298.6 L478.9,298.6 L477.5,298.6 L476.5,298.6 L475.7,298.6 L475.1,298.6 L474.7,298.5 L474.7,298.5 L474.2,298.5 L473.5,298.5 L472.6,298.5 L471.7,298.4 L469.8,298.4 L468.7,298.4 L467.7,298.4 L465.9,298.5 L464.5,298.5 L464.3,298.5 L465.7,298.7 L465.6,298.7 L464.8,298.7 L464.0,298.7 L462.5,298.7 L461.3,298.7 L460.7,298.7 L460.3,298.7 L458.8,298.7 L457.9,298.7 L456.9,298.7 L456.1,298.7 L455.1,298.7 L454.0,298.7 L453.1,298.7 L452.3,298.7 L451.5,298.8 L450.9,298.8 L449.7,298.8 L448.6,298.8 L447.9,298.8 L447.2,298.8 L446.0,298.8 L445.1,298.8 L444.0,298.8 L442.8,298.8 L441.9,298.7 L440.8,298.7 L439.4,298.7 L438.5,298.7 L437.4,298.7 L436.1,298.7 L435.1,298.7 L434.1,298.7 L433.6,298.7 L433.1,298.7 L432.1,298.8 L431.1,298.8 L430.1,298.8 L429.2,298.8 L428.6,298.8 L427.7,298.8 L426.8,298.8 L424.5,298.8 L421.8,298.8 L420.9,298.7 L419.6,298.7 L417.5,298.7 L416.7,298.7 L415.9,298.7 L415.0,298.8 L414.2,298.8 L414.1,298.8 L414.3,298.8 L414.2,298.8 L414.3,298.8 L414.7,298.8 L415.2,298.8 L415.6,298.8 L417.1,298.8 L418.4,298.8 L418.7,298.8 L418.7,298.8 L418.4,298.9 L416.7,298.9 L415.2,298.9 L414.9,298.9 L414.8,299.0 L414.7,299.0 L414.6,299.0 L414.6,299.0 L414.6,299.1 L414.7,299.1 L415.2,299.1 L415.6,299.1 L416.2,299.1 L417.1,299.1 L417.5,299.2 L416.9,299.2 L415.9,299.2 L415.1,299.2 L414.0,299.2 L412.5,299.2 L411.3,299.2 L409.2,299.2 L407.4,299.2 L406.5,299.2 L405.2,299.2 L403.9,299.2 L401.9,299.2 L400.4,299.2 L398.9,299.2 L398.3,299.2 L397.1,299.3 L396.3,299.3 L396.2,299.3 L395.5,299.3 L395.0,299.3 L394.1,299.4 L394.0,299.4 L393.7,299.4 L393.5,299.4 L392.0,299.4 L391.8,299.4 L391.3,299.4 L389.5,299.3 L387.5,299.3 L386.2,299.3 L385.2,299.3 L384.2,299.3 L383.8,299.4 L383.2,299.4 L381.5,299.4 L378.9,299.4 L377.8,299.4 L374.9,299.4 L373.8,299.4 L373.1,299.5 L371.9,299.5 L371.2,299.5 L370.0,299.5 L369.3,299.5 L368.9,299.5 L368.6,299.4 L367.7,299.4 L366.9,299.4 L366.2,299.4 L365.3,299.4 L364.4,299.4 L363.2,299.4 L362.4,299.4 L361.8,299.4 L361.4,299.4 L360.7,299.5 L359.8,299.5 L359.3,299.5 L358.3,299.5 L357.5,299.5 L356.7,299.5 L356.3,299.5 L355.6,299.5 L354.8,299.5 L353.8,299.5 L352.8,299.6 L351.9,299.6 L351.1,299.6 L350.3,299.6 L348.8,299.6 L347.4,299.6 Z M344.4,299.3 L344.3,299.3 L344.3,299.3 L344.5,299.3 L344.5,299.3 L344.4,299.3 Z M348.1,299.2 L348.2,299.2 L348.1,299.2 L348.0,299.2 L348.1,299.2 Z" data-name="Souss-Massa" fill="#DDD0BB" stroke="#B8A898" stroke-width="1.2" stroke-linejoin="round" stroke-linecap="round"/>
  <path d="M488.4,297.1 L487.9,297.1 L487.3,297.1 L486.6,297.1 L486.1,297.1 L485.3,297.1 L485.5,297.1 L485.6,297.1 L485.2,297.1 L483.6,297.1 L483.2,297.1 L483.2,297.0 L483.2,297.0 L484.0,297.0 L485.4,297.0 L486.5,297.0 L487.7,297.0 L489.1,297.0 L489.6,297.0 L490.6,297.0 L491.7,297.0 L492.7,297.0 L494.2,297.0 L494.9,297.0 L495.3,297.0 L495.7,297.0 L495.4,297.0 L495.3,296.9 L495.5,296.9 L495.9,296.9 L496.5,296.9 L496.9,296.9 L495.5,296.9 L494.8,296.9 L494.5,296.9 L494.7,296.8 L494.2,296.8 L494.3,296.8 L494.6,296.8 L495.4,296.8 L495.2,296.8 L494.8,296.8 L494.1,296.8 L493.2,296.7 L492.5,296.7 L491.8,296.7 L491.6,296.7 L491.3,296.6 L491.3,296.6 L491.8,296.6 L491.6,296.6 L491.3,296.5 L490.9,296.5 L490.8,296.5 L491.3,296.5 L491.4,296.4 L491.2,296.4 L492.0,296.4 L492.4,296.4 L493.5,296.4 L493.9,296.4 L494.2,296.4 L494.6,296.3 L496.1,296.3 L496.3,296.3 L496.3,296.2 L496.5,296.2 L496.4,296.2 L497.0,296.2 L496.8,296.1 L497.9,296.1 L498.9,296.2 L500.0,296.2 L500.8,296.2 L501.1,296.2 L502.2,296.2 L503.0,296.1 L503.8,296.1 L505.8,296.1 L506.1,296.1 L506.7,296.1 L507.1,296.1 L508.2,296.1 L510.5,296.1 L511.9,296.1 L513.2,296.1 L514.1,296.1 L514.2,296.1 L514.3,296.1 L513.7,296.1 L514.0,296.1 L514.6,296.1 L514.9,296.1 L515.3,296.1 L515.8,296.1 L517.7,296.1 L520.4,296.1 L521.0,296.1 L522.3,296.1 L524.9,296.1 L525.8,296.1 L528.3,296.1 L529.1,296.1 L530.9,296.1 L532.1,296.1 L532.4,296.1 L532.9,296.1 L533.4,296.1 L534.3,296.1 L535.5,296.1 L536.9,296.1 L538.2,296.1 L539.0,296.1 L540.1,296.1 L540.8,296.1 L541.4,296.0 L541.8,296.0 L542.6,296.0 L543.2,296.0 L545.3,296.0 L546.1,296.0 L548.2,296.0 L549.0,296.1 L549.8,296.1 L550.8,296.1 L551.8,296.1 L552.8,296.1 L553.3,296.1 L553.6,296.2 L553.9,296.2 L555.1,296.2 L556.1,296.2 L556.7,296.2 L558.1,296.2 L559.4,296.2 L560.1,296.2 L560.5,296.2 L561.5,296.2 L562.7,296.2 L563.3,296.2 L563.8,296.2 L564.4,296.3 L565.6,296.3 L566.5,296.3 L566.8,296.3 L566.5,296.3 L565.7,296.4 L565.7,296.4 L565.5,296.4 L564.7,296.4 L564.8,296.4 L565.3,296.4 L565.0,296.4 L564.3,296.4 L564.2,296.5 L565.4,296.5 L565.4,296.5 L565.2,296.5 L564.4,296.5 L563.3,296.5 L562.0,296.5 L559.1,296.5 L558.0,296.5 L557.6,296.5 L557.4,296.6 L556.7,296.6 L555.8,296.6 L554.7,296.6 L554.0,296.6 L553.3,296.6 L553.0,296.6 L552.9,296.6 L552.9,296.6 L552.5,296.6 L551.7,296.7 L551.6,296.7 L551.9,296.7 L552.0,296.7 L551.5,296.7 L550.9,296.7 L550.6,296.7 L551.0,296.7 L552.1,296.7 L552.3,296.7 L552.5,296.8 L552.1,296.8 L552.0,296.8 L552.0,296.8 L552.3,296.8 L552.4,296.8 L552.4,296.8 L551.9,296.9 L551.1,296.9 L549.6,296.9 L549.4,296.9 L548.9,296.9 L548.2,296.9 L547.6,296.9 L547.1,296.9 L545.3,296.9 L544.7,296.9 L543.8,296.9 L542.7,297.0 L541.8,297.0 L540.8,297.0 L540.6,297.0 L540.7,297.0 L540.5,297.0 L540.2,297.0 L539.6,297.0 L538.4,297.0 L537.5,297.0 L536.2,297.0 L535.5,297.0 L535.0,297.0 L533.7,297.1 L533.6,297.1 L532.6,297.1 L530.6,297.1 L527.8,297.1 L525.0,297.1 L523.5,297.2 L521.9,297.2 L519.4,297.2 L517.8,297.2 L514.9,297.2 L514.2,297.2 L513.1,297.2 L512.5,297.2 L511.1,297.2 L509.8,297.2 L508.8,297.2 L507.9,297.3 L507.4,297.3 L507.3,297.3 L507.4,297.3 L507.9,297.3 L508.0,297.3 L507.3,297.3 L506.7,297.4 L506.3,297.4 L505.4,297.4 L504.9,297.4 L504.6,297.4 L504.3,297.4 L503.7,297.4 L501.4,297.4 L500.6,297.4 L500.0,297.4 L498.9,297.4 L495.6,297.4 L493.9,297.4 L492.3,297.3 L490.7,297.3 L489.0,297.3 L488.5,297.3 L488.4,297.3 L488.6,297.3 L489.2,297.2 L489.8,297.2 L490.1,297.2 L490.3,297.2 L490.0,297.1 L489.1,297.1 L488.4,297.1 Z" data-name="Béni Mellal-Khénifra" fill="#DDD0BB" stroke="#B8A898" stroke-width="1.2" stroke-linejoin="round" stroke-linecap="round"/>
  <path d="M578.2,294.1 L577.3,294.1 L576.2,294.1 L575.0,294.1 L573.6,294.1 L571.1,294.1 L569.6,294.0 L569.2,294.0 L568.8,294.0 L567.9,294.0 L567.5,294.0 L567.2,294.0 L566.9,294.0 L565.5,294.0 L565.4,294.0 L564.8,294.0 L564.5,294.0 L563.5,294.0 L563.0,294.0 L562.3,294.0 L561.8,294.0 L561.4,294.0 L560.1,294.0 L559.4,294.0 L558.9,294.0 L558.5,294.0 L557.9,293.9 L556.9,293.9 L556.2,293.9 L555.0,293.9 L554.1,293.9 L553.7,293.9 L552.9,293.9 L552.0,293.9 L551.4,293.9 L551.0,293.9 L549.3,293.9 L548.4,293.8 L545.5,293.8 L540.2,293.8 L538.9,293.8 L537.3,293.8 L535.8,293.8 L532.6,293.8 L531.3,293.8 L531.3,293.8 L531.7,293.8 L532.3,293.7 L532.4,293.7 L532.6,293.7 L532.6,293.7 L533.1,293.7 L533.2,293.7 L533.6,293.7 L533.9,293.7 L533.9,293.7 L534.0,293.7 L534.4,293.6 L534.3,293.6 L534.5,293.6 L535.1,293.6 L535.3,293.6 L535.4,293.6 L535.5,293.6 L535.7,293.6 L536.0,293.6 L536.1,293.6 L536.2,293.6 L536.4,293.6 L536.4,293.6 L536.8,293.5 L536.7,293.5 L536.9,293.5 L536.9,293.5 L537.1,293.5 L537.4,293.5 L537.7,293.5 L538.6,293.4 L538.8,293.4 L538.9,293.4 L538.9,293.4 L539.2,293.4 L539.3,293.4 L539.6,293.4 L539.6,293.4 L539.9,293.4 L540.1,293.4 L540.2,293.4 L540.3,293.3 L540.6,293.3 L540.6,293.3 L540.7,293.3 L541.1,293.3 L541.6,293.3 L541.8,293.3 L541.9,293.3 L542.4,293.3 L542.3,293.3 L542.4,293.3 L542.5,293.3 L542.4,293.3 L542.5,293.3 L542.7,293.3 L542.9,293.3 L542.9,293.3 L542.7,293.3 L542.7,293.2 L543.1,293.2 L543.5,293.2 L543.6,293.2 L543.6,293.2 L543.7,293.2 L543.7,293.2 L543.7,293.2 L543.7,293.2 L544.1,293.2 L544.3,293.2 L544.3,293.2 L544.4,293.2 L544.5,293.2 L544.4,293.2 L544.5,293.2 L544.4,293.2 L544.5,293.2 L544.8,293.2 L544.6,293.2 L544.4,293.2 L543.9,293.2 L543.5,293.2 L543.3,293.2 L543.5,293.2 L543.7,293.2 L543.9,293.2 L543.9,293.2 L544.3,293.1 L544.6,293.1 L544.8,293.1 L544.9,293.1 L545.0,293.1 L545.0,293.1 L545.2,293.1 L545.3,293.1 L545.4,293.1 L545.5,293.1 L546.0,293.0 L546.0,293.0 L546.0,293.0 L546.1,293.0 L546.2,293.0 L546.2,293.0 L546.2,293.0 L546.5,293.0 L546.5,293.0 L546.3,293.0 L546.4,293.0 L546.4,293.0 L546.6,293.0 L546.8,293.0 L547.5,293.0 L547.7,293.0 L548.3,293.0 L548.4,293.0 L548.9,293.0 L549.3,293.0 L549.5,293.0 L550.2,293.0 L550.3,293.0 L550.4,293.0 L550.5,293.0 L550.6,293.0 L550.9,293.0 L551.3,293.0 L551.6,293.0 L552.2,293.0 L552.5,293.0 L552.8,293.0 L552.8,293.0 L552.5,293.0 L552.5,293.0 L552.4,293.0 L552.4,293.0 L552.6,293.0 L552.7,293.0 L552.4,293.0 L552.4,293.0 L552.9,293.0 L553.5,293.0 L554.2,293.0 L554.2,293.0 L554.3,293.0 L554.5,293.0 L554.6,293.0 L554.7,293.0 L554.9,293.0 L554.9,293.0 L555.0,293.0 L555.0,293.0 L554.9,293.0 L555.0,293.0 L555.3,293.0 L555.4,293.0 L555.5,293.0 L555.7,293.0 L555.9,293.0 L556.2,293.0 L556.3,292.9 L556.4,292.9 L556.5,292.9 L556.7,292.9 L557.0,292.9 L557.1,292.9 L557.3,292.9 L557.9,292.9 L558.3,292.9 L558.5,292.9 L559.1,292.9 L559.6,293.0 L560.0,293.0 L560.0,292.9 L560.4,292.9 L560.6,292.9 L561.1,292.9 L561.3,292.9 L561.6,292.9 L562.0,292.9 L562.2,292.9 L562.8,292.9 L563.1,292.9 L563.2,292.9 L563.5,292.9 L563.8,292.9 L564.0,292.9 L563.9,292.9 L564.3,292.9 L564.5,292.9 L565.1,292.9 L565.5,292.9 L566.3,292.9 L566.2,292.9 L566.4,292.9 L566.5,292.9 L566.8,292.9 L567.1,292.9 L567.4,292.9 L567.4,292.9 L567.6,292.9 L567.6,292.9 L567.7,292.9 L567.7,292.9 L567.9,292.9 L568.1,292.9 L568.4,292.9 L568.9,292.9 L569.1,292.9 L569.2,292.9 L569.5,292.9 L569.6,292.9 L569.7,292.9 L569.9,292.9 L570.8,292.9 L571.4,292.9 L571.4,292.9 L571.5,292.9 L571.5,292.9 L571.7,292.9 L571.6,292.9 L571.7,292.9 L572.0,292.9 L572.2,292.9 L572.6,292.9 L572.6,292.9 L574.3,292.9 L574.2,292.9 L574.2,292.9 L574.0,292.9 L573.7,292.9 L573.8,292.9 L573.7,293.0 L573.9,293.0 L574.1,293.0 L574.0,293.0 L574.2,293.0 L574.4,293.0 L574.5,293.0 L574.4,293.0 L574.4,293.0 L574.3,293.0 L574.3,293.0 L574.4,293.0 L574.2,293.0 L574.3,293.0 L574.5,293.1 L574.7,293.1 L574.6,293.1 L574.6,293.1 L575.0,293.1 L575.3,293.1 L575.8,293.1 L575.8,293.1 L576.0,293.1 L576.8,293.1 L577.5,293.1 L577.5,293.1 L577.2,293.1 L577.1,293.1 L577.0,293.1 L577.0,293.1 L577.9,293.2 L577.7,293.2 L577.9,293.2 L578.0,293.2 L578.2,293.2 L578.3,293.2 L578.3,293.2 L578.5,293.2 L578.6,293.2 L578.9,293.2 L579.2,293.2 L579.4,293.2 L579.6,293.2 L579.8,293.2 L579.9,293.2 L580.2,293.2 L580.5,293.2 L580.8,293.2 L581.0,293.2 L581.4,293.2 L581.7,293.2 L582.3,293.3 L582.4,293.3 L582.6,293.3 L582.8,293.3 L583.2,293.3 L583.6,293.3 L583.7,293.3 L584.1,293.3 L584.1,293.3 L584.2,293.3 L584.5,293.3 L585.2,293.3 L585.5,293.3 L585.7,293.3 L585.8,293.3 L585.9,293.3 L586.0,293.3 L586.6,293.3 L586.6,293.4 L586.5,293.4 L586.7,293.4 L586.7,293.4 L587.5,293.4 L588.5,293.4 L589.0,293.4 L589.4,293.4 L589.7,293.4 L589.8,293.4 L590.0,293.4 L590.2,293.4 L590.4,293.4 L591.0,293.4 L591.8,293.4 L591.9,293.4 L592.3,293.4 L592.5,293.4 L593.2,293.5 L593.3,293.5 L593.7,293.5 L593.9,293.5 L595.3,293.5 L595.7,293.5 L596.2,293.5 L596.7,293.5 L597.4,293.5 L597.7,293.5 L598.0,293.5 L598.4,293.5 L599.1,293.5 L599.6,293.5 L600.2,293.5 L600.4,293.5 L600.8,293.5 L601.6,293.6 L602.3,293.6 L603.0,293.6 L603.2,293.6 L603.5,293.6 L604.2,293.6 L604.6,293.6 L605.1,293.6 L605.5,293.6 L605.8,293.6 L606.1,293.6 L606.4,293.6 L606.6,293.6 L606.6,293.6 L606.7,293.6 L606.8,293.6 L606.7,293.6 L607.1,293.6 L607.1,293.6 L607.1,293.6 L607.9,293.6 L608.7,293.6 L609.4,293.6 L609.8,293.6 L609.9,293.6 L610.6,293.6 L611.0,293.6 L611.3,293.6 L611.7,293.6 L613.2,293.6 L613.8,293.6 L614.6,293.6 L615.3,293.6 L615.7,293.6 L616.4,293.6 L615.0,293.7 L614.8,293.7 L615.6,293.7 L615.9,293.7 L615.8,293.8 L615.3,293.8 L614.7,293.8 L613.2,293.8 L611.5,293.8 L609.0,293.8 L606.7,293.9 L606.0,293.9 L604.3,293.9 L602.1,293.9 L601.7,293.9 L600.7,293.9 L599.9,293.9 L599.3,294.0 L599.0,294.0 L598.0,294.0 L596.7,294.0 L596.1,294.0 L594.7,294.0 L591.2,294.0 L589.9,294.0 L589.1,294.0 L588.0,294.0 L586.3,294.0 L584.9,294.0 L583.5,294.1 L582.8,294.1 L580.3,294.0 L579.7,294.0 L579.2,294.1 L578.2,294.1 Z M596.8,293.5 L596.8,293.5 L596.5,293.5 L596.5,293.5 L596.8,293.5 L596.8,293.5 Z M574.6,293.0 L574.6,293.0 L574.6,293.0 L574.4,293.0 L574.5,293.0 L574.6,293.0 Z M621.4,294.9 L620.8,294.9 L619.8,294.9 L619.4,294.9 L619.2,294.9 L618.7,294.9 L618.0,294.9 L616.3,294.9 L615.6,294.9 L614.6,294.9 L612.9,294.9 L612.3,294.9 L611.5,294.9 L611.4,294.8 L611.6,294.8 L611.6,294.8 L611.4,294.8 L610.4,294.7 L610.6,294.7 L609.9,294.7 L608.7,294.7 L608.2,294.7 L607.4,294.7 L606.9,294.7 L605.7,294.7 L605.0,294.7 L604.5,294.7 L603.5,294.7 L602.8,294.7 L602.7,294.7 L602.0,294.7 L601.7,294.7 L601.6,294.6 L601.7,294.6 L601.9,294.6 L601.7,294.6 L601.7,294.6 L601.6,294.6 L601.2,294.6 L600.5,294.6 L600.0,294.6 L599.7,294.6 L599.7,294.6 L599.8,294.6 L599.9,294.6 L599.7,294.6 L599.0,294.6 L597.8,294.6 L597.3,294.6 L596.8,294.6 L595.8,294.6 L595.5,294.6 L595.5,294.6 L595.3,294.6 L594.7,294.5 L594.9,294.5 L596.1,294.5 L596.0,294.5 L595.4,294.5 L595.3,294.5 L594.7,294.5 L593.8,294.5 L593.0,294.5 L592.7,294.5 L593.1,294.5 L593.4,294.5 L593.3,294.5 L592.9,294.5 L592.1,294.5 L591.5,294.5 L590.8,294.5 L590.3,294.5 L588.9,294.5 L588.6,294.5 L588.4,294.5 L587.9,294.5 L587.7,294.5 L587.9,294.5 L588.0,294.5 L587.5,294.5 L587.1,294.5 L586.5,294.5 L586.0,294.5 L585.6,294.5 L585.7,294.5 L585.6,294.5 L585.1,294.5 L584.4,294.5 L584.1,294.5 L583.5,294.5 L582.8,294.5 L581.9,294.5 L581.6,294.5 L580.8,294.5 L580.5,294.5 L580.2,294.5 L579.8,294.5 L579.1,294.5 L578.8,294.5 L578.3,294.5 L577.5,294.5 L576.8,294.5 L576.0,294.5 L575.5,294.5 L574.6,294.5 L574.3,294.5 L574.2,294.5 L573.7,294.5 L573.3,294.5 L572.6,294.5 L572.0,294.5 L571.2,294.5 L570.1,294.5 L570.2,294.5 L569.6,294.5 L568.7,294.5 L568.1,294.5 L567.8,294.4 L568.2,294.4 L568.0,294.4 L567.3,294.4 L567.7,294.4 L569.9,294.4 L570.5,294.4 L573.0,294.4 L573.7,294.3 L574.3,294.3 L575.0,294.3 L575.5,294.3 L575.7,294.3 L575.7,294.3 L576.0,294.3 L576.7,294.3 L577.7,294.3 L578.5,294.3 L579.1,294.3 L579.4,294.2 L580.1,294.2 L580.9,294.2 L582.2,294.2 L582.8,294.2 L583.0,294.2 L582.3,294.2 L582.2,294.2 L582.6,294.2 L583.0,294.1 L583.0,294.1 L583.5,294.1 L584.9,294.0 L586.3,294.0 L588.0,294.0 L589.1,294.0 L589.9,294.0 L591.2,294.0 L594.7,294.0 L596.1,294.0 L596.7,294.0 L598.0,294.0 L599.0,294.0 L599.3,294.0 L599.9,293.9 L600.7,293.9 L601.7,293.9 L602.1,293.9 L604.3,293.9 L606.0,293.9 L606.7,293.9 L609.0,293.8 L611.5,293.8 L613.2,293.8 L614.7,293.8 L615.3,293.8 L615.8,293.8 L615.9,293.7 L615.6,293.7 L614.8,293.7 L615.0,293.7 L616.4,293.6 L617.6,293.6 L618.1,293.6 L618.4,293.6 L618.6,293.6 L619.5,293.6 L620.0,293.6 L620.0,293.6 L620.3,293.6 L620.3,293.6 L620.5,293.6 L620.5,293.6 L621.0,293.6 L621.1,293.6 L621.4,293.6 L621.7,293.6 L622.4,293.6 L622.6,293.6 L622.6,293.6 L622.9,293.6 L622.9,293.6 L623.1,293.6 L623.3,293.6 L623.5,293.6 L623.7,293.6 L623.9,293.6 L624.1,293.6 L624.1,293.6 L624.2,293.6 L624.3,293.6 L624.3,293.6 L624.4,293.6 L625.1,293.6 L625.5,293.6 L625.9,293.6 L625.9,293.6 L626.2,293.6 L626.4,293.6 L627.5,293.6 L627.6,293.6 L627.6,293.6 L627.9,293.6 L628.0,293.6 L628.3,293.6 L628.5,293.6 L628.8,293.6 L629.4,293.6 L630.0,293.6 L630.2,293.6 L630.4,293.6 L630.6,293.6 L630.7,293.6 L631.3,293.6 L631.5,293.6 L631.8,293.6 L632.0,293.6 L632.4,293.6 L632.8,293.6 L633.2,293.6 L633.2,293.6 L633.5,293.6 L634.0,293.6 L634.1,293.6 L634.7,293.6 L634.9,293.6 L635.3,293.6 L635.4,293.6 L635.7,293.6 L635.7,293.6 L636.1,293.6 L636.4,293.6 L636.6,293.6 L636.7,293.5 L637.0,293.5 L637.0,293.6 L637.4,293.6 L637.7,293.6 L638.0,293.6 L638.2,293.6 L638.8,293.6 L639.4,293.5 L640.2,293.5 L640.5,293.5 L641.1,293.5 L641.6,293.5 L641.7,293.5 L641.8,293.5 L641.8,293.5 L641.6,293.5 L641.7,293.5 L641.6,293.5 L641.5,293.5 L641.6,293.5 L641.3,293.5 L641.3,293.5 L641.6,293.5 L641.6,293.5 L641.5,293.5 L641.6,293.6 L641.5,293.6 L641.7,293.6 L641.7,293.6 L641.9,293.6 L641.9,293.6 L642.1,293.6 L642.2,293.6 L642.6,293.6 L643.5,293.6 L644.9,293.6 L645.7,293.6 L647.0,293.6 L647.4,293.6 L647.2,293.6 L646.8,293.7 L646.7,293.7 L647.1,293.7 L647.2,293.7 L647.3,293.8 L647.2,293.8 L647.6,293.8 L647.6,293.8 L647.3,293.8 L647.3,293.8 L647.5,293.9 L647.3,293.9 L647.4,293.9 L647.9,293.9 L648.1,293.9 L648.1,293.9 L648.2,293.9 L648.7,293.9 L649.4,293.9 L650.4,293.9 L650.8,293.9 L650.9,293.9 L650.2,293.9 L650.2,293.9 L650.6,293.9 L651.0,293.9 L651.3,293.9 L651.7,293.9 L651.9,293.9 L652.5,293.9 L652.7,293.9 L653.1,293.9 L654.3,294.0 L655.0,294.0 L655.8,294.0 L656.3,294.0 L657.1,294.0 L657.5,294.0 L657.6,294.0 L657.1,294.0 L657.1,294.0 L657.6,294.0 L657.5,294.0 L656.8,294.1 L656.3,294.1 L656.4,294.1 L656.8,294.1 L657.6,294.1 L658.0,294.1 L658.0,294.1 L658.0,294.1 L657.7,294.1 L657.3,294.1 L655.9,294.1 L655.5,294.1 L655.2,294.1 L655.2,294.1 L655.7,294.2 L655.6,294.2 L654.7,294.2 L654.5,294.2 L654.7,294.2 L655.1,294.2 L656.1,294.2 L656.6,294.2 L657.1,294.2 L657.5,294.2 L657.9,294.2 L657.9,294.2 L658.0,294.2 L658.4,294.2 L659.0,294.2 L659.6,294.2 L660.1,294.2 L660.7,294.2 L661.2,294.2 L661.6,294.2 L661.9,294.2 L662.1,294.2 L662.4,294.2 L662.7,294.2 L663.0,294.2 L663.5,294.2 L663.7,294.2 L663.6,294.2 L663.6,294.2 L663.8,294.1 L664.2,294.1 L664.9,294.2 L665.4,294.2 L665.8,294.2 L666.8,294.1 L667.5,294.1 L668.9,294.1 L669.9,294.1 L670.5,294.1 L670.7,294.1 L670.4,294.1 L670.6,294.0 L671.2,294.0 L672.1,294.0 L674.0,294.0 L675.8,294.0 L677.3,294.0 L678.3,294.0 L678.8,294.1 L679.4,294.1 L679.9,294.1 L681.5,294.1 L682.9,294.1 L683.4,294.1 L683.8,294.1 L684.5,294.1 L684.9,294.1 L686.2,294.1 L686.4,294.1 L686.6,294.1 L686.4,294.2 L685.9,294.2 L685.7,294.2 L687.6,294.2 L687.7,294.2 L687.7,294.2 L687.2,294.2 L686.5,294.2 L685.7,294.2 L685.2,294.2 L684.6,294.2 L684.0,294.2 L682.9,294.2 L681.8,294.2 L681.7,294.2 L681.8,294.2 L682.0,294.3 L681.6,294.3 L681.4,294.3 L681.4,294.3 L681.2,294.3 L680.8,294.3 L679.7,294.3 L679.5,294.3 L679.4,294.3 L679.6,294.3 L679.8,294.3 L679.7,294.3 L679.4,294.3 L679.3,294.3 L678.8,294.3 L678.4,294.3 L678.3,294.4 L678.2,294.4 L677.8,294.4 L675.5,294.4 L674.8,294.4 L674.5,294.4 L674.4,294.4 L674.5,294.4 L674.0,294.4 L674.0,294.4 L674.2,294.4 L675.1,294.5 L676.5,294.5 L677.6,294.5 L678.1,294.5 L678.7,294.5 L678.9,294.5 L678.9,294.5 L678.8,294.6 L678.8,294.6 L679.0,294.6 L679.5,294.6 L680.5,294.6 L681.0,294.6 L681.0,294.7 L680.9,294.7 L680.4,294.7 L679.8,294.7 L679.7,294.7 L679.2,294.7 L678.6,294.7 L678.0,294.7 L675.8,294.8 L674.8,294.8 L673.9,294.8 L673.3,294.8 L672.9,294.8 L672.8,294.8 L672.6,294.8 L672.7,294.8 L673.1,294.8 L674.8,294.9 L676.2,294.9 L677.5,294.9 L678.1,294.9 L679.2,295.0 L679.4,295.0 L679.6,295.0 L679.5,295.0 L677.9,295.0 L675.3,295.0 L674.3,295.0 L673.5,295.0 L672.5,295.0 L671.1,295.0 L670.0,295.0 L669.0,295.0 L666.0,295.0 L665.3,295.0 L664.4,294.9 L663.1,294.9 L662.3,294.9 L662.0,294.9 L661.6,294.9 L660.3,294.9 L660.1,294.9 L659.7,294.9 L659.1,294.9 L658.4,294.9 L658.0,294.9 L657.7,294.9 L657.1,294.9 L656.5,294.9 L655.8,294.9 L654.8,295.0 L653.9,295.0 L653.1,295.0 L652.1,295.0 L650.3,295.0 L649.9,295.0 L649.2,295.1 L648.2,295.1 L647.3,295.1 L646.5,295.1 L646.3,295.1 L646.2,295.1 L645.7,295.1 L645.3,295.1 L644.7,295.2 L643.7,295.2 L642.6,295.2 L640.7,295.2 L639.1,295.2 L638.1,295.2 L636.6,295.2 L635.4,295.2 L634.1,295.2 L633.7,295.2 L633.3,295.2 L632.5,295.2 L632.2,295.2 L632.4,295.2 L633.4,295.1 L633.9,295.1 L634.0,295.1 L633.5,295.1 L632.8,295.1 L631.8,295.1 L630.9,295.1 L630.3,295.1 L629.2,295.1 L629.0,295.1 L628.3,295.1 L627.9,295.1 L627.8,295.1 L628.1,295.0 L628.1,295.0 L628.6,295.0 L628.9,295.0 L629.3,295.0 L630.1,295.0 L631.7,295.0 L631.8,295.0 L631.2,295.0 L628.1,295.0 L627.5,294.9 L626.8,294.9 L626.5,294.9 L626.1,294.9 L625.9,294.9 L624.6,294.9 L623.3,294.9 L622.9,294.9 L622.1,294.9 L621.4,294.9 Z M620.8,293.6 L620.8,293.6 L620.7,293.6 L620.8,293.6 L620.8,293.6 Z" data-name="Tanger-Tétouan-Al Hoceïma" fill="#DDD0BB" stroke="#B8A898" stroke-width="1.2" stroke-linejoin="round" stroke-linecap="round"/>
  <path d="M20.0,305.2 L20.0,305.6 L20.0,306.5 L20.0,307.1 L117.0,307.1 L259.1,307.0 L353.8,306.9 L416.7,306.7 L415.3,304.7 L353.8,305.0 L259.1,305.2 L164.4,305.2 L69.7,305.2 L20.0,305.2 Z" data-name="Ed Dakhla-Oued ed Dahab" fill="#DDD0BB" stroke="#B8A898" stroke-width="1.2" stroke-linejoin="round" stroke-linecap="round"/>
</svg>