<svg xmlns="http://www.w3.org/2000/svg" viewBox="0 0 800 600" width="800" height="600">
  <path d="M393.7,143.4 L393.5,144.4 L393.2,144.9 L392.8,145.3 L392.0,146.0 L391.6,146.1 L391.0,146.8 L390.9,146.4 L390.4,146.1 L389.0,146.0 L388.6,145.7 L388.3,145.1 L387.1,144.8 L386.6,144.3 L385.8,143.8 L385.3,143.6 L383.4,143.5 L383.1,143.3 L382.0,141.8 L381.7,141.5 L381.1,141.5 L380.3,141.7 L379.6,141.7 L378.7,141.6 L378.0,142.1 L377.6,142.1 L377.1,141.8 L376.7,142.0 L376.8,142.4 L376.8,142.7 L376.3,143.0 L375.5,143.3 L375.0,143.6 L373.7,143.7 L373.2,143.3 L372.9,143.3 L372.6,143.7 L372.2,143.7 L371.1,142.2 L370.5,140.6 L370.1,140.0 L369.6,139.2 L368.5,138.9 L368.1,138.4 L367.9,137.7 L367.5,137.2 L367.1,136.2 L366.6,135.6 L366.0,135.3 L365.3,135.2 L364.7,135.1 L363.7,134.3 L363.0,134.2 L360.1,133.4 L360.2,133.1 L359.9,132.5 L359.4,131.6 L358.7,131.1 L358.3,130.4 L358.0,129.8 L357.9,129.4 L357.7,129.0 L356.8,128.9 L356.9,128.7 L357.4,128.4 L357.4,128.3 L356.5,128.3 L356.6,127.9 L357.2,127.7 L357.4,127.5 L357.1,127.4 L356.6,127.2 L356.4,127.2 L355.6,127.8 L355.2,127.9 L354.5,127.8 L354.7,127.6 L355.3,127.4 L355.5,127.2 L355.6,127.1 L355.5,126.9 L355.0,126.8 L354.8,126.6 L355.0,126.4 L355.0,126.1 L354.9,125.7 L354.9,125.5 L355.2,125.4 L355.3,125.2 L355.2,124.9 L354.3,124.5 L354.3,124.3 L354.5,124.2 L355.1,124.3 L355.1,124.2 L354.9,123.8 L354.4,123.7 L354.2,123.5 L354.4,123.3 L354.7,123.2 L354.8,123.1 L354.7,122.7 L354.9,122.4 L355.2,122.3 L355.3,122.2 L355.2,122.0 L354.7,121.6 L354.9,121.4 L355.5,121.4 L355.5,121.1 L354.9,120.7 L354.8,120.4 L354.9,119.9 L354.7,119.7 L355.1,118.9 L355.1,118.6 L354.9,118.4 L354.6,118.6 L354.2,118.7 L353.9,118.6 L354.3,118.0 L353.6,117.7 L353.3,117.4 L353.3,117.1 L353.2,116.7 L352.6,116.6 L352.4,116.9 L352.2,116.8 L352.2,116.5 L351.7,116.1 L351.8,115.8 L352.5,115.8 L352.7,115.7 L352.9,115.1 L353.3,114.7 L353.4,114.3 L353.4,113.9 L353.5,113.8 L353.9,113.7 L354.2,113.5 L354.6,113.5 L354.9,113.6 L355.1,113.7 L356.5,113.6 L356.7,113.3 L357.0,113.1 L357.1,112.9 L357.0,112.7 L356.3,112.7 L356.2,112.6 L356.4,112.4 L357.8,112.0 L358.2,111.4 L358.7,111.1 L359.0,110.6 L358.9,110.5 L358.3,110.5 L357.9,110.3 L357.7,110.0 L357.8,109.6 L357.7,109.5 L357.3,109.6 L357.0,109.3 L357.2,109.1 L357.8,108.9 L358.1,108.7 L358.1,108.6 L358.1,108.4 L357.8,108.3 L357.5,108.0 L357.6,107.8 L358.0,107.5 L358.2,107.2 L358.3,106.9 L358.0,106.8 L357.8,106.6 L357.8,106.3 L357.6,106.0 L357.2,105.6 L356.6,105.1 L356.1,104.3 L356.3,104.3 L356.7,104.0 L357.2,103.8 L357.3,103.8 L357.4,103.8 L357.5,103.7 L357.7,103.6 L358.0,103.5 L358.6,103.5 L358.9,103.5 L359.4,103.2 L359.5,103.2 L360.0,103.0 L360.3,102.9 L360.4,102.8 L360.6,103.5 L361.0,103.7 L361.5,104.3 L361.9,104.3 L362.2,104.2 L362.2,104.0 L362.6,103.9 L363.4,104.1 L363.7,104.0 L364.0,104.0 L364.4,104.5 L364.7,104.6 L365.4,104.3 L365.5,104.3 L365.7,104.5 L365.8,104.6 L366.1,104.6 L366.4,104.4 L366.6,104.3 L367.0,104.9 L367.3,105.0 L368.2,105.3 L368.2,105.4 L368.1,105.8 L368.4,106.1 L368.5,106.1 L369.2,105.7 L369.8,105.4 L370.2,105.5 L370.5,105.9 L370.6,106.0 L370.9,105.9 L371.2,105.7 L371.3,105.6 L371.9,105.7 L372.6,105.7 L373.2,105.8 L373.4,106.0 L374.0,106.1 L374.5,106.4 L373.8,106.7 L372.4,106.9 L371.4,107.4 L371.2,107.4 L371.1,107.5 L371.2,107.8 L371.4,108.1 L371.5,108.9 L371.7,109.4 L372.3,109.6 L373.1,109.6 L373.4,109.2 L373.6,109.0 L373.7,108.6 L374.0,108.2 L374.1,108.0 L374.1,107.7 L374.5,107.1 L374.5,106.9 L374.5,106.7 L376.2,105.6 L376.4,105.4 L377.4,105.2 L377.6,105.1 L377.4,104.9 L377.5,104.8 L378.1,104.7 L378.7,104.6 L379.1,104.6 L379.3,104.6 L379.3,104.4 L379.2,104.1 L379.1,103.9 L378.8,103.6 L379.5,103.4 L379.6,103.3 L379.6,103.1 L379.8,103.0 L379.9,103.0 L380.3,103.2 L380.5,103.1 L380.7,103.0 L380.6,102.7 L380.4,102.6 L380.4,102.5 L380.3,102.4 L380.4,102.1 L380.4,102.0 L380.1,101.9 L379.7,101.6 L379.6,101.4 L379.3,100.7 L379.3,100.5 L379.6,100.2 L379.8,99.7 L379.3,99.4 L379.2,99.2 L379.2,98.9 L379.4,98.4 L379.2,98.3 L379.1,98.2 L379.5,97.8 L379.7,97.4 L379.3,97.1 L379.4,97.0 L379.9,96.8 L380.7,96.8 L380.8,96.7 L380.8,96.4 L380.4,96.1 L380.3,95.9 L380.3,95.8 L380.5,95.6 L381.2,95.1 L381.4,94.7 L381.5,94.7 L381.4,94.6 L381.3,94.4 L381.2,94.4 L381.1,94.3 L381.3,94.3 L381.3,94.3 L381.3,94.4 L381.7,94.4 L381.6,94.2 L381.4,94.2 L381.4,94.1 L381.6,93.9 L381.8,93.8 L381.8,93.9 L381.8,93.9 L382.0,93.8 L382.0,93.7 L382.2,93.6 L382.3,93.5 L382.6,93.4 L382.6,93.3 L382.6,93.3 L383.1,93.0 L383.2,93.0 L383.2,92.9 L383.4,92.7 L383.5,92.7 L383.6,92.6 L383.7,92.5 L384.0,92.3 L384.2,92.2 L384.3,92.1 L384.4,92.1 L384.5,91.9 L384.8,91.9 L385.0,91.8 L385.0,91.7 L385.2,91.7 L385.5,91.4 L385.6,91.4 L385.9,91.4 L386.0,91.3 L385.9,91.3 L385.9,91.2 L385.9,91.1 L386.3,91.2 L386.6,91.1 L386.9,91.1 L386.9,91.1 L387.4,91.0 L387.5,91.0 L387.6,91.0 L387.6,90.9 L387.9,90.8 L387.9,90.7 L388.1,90.6 L388.2,90.4 L388.2,90.5 L388.2,90.6 L388.5,90.6 L388.7,90.5 L388.9,90.5 L389.0,90.3 L388.9,90.2 L389.1,90.2 L389.2,90.2 L389.1,90.3 L389.4,90.4 L389.4,90.3 L389.5,90.2 L389.8,90.2 L389.8,90.1 L390.0,90.5 L390.3,90.9 L392.0,91.0 L392.3,91.7 L392.9,92.3 L393.3,93.3 L393.4,94.7 L393.3,94.9 L393.4,95.2 L393.7,95.4 L393.8,95.7 L394.2,96.1 L394.5,96.6 L394.1,97.3 L394.1,97.6 L394.7,97.6 L394.7,97.3 L395.3,97.3 L396.0,97.7 L396.7,97.8 L397.2,98.2 L397.3,98.5 L397.5,98.8 L398.2,99.1 L398.6,99.6 L399.0,99.7 L400.5,99.4 L401.4,99.5 L401.9,99.2 L402.9,99.3 L402.6,100.7 L400.4,103.3 L400.2,103.7 L400.2,104.1 L400.2,104.6 L400.7,105.7 L401.2,106.2 L401.7,106.7 L402.0,107.2 L401.8,108.2 L401.1,108.8 L400.8,109.2 L400.7,109.7 L400.7,110.4 L401.1,111.8 L401.1,112.1 L400.9,112.8 L400.6,113.1 L401.8,113.5 L402.8,113.9 L403.4,113.8 L403.8,113.4 L404.1,113.4 L405.2,113.7 L406.0,114.1 L406.8,113.8 L408.3,113.7 L409.0,113.6 L409.8,113.6 L411.3,114.5 L413.0,116.4 L413.5,116.2 L414.0,115.2 L414.5,114.6 L415.3,114.2 L416.1,113.7 L416.9,113.8 L417.6,113.3 L419.1,112.7 L419.0,113.3 L418.3,113.8 L417.8,114.5 L417.7,115.1 L418.1,115.7 L418.9,116.0 L419.9,116.2 L420.8,116.6 L421.4,116.6 L421.9,116.7 L422.3,117.8 L422.8,118.0 L423.4,118.0 L423.8,118.2 L424.1,118.6 L424.3,118.8 L425.0,119.0 L425.6,119.6 L426.7,120.1 L427.2,120.3 L427.8,120.5 L427.9,120.8 L427.9,121.4 L428.1,121.9 L429.8,122.5 L430.1,122.9 L430.0,123.5 L429.4,123.9 L428.8,124.0 L428.1,124.0 L427.7,124.2 L427.5,124.8 L427.6,125.6 L428.2,126.0 L428.8,126.0 L429.5,125.7 L430.0,125.5 L430.6,125.4 L431.3,125.6 L431.4,126.2 L431.6,126.7 L433.0,128.2 L432.6,128.5 L432.2,128.7 L432.1,129.0 L432.4,129.4 L432.2,130.5 L432.5,131.0 L432.6,131.0 L431.9,131.4 L431.6,131.8 L431.1,132.6 L430.5,133.0 L429.7,133.3 L429.0,133.5 L427.9,133.6 L426.8,133.5 L425.9,133.6 L425.1,133.8 L424.7,134.0 L424.3,134.2 L424.1,134.3 L423.1,134.6 L421.6,134.6 L421.0,134.5 L419.2,134.6 L419.0,134.6 L418.3,134.5 L416.1,134.6 L415.1,134.4 L414.6,134.0 L412.4,133.7 L410.9,133.9 L410.5,134.0 L410.1,134.2 L409.9,134.5 L409.4,134.6 L409.1,134.9 L409.6,135.3 L409.6,135.6 L409.5,135.8 L408.8,135.8 L407.7,135.6 L406.6,135.1 L404.7,135.1 L403.8,134.7 L403.5,134.6 L403.1,134.6 L402.8,135.2 L401.2,135.3 L400.6,135.9 L399.9,136.3 L399.0,136.5 L398.7,136.7 L398.1,136.9 L397.2,136.9 L396.4,136.1 L395.5,135.8 L395.6,136.3 L395.2,137.3 L395.3,138.4 L395.1,139.0 L395.1,140.2 L394.9,140.8 L393.7,143.4 Z M387.7,90.9 L387.5,90.9 L387.5,90.9 L387.5,90.8 L387.7,90.8 L387.7,90.9 Z M389.6,90.1 L389.5,90.2 L389.3,90.2 L389.3,90.2 L389.6,90.1 L389.6,90.1 Z M371.6,109.2 L371.5,108.9 L371.4,108.1 L371.2,107.8 L371.1,107.5 L371.2,107.4 L371.4,107.4 L372.4,106.9 L373.8,106.7 L374.5,106.4 L374.0,106.1 L373.4,106.0 L373.2,105.8 L372.6,105.7 L371.9,105.7 L371.3,105.6 L371.2,105.7 L370.9,105.9 L370.6,106.0 L370.5,105.9 L370.2,105.5 L370.1,105.5 L369.5,105.5 L369.2,105.7 L368.5,106.1 L368.4,106.1 L368.1,105.8 L368.2,105.4 L368.2,105.3 L367.3,105.0 L367.0,104.9 L366.6,104.3 L366.4,104.4 L366.1,104.6 L365.8,104.6 L365.7,104.5 L365.5,104.3 L365.4,104.3 L364.7,104.6 L364.4,104.5 L364.0,104.0 L363.7,104.0 L363.4,104.1 L362.6,103.9 L362.2,104.0 L362.2,104.2 L361.9,104.3 L361.5,104.3 L361.0,103.7 L360.6,103.5 L360.4,102.8 L360.5,102.8 L360.5,102.7 L360.7,102.7 L360.7,102.6 L361.1,102.5 L361.2,102.3 L361.4,102.3 L361.4,102.2 L362.0,102.1 L362.2,101.9 L362.4,101.8 L362.9,101.6 L362.9,101.5 L363.1,101.4 L363.1,101.3 L363.2,101.3 L363.3,101.4 L363.4,101.7 L364.0,101.7 L364.3,101.5 L364.2,101.4 L364.2,101.2 L364.3,101.2 L364.3,101.4 L364.4,101.4 L364.4,101.4 L364.6,101.4 L365.8,100.9 L365.9,100.7 L366.2,100.6 L366.3,100.4 L366.8,100.3 L367.5,100.0 L367.7,99.5 L367.8,99.5 L367.8,99.5 L367.9,99.5 L367.9,99.5 L367.9,99.5 L368.1,99.5 L368.6,99.3 L368.6,99.0 L369.3,98.9 L369.6,98.6 L369.6,98.5 L369.7,98.5 L369.7,98.4 L369.8,98.5 L369.9,98.7 L370.1,98.8 L370.3,98.7 L370.4,98.5 L370.6,98.6 L370.7,98.6 L370.7,98.5 L370.8,98.5 L371.0,98.7 L371.0,98.7 L371.2,98.4 L371.7,98.3 L371.7,98.3 L371.3,98.5 L371.1,98.7 L371.3,98.7 L371.2,98.6 L371.3,98.6 L371.4,98.7 L371.5,98.8 L371.4,98.7 L371.5,98.6 L371.6,98.8 L371.7,98.8 L371.5,98.5 L371.6,98.5 L371.8,98.8 L371.9,98.9 L372.0,98.8 L371.9,98.7 L371.8,98.5 L371.9,98.4 L372.2,98.7 L372.3,98.7 L372.4,98.6 L372.7,98.6 L372.7,98.5 L372.8,98.6 L372.9,98.5 L373.1,98.4 L373.1,98.4 L373.2,98.4 L373.5,98.2 L373.7,98.1 L373.8,98.2 L373.8,98.1 L373.9,98.1 L373.9,98.1 L373.9,98.2 L374.4,98.0 L374.4,98.0 L374.7,97.9 L375.4,97.4 L375.9,97.2 L376.1,97.1 L376.3,96.8 L376.8,96.5 L376.9,96.5 L376.8,96.4 L376.9,96.3 L377.1,96.3 L377.7,95.9 L377.9,95.7 L377.8,95.6 L377.9,95.5 L378.0,95.5 L377.9,95.7 L378.0,95.6 L378.0,95.5 L378.1,95.5 L378.1,95.4 L378.3,95.3 L378.6,95.3 L378.7,95.1 L378.8,95.2 L378.9,95.0 L378.9,94.9 L379.1,94.7 L379.1,94.6 L379.3,94.6 L379.4,94.2 L379.8,93.8 L379.9,93.8 L379.9,93.8 L379.8,93.8 L379.6,94.2 L379.9,94.0 L379.8,94.1 L379.5,94.3 L379.6,94.3 L379.7,94.4 L379.6,94.6 L379.5,94.6 L379.4,94.6 L379.5,94.6 L379.5,94.7 L379.6,94.8 L379.9,94.8 L380.2,94.8 L380.3,94.7 L380.7,94.5 L380.7,94.6 L380.4,94.7 L380.5,94.8 L380.7,94.6 L380.9,94.7 L381.3,94.4 L381.5,94.7 L381.3,94.9 L380.5,95.6 L380.3,95.8 L380.3,95.9 L380.4,96.1 L380.8,96.4 L380.8,96.7 L380.7,96.8 L379.9,96.8 L379.4,97.0 L379.3,97.1 L379.7,97.4 L379.5,97.8 L379.1,98.2 L379.2,98.3 L379.4,98.4 L379.2,98.9 L379.2,99.2 L379.3,99.4 L379.8,99.7 L379.6,100.2 L379.3,100.5 L379.3,100.7 L379.6,101.4 L379.7,101.6 L380.1,101.9 L380.4,102.0 L380.4,102.1 L380.3,102.4 L380.4,102.5 L380.4,102.6 L380.6,102.7 L380.7,103.0 L380.5,103.1 L380.3,103.2 L379.9,103.0 L379.8,103.0 L379.6,103.1 L379.6,103.3 L379.5,103.4 L378.8,103.6 L379.1,103.9 L379.2,104.1 L379.3,104.4 L379.3,104.6 L379.1,104.6 L378.7,104.6 L378.1,104.7 L377.5,104.8 L377.4,104.9 L377.6,105.1 L377.4,105.2 L376.4,105.4 L376.2,105.6 L374.5,106.7 L374.5,106.9 L374.5,107.1 L374.1,107.7 L374.1,108.0 L374.0,108.2 L373.7,108.6 L373.6,109.0 L373.4,109.2 L373.1,109.6 L372.3,109.6 L371.7,109.4 L371.6,109.2 Z M372.0,98.1 L371.9,98.2 L371.8,98.2 L372.0,98.1 L372.0,98.1 Z M381.3,94.4 L381.3,94.4 L381.3,94.4 L381.3,94.4 Z" data-name="Casablanca-Settat" fill="#DDD0BB" stroke="#B8A898" stroke-width="1" stroke-linejoin="round" stroke-linecap="round"/>
  <path d="M317.6,166.3 L317.5,165.8 L317.5,165.2 L317.2,164.5 L316.9,164.2 L315.5,163.9 L314.9,163.6 L313.9,163.6 L312.6,163.4 L310.8,163.4 L309.9,163.2 L309.2,163.2 L308.7,163.3 L308.2,163.5 L307.2,163.6 L306.3,163.4 L305.1,163.4 L304.2,163.2 L303.2,162.8 L301.5,162.3 L301.8,162.0 L301.8,161.9 L301.9,161.7 L302.6,161.2 L302.9,160.9 L302.9,160.8 L303.0,160.8 L303.0,160.6 L304.5,159.3 L304.9,159.0 L305.1,159.1 L305.0,158.9 L305.1,158.3 L305.0,158.3 L304.9,158.4 L304.9,158.4 L305.5,157.6 L305.5,156.9 L305.7,156.6 L305.7,156.4 L305.9,156.1 L305.8,155.8 L306.0,155.6 L306.7,155.0 L306.9,154.6 L307.5,154.1 L307.8,153.7 L308.1,153.4 L308.1,153.2 L308.1,153.2 L308.2,152.8 L308.4,152.5 L308.4,152.1 L308.4,151.9 L308.5,151.8 L308.5,151.6 L308.4,151.3 L308.2,151.2 L308.1,151.0 L308.1,150.9 L308.0,150.8 L307.9,150.5 L308.2,150.3 L308.3,149.8 L308.5,149.7 L308.7,149.0 L308.8,148.7 L308.6,148.5 L308.4,148.3 L308.3,148.2 L308.4,148.2 L308.6,148.4 L308.7,148.4 L308.7,148.3 L308.6,148.3 L308.6,148.3 L308.6,148.2 L308.5,148.2 L308.6,148.1 L308.5,147.9 L308.4,147.9 L308.1,147.9 L307.8,147.7 L307.4,147.5 L307.3,147.2 L307.3,146.9 L307.2,146.7 L307.2,146.6 L307.0,146.4 L307.0,146.2 L307.2,145.7 L307.5,145.4 L308.1,144.9 L308.3,144.6 L308.4,144.4 L308.6,144.2 L308.6,144.1 L308.7,143.7 L309.0,143.2 L309.0,143.0 L309.2,142.7 L309.2,142.2 L309.3,141.9 L309.2,141.8 L308.9,141.6 L308.6,141.2 L308.2,141.0 L308.1,140.9 L308.0,140.6 L307.7,140.4 L307.7,139.9 L307.4,139.7 L307.2,139.5 L307.2,139.4 L308.2,138.7 L308.3,138.7 L308.3,138.6 L308.7,138.5 L308.8,138.3 L309.2,138.1 L309.7,137.6 L310.2,137.3 L310.9,136.7 L311.3,136.5 L311.9,136.0 L312.5,135.5 L313.0,135.1 L313.0,135.1 L313.5,134.8 L313.9,134.4 L313.9,134.4 L315.3,133.2 L316.1,132.1 L316.2,132.2 L316.3,132.1 L316.4,132.0 L316.3,132.1 L316.2,132.0 L316.5,131.8 L316.6,131.8 L316.5,131.9 L316.5,132.0 L316.6,132.1 L316.9,131.8 L317.0,131.6 L316.9,131.6 L316.9,131.7 L316.8,131.7 L316.6,131.8 L316.6,131.7 L318.2,130.5 L319.4,129.7 L320.2,129.1 L320.4,129.0 L320.9,128.7 L321.0,128.7 L321.7,128.1 L321.9,128.0 L322.0,127.7 L322.3,127.5 L322.5,127.4 L322.6,127.2 L322.9,126.9 L323.1,126.7 L323.2,126.7 L323.8,126.1 L324.6,125.5 L326.1,124.1 L326.5,123.7 L326.4,123.6 L326.3,123.8 L326.3,123.7 L326.4,123.7 L326.6,123.4 L326.5,123.5 L327.4,122.8 L327.4,122.8 L327.5,122.9 L327.8,122.8 L327.9,122.8 L328.0,122.5 L328.0,122.5 L328.0,122.2 L328.2,122.3 L328.3,122.3 L328.2,122.2 L328.0,122.2 L327.9,122.3 L328.0,122.5 L327.8,122.6 L327.5,122.6 L327.4,122.7 L327.3,122.7 L327.8,122.2 L327.9,121.9 L328.4,121.7 L328.3,121.7 L328.4,121.7 L328.7,121.5 L328.8,121.3 L328.7,121.4 L328.7,121.3 L328.9,121.1 L329.0,121.1 L328.9,121.2 L328.9,121.2 L329.0,121.1 L329.1,121.2 L329.0,121.1 L329.3,120.9 L329.4,120.9 L329.5,120.8 L329.6,120.6 L329.6,120.5 L329.5,120.5 L329.5,120.5 L329.5,120.7 L329.4,120.7 L329.4,120.8 L329.3,120.8 L329.3,120.8 L329.4,120.8 L329.5,120.6 L329.3,120.6 L329.3,120.7 L329.2,120.8 L329.1,120.9 L329.2,120.8 L329.3,120.7 L329.3,120.6 L329.4,120.5 L329.4,120.4 L329.6,120.3 L329.6,120.4 L329.7,120.4 L329.8,120.2 L330.0,120.0 L330.1,119.9 L330.0,119.7 L330.3,119.4 L330.4,119.4 L330.3,119.4 L330.4,119.3 L330.5,119.3 L330.5,119.3 L330.6,119.2 L330.7,119.2 L330.9,119.0 L330.9,118.9 L331.1,118.7 L331.2,118.5 L331.4,118.5 L331.5,118.3 L331.7,118.2 L331.7,118.2 L331.6,118.2 L331.5,118.2 L331.9,117.8 L331.9,117.7 L331.9,117.7 L332.0,117.7 L331.9,117.8 L332.0,117.8 L332.3,117.5 L332.4,117.3 L332.0,117.1 L332.4,117.2 L332.4,117.1 L332.2,117.1 L332.2,117.0 L332.4,117.1 L332.4,117.1 L332.3,117.0 L332.4,117.0 L332.3,116.9 L332.4,116.9 L332.4,117.0 L332.4,117.0 L332.5,117.0 L332.5,117.0 L332.4,116.9 L332.7,116.9 L332.6,116.8 L332.6,116.7 L332.6,116.7 L332.3,116.7 L332.1,116.8 L331.7,117.2 L331.8,117.1 L332.2,116.7 L332.5,116.6 L332.7,116.7 L332.9,116.5 L332.9,116.4 L332.5,116.0 L332.5,115.8 L332.3,115.7 L332.4,115.5 L332.4,115.4 L332.5,115.4 L332.4,115.3 L332.5,115.3 L332.7,115.2 L332.6,115.1 L332.7,115.1 L332.8,115.0 L332.9,115.0 L333.0,114.9 L333.1,114.6 L333.2,114.6 L333.3,114.6 L333.4,114.6 L333.4,114.5 L333.5,114.5 L333.5,114.4 L333.6,114.3 L333.8,114.2 L333.8,114.0 L333.9,113.9 L334.1,113.9 L334.2,113.7 L334.5,113.5 L334.9,113.5 L335.0,113.4 L335.1,113.3 L335.2,113.1 L335.0,113.0 L335.1,112.9 L335.3,112.8 L335.5,112.4 L335.7,112.4 L335.8,112.3 L336.6,111.8 L336.6,111.9 L336.9,111.6 L336.9,111.7 L337.2,111.7 L337.3,112.0 L337.4,112.0 L337.3,112.0 L337.3,112.1 L337.3,112.1 L337.4,112.1 L337.2,112.2 L337.4,112.3 L337.4,112.4 L337.5,112.4 L337.7,112.5 L337.9,112.5 L337.9,112.5 L338.3,112.5 L338.8,112.5 L339.3,112.3 L340.3,111.8 L341.2,111.3 L341.8,110.9 L342.1,110.6 L342.6,110.3 L342.9,110.0 L343.3,109.7 L343.5,109.7 L343.6,109.5 L343.6,109.5 L343.7,109.3 L344.1,108.9 L344.5,108.2 L344.8,107.9 L345.0,107.8 L345.9,107.8 L346.2,107.6 L346.4,107.5 L346.7,107.5 L347.1,107.3 L347.8,107.3 L348.2,107.2 L349.2,106.7 L349.5,106.4 L349.6,106.4 L349.6,106.5 L349.9,106.5 L350.1,106.3 L350.6,106.3 L350.7,106.2 L351.4,106.1 L352.2,105.7 L352.6,105.6 L352.9,105.4 L353.9,105.1 L354.1,105.0 L354.4,105.0 L354.5,104.9 L354.8,104.7 L355.7,104.5 L356.1,104.3 L356.6,105.1 L357.2,105.6 L357.6,106.0 L357.8,106.3 L357.8,106.6 L358.0,106.8 L358.3,106.9 L358.2,107.2 L358.0,107.5 L357.6,107.8 L357.5,108.0 L357.8,108.3 L358.1,108.4 L358.1,108.6 L358.1,108.7 L357.8,108.9 L357.2,109.1 L357.0,109.3 L357.3,109.6 L357.7,109.5 L357.8,109.6 L357.7,110.0 L357.9,110.3 L358.3,110.5 L358.9,110.5 L359.0,110.6 L358.7,111.1 L358.2,111.4 L357.8,112.0 L356.4,112.4 L356.2,112.6 L356.3,112.7 L357.0,112.7 L357.1,112.9 L357.0,113.1 L356.7,113.3 L356.5,113.6 L355.1,113.7 L354.9,113.6 L354.6,113.5 L354.2,113.5 L353.9,113.7 L353.5,113.8 L353.4,113.9 L353.4,114.3 L353.3,114.7 L352.9,115.1 L352.7,115.7 L352.5,115.8 L351.8,115.8 L351.7,116.1 L352.2,116.5 L352.2,116.8 L352.4,116.9 L352.6,116.6 L353.2,116.7 L353.3,117.1 L353.3,117.4 L353.6,117.7 L354.3,118.0 L353.9,118.6 L354.2,118.7 L354.6,118.6 L354.9,118.4 L355.1,118.6 L355.1,118.9 L354.7,119.7 L354.9,119.9 L354.8,120.4 L354.9,120.7 L355.5,121.1 L355.5,121.4 L354.9,121.4 L354.7,121.6 L355.2,122.0 L355.3,122.2 L355.2,122.3 L354.9,122.4 L354.7,122.7 L354.8,123.1 L354.7,123.2 L354.4,123.3 L354.2,123.5 L354.4,123.7 L354.9,123.8 L355.1,124.2 L355.1,124.3 L354.5,124.2 L354.3,124.3 L354.3,124.5 L355.2,124.9 L355.3,125.2 L355.2,125.4 L354.9,125.5 L354.9,125.7 L355.0,126.1 L355.0,126.4 L354.8,126.6 L355.0,126.8 L355.5,126.9 L355.6,127.1 L355.5,127.2 L355.3,127.4 L354.7,127.6 L354.5,127.8 L355.2,127.9 L355.6,127.8 L356.4,127.2 L356.6,127.2 L357.1,127.4 L357.4,127.5 L357.2,127.7 L356.6,127.9 L356.5,128.3 L357.4,128.3 L357.4,128.4 L356.9,128.7 L356.8,128.9 L356.0,129.2 L355.1,130.0 L355.1,130.4 L354.9,131.0 L355.3,131.6 L355.4,131.9 L355.0,132.3 L355.1,132.5 L355.0,132.9 L353.6,133.8 L353.9,134.2 L353.6,134.8 L354.1,135.5 L354.7,136.2 L354.9,137.2 L354.7,138.3 L354.4,138.5 L354.0,138.3 L353.3,138.9 L352.6,139.9 L351.7,140.5 L351.1,141.2 L350.6,141.4 L350.0,141.7 L349.4,142.2 L348.9,142.3 L348.0,142.1 L347.1,142.2 L346.4,142.7 L346.5,144.0 L346.2,144.3 L344.6,144.3 L343.4,144.7 L343.3,145.1 L343.0,145.5 L342.6,145.8 L341.7,146.1 L339.7,146.6 L339.6,147.6 L339.4,147.9 L339.5,148.7 L340.0,149.6 L340.7,151.1 L342.3,153.0 L343.1,153.8 L343.9,154.2 L345.2,154.4 L345.9,154.7 L347.5,155.5 L349.1,156.6 L349.2,157.2 L349.2,157.6 L349.2,157.9 L348.7,157.3 L348.0,157.2 L347.9,157.6 L348.1,158.2 L347.9,158.9 L347.4,159.1 L347.0,159.3 L346.4,159.6 L345.7,160.1 L344.8,160.9 L343.9,162.1 L343.3,163.0 L343.1,164.3 L342.7,164.7 L342.2,165.3 L342.0,165.9 L341.3,166.5 L340.7,167.2 L340.2,167.8 L340.2,168.2 L340.6,168.9 L340.9,169.8 L341.6,169.9 L342.2,170.8 L342.8,171.2 L342.8,171.4 L341.7,171.7 L341.2,171.6 L340.5,171.2 L339.9,170.9 L339.3,171.0 L338.7,171.3 L338.1,171.5 L337.1,171.9 L335.1,171.3 L334.4,170.3 L333.7,169.9 L333.3,169.7 L332.4,169.7 L331.6,170.0 L330.8,170.1 L330.1,170.1 L329.4,170.4 L329.2,170.4 L328.5,170.0 L328.0,170.1 L327.5,170.4 L327.2,170.9 L326.9,171.0 L326.5,170.5 L326.4,170.5 L326.0,171.2 L325.6,171.1 L325.0,170.5 L324.4,170.4 L324.2,170.1 L323.9,170.1 L323.2,170.5 L322.7,170.1 L322.7,169.4 L322.4,169.2 L322.0,169.3 L321.6,169.1 L321.1,169.0 L320.4,169.0 L320.2,168.4 L318.8,167.7 L318.1,167.3 L317.6,166.3 Z M327.7,122.7 L327.8,122.7 L327.8,122.7 L327.8,122.8 L327.7,122.8 L327.7,122.7 Z M329.7,120.1 L329.6,120.2 L329.6,120.2 L329.7,120.0 L329.7,120.1 Z M309.6,205.1 L309.1,205.0 L308.6,205.2 L308.4,205.5 L307.9,205.7 L307.1,205.7 L305.8,205.5 L304.9,204.8 L303.2,205.0 L302.4,205.0 L301.7,205.4 L301.2,205.5 L300.6,205.6 L299.9,205.2 L299.3,204.9 L298.4,204.9 L298.0,204.7 L297.9,204.5 L298.1,203.6 L298.0,203.3 L297.7,203.3 L297.1,204.0 L296.3,205.1 L295.8,205.4 L295.2,205.5 L293.3,204.8 L292.4,205.0 L291.6,205.1 L290.3,205.0 L290.5,204.8 L290.2,204.4 L290.0,203.7 L289.6,202.8 L288.5,201.7 L287.3,200.7 L286.8,200.4 L286.7,200.3 L286.7,200.2 L286.6,200.1 L286.6,199.9 L286.5,199.8 L286.5,199.8 L286.6,199.2 L286.8,198.9 L287.0,198.7 L287.2,198.3 L287.1,198.2 L287.2,198.2 L287.2,198.0 L287.0,197.8 L287.0,197.7 L286.8,197.4 L286.9,197.1 L286.8,197.0 L286.8,196.9 L286.9,196.7 L286.8,196.4 L286.5,196.2 L286.5,196.1 L286.7,195.9 L286.9,195.5 L286.9,194.9 L286.7,194.8 L286.5,194.7 L286.4,194.6 L286.0,194.6 L285.9,194.5 L286.0,194.0 L286.1,193.9 L286.1,193.8 L286.2,193.7 L286.0,193.2 L286.0,193.0 L286.1,192.7 L286.4,192.4 L286.3,192.3 L286.3,192.0 L286.6,191.9 L286.9,191.3 L286.8,191.2 L286.9,191.1 L286.9,191.0 L286.9,190.9 L286.7,190.8 L286.6,190.4 L286.7,190.2 L286.8,190.2 L286.7,190.0 L286.9,189.8 L286.7,189.5 L286.7,189.3 L286.8,189.2 L286.8,189.1 L287.0,188.9 L287.0,188.7 L287.1,188.7 L287.1,188.6 L287.2,188.5 L287.2,188.3 L287.4,188.2 L287.6,187.6 L287.7,187.4 L287.5,187.2 L287.6,187.2 L287.6,186.9 L287.7,186.9 L287.6,186.8 L287.8,186.1 L287.7,185.9 L287.6,185.8 L287.6,185.7 L287.6,185.4 L287.6,184.9 L287.5,184.8 L287.5,184.5 L287.4,184.5 L287.4,184.3 L287.2,184.3 L287.3,184.1 L287.2,184.0 L286.9,183.7 L286.2,183.7 L285.9,183.6 L286.0,183.1 L286.2,182.9 L286.2,182.6 L286.5,182.3 L286.8,182.1 L287.5,181.4 L288.1,180.7 L288.0,180.6 L288.4,180.2 L288.5,179.8 L288.6,179.7 L288.7,179.9 L288.7,179.6 L288.9,179.3 L288.8,179.0 L288.7,178.9 L288.6,178.9 L288.5,179.0 L288.5,179.0 L288.5,178.9 L288.4,179.0 L288.3,179.0 L288.2,178.9 L288.5,178.7 L288.5,178.8 L288.6,178.6 L288.7,178.7 L288.8,178.6 L289.1,178.3 L289.2,178.2 L289.3,178.2 L289.4,178.1 L289.5,178.1 L289.9,177.8 L290.6,176.9 L291.6,175.6 L291.7,175.5 L291.7,175.4 L291.8,175.4 L291.8,175.1 L291.9,174.9 L292.0,174.8 L292.3,174.1 L292.2,173.9 L292.2,173.6 L292.2,173.6 L292.2,173.4 L292.1,173.1 L292.3,172.0 L292.2,172.0 L292.1,172.1 L292.2,171.7 L292.1,171.6 L292.3,171.6 L292.4,171.5 L292.6,171.4 L293.2,170.9 L293.4,170.8 L293.7,170.5 L293.8,170.5 L293.8,170.4 L294.2,170.0 L294.5,169.6 L294.9,169.2 L294.9,168.9 L295.1,168.9 L295.1,168.8 L295.5,168.5 L295.7,168.1 L295.7,168.0 L296.2,167.6 L296.4,167.4 L296.4,167.4 L296.6,167.2 L296.8,167.2 L296.9,167.0 L296.9,166.9 L297.0,166.9 L297.1,166.7 L297.3,166.6 L297.5,166.3 L297.6,166.3 L297.9,166.0 L298.0,165.9 L298.0,165.6 L298.2,165.4 L298.5,165.2 L298.5,165.2 L298.6,165.1 L298.9,165.0 L299.0,164.7 L299.2,164.6 L299.3,164.5 L299.6,164.1 L300.0,163.8 L300.1,163.7 L300.1,163.5 L300.2,163.5 L300.5,163.1 L300.8,162.9 L301.4,162.3 L303.2,162.8 L304.2,163.2 L305.1,163.4 L306.3,163.4 L307.2,163.6 L308.2,163.5 L308.7,163.3 L309.2,163.2 L309.9,163.2 L310.8,163.4 L312.6,163.4 L313.9,163.6 L314.9,163.6 L315.5,163.9 L316.9,164.2 L317.2,164.5 L317.5,165.2 L317.5,165.8 L317.6,166.3 L318.1,167.3 L318.8,167.7 L320.2,168.4 L320.4,169.0 L321.1,169.0 L321.6,169.1 L322.0,169.3 L322.4,169.2 L322.7,169.4 L322.7,170.1 L323.2,170.5 L323.9,170.1 L324.2,170.1 L324.4,170.4 L325.0,170.5 L325.6,171.1 L326.0,171.2 L326.4,170.5 L326.5,170.5 L326.9,171.0 L327.2,170.9 L327.5,170.4 L328.0,170.1 L328.5,170.0 L329.2,170.4 L329.4,170.4 L330.1,170.1 L330.8,170.1 L331.6,170.0 L332.4,169.7 L333.3,169.7 L333.7,169.9 L334.4,170.3 L335.1,171.3 L337.1,171.9 L338.1,171.5 L338.7,171.3 L339.3,171.0 L339.9,170.9 L340.5,171.2 L341.2,171.6 L341.7,171.7 L342.8,171.4 L342.8,171.2 L342.2,170.8 L341.6,169.9 L340.9,169.8 L340.6,168.9 L340.2,168.2 L340.2,167.8 L340.7,167.2 L341.3,166.5 L342.0,165.9 L342.2,165.3 L342.7,164.7 L343.1,164.3 L343.3,163.0 L343.9,162.1 L344.8,160.9 L345.7,160.1 L346.4,159.6 L347.0,159.3 L347.4,159.1 L347.9,158.9 L348.1,158.2 L347.9,157.6 L348.0,157.2 L348.7,157.3 L349.2,157.9 L349.2,157.6 L349.2,157.2 L349.1,156.6 L347.5,155.5 L345.9,154.7 L345.2,154.4 L343.9,154.2 L343.1,153.8 L342.3,153.0 L340.7,151.1 L340.0,149.6 L339.5,148.7 L339.4,147.9 L339.6,147.6 L339.7,146.6 L341.7,146.1 L342.6,145.8 L343.0,145.5 L343.3,145.1 L343.4,144.7 L344.6,144.3 L346.2,144.3 L346.5,144.0 L346.4,142.7 L347.1,142.2 L348.0,142.1 L348.9,142.3 L349.4,142.2 L350.0,141.7 L350.6,141.4 L351.1,141.2 L351.7,140.5 L352.6,139.9 L353.3,138.9 L354.0,138.3 L354.4,138.5 L354.7,138.3 L354.9,137.2 L354.7,136.2 L354.1,135.5 L353.6,134.8 L353.9,134.2 L353.6,133.8 L355.0,132.9 L355.1,132.5 L355.0,132.3 L355.4,131.9 L355.3,131.6 L354.9,131.0 L355.1,130.4 L355.1,130.0 L356.0,129.2 L356.9,128.9 L357.7,129.0 L357.9,129.4 L358.0,129.8 L358.3,130.4 L358.7,131.1 L359.4,131.6 L359.9,132.5 L360.2,133.1 L360.1,133.4 L363.0,134.2 L363.7,134.3 L364.7,135.1 L365.3,135.2 L366.0,135.3 L366.6,135.6 L367.1,136.2 L367.5,137.2 L367.9,137.7 L368.1,138.4 L368.5,138.9 L369.6,139.2 L370.1,140.0 L370.5,140.6 L371.1,142.2 L372.2,143.7 L372.6,143.7 L372.9,143.3 L373.2,143.3 L373.7,143.7 L375.0,143.6 L375.5,143.3 L376.3,143.0 L376.8,142.7 L376.8,142.4 L376.7,142.0 L377.1,141.8 L377.6,142.1 L378.0,142.1 L378.7,141.6 L379.6,141.7 L380.3,141.7 L381.1,141.5 L381.7,141.5 L382.0,141.8 L383.1,143.3 L383.4,143.5 L385.3,143.6 L385.8,143.8 L386.6,144.3 L387.1,144.8 L388.3,145.1 L388.6,145.7 L389.0,146.0 L390.4,146.1 L390.9,146.4 L391.1,147.1 L391.1,148.1 L391.1,148.9 L390.7,150.1 L390.8,150.6 L391.1,151.5 L391.3,152.3 L391.5,153.1 L391.1,154.5 L391.1,155.1 L391.3,155.9 L391.5,157.8 L392.1,158.8 L392.6,159.4 L393.3,159.8 L393.9,159.9 L394.2,160.6 L394.4,161.3 L393.7,161.9 L393.5,162.2 L393.4,162.7 L393.8,163.2 L393.7,163.9 L393.9,164.3 L394.4,164.5 L395.6,165.9 L395.3,166.3 L394.7,166.3 L394.5,166.4 L394.3,167.0 L394.3,167.7 L394.7,168.3 L394.3,168.7 L394.0,168.9 L393.4,168.7 L392.2,168.6 L391.4,168.9 L390.5,169.0 L389.7,169.1 L389.3,168.8 L388.2,168.4 L387.2,168.3 L386.3,168.5 L385.2,169.1 L384.5,169.8 L384.5,171.0 L384.5,172.2 L384.9,172.8 L386.1,173.3 L386.4,173.6 L386.4,174.5 L386.2,175.0 L386.9,175.3 L387.3,175.1 L387.9,175.0 L388.3,175.0 L389.3,174.8 L390.0,174.9 L390.2,175.6 L390.1,176.8 L389.9,177.7 L389.3,178.6 L388.9,179.8 L388.7,180.9 L388.8,182.1 L389.2,183.1 L388.2,183.3 L387.0,183.7 L386.0,184.3 L384.4,186.3 L384.0,186.7 L382.8,186.9 L381.4,187.2 L377.9,187.3 L376.0,188.1 L374.9,189.2 L372.9,190.9 L371.9,191.5 L371.1,191.7 L370.4,191.8 L369.2,191.8 L368.2,191.8 L366.7,192.3 L366.0,192.7 L364.9,193.4 L362.9,195.3 L361.9,195.8 L360.1,196.5 L360.0,196.8 L360.3,197.3 L360.3,197.8 L360.0,198.3 L358.8,199.1 L357.5,200.1 L356.8,200.7 L354.7,201.9 L354.2,202.0 L353.7,201.9 L353.7,201.6 L353.8,201.0 L353.9,200.7 L353.4,200.5 L353.2,200.2 L352.7,199.8 L351.6,200.3 L349.4,201.1 L348.1,201.4 L346.1,201.8 L344.1,202.0 L342.3,201.6 L341.5,201.8 L340.7,202.3 L340.2,202.9 L339.3,203.0 L337.8,203.0 L335.3,202.7 L334.0,202.8 L332.9,203.0 L332.1,203.5 L331.5,204.1 L330.7,204.3 L330.2,204.2 L329.6,202.9 L329.2,201.1 L328.4,200.5 L326.9,200.1 L326.8,199.6 L326.5,199.3 L325.9,199.2 L325.1,199.2 L324.4,200.0 L323.6,200.8 L322.5,201.4 L321.1,202.0 L319.9,202.2 L318.3,203.0 L318.0,203.4 L317.6,203.8 L317.4,204.3 L317.0,204.6 L316.5,204.7 L314.9,204.4 L313.0,204.2 L312.5,204.3 L311.7,204.6 L311.0,205.0 L310.3,205.1 L309.6,205.1 Z M288.2,179.4 L288.1,179.6 L288.0,179.6 L287.8,179.5 L287.9,179.4 L287.8,179.4 L287.9,179.4 L287.9,179.3 L288.1,179.3 L288.1,179.2 L288.2,179.2 L288.2,179.4 Z" data-name="Marrakech-Safi" fill="#DDD0BB" stroke="#B8A898" stroke-width="1" stroke-linejoin="round" stroke-linecap="round"/>
  <path d="M517.0,122.2 L515.0,124.8 L514.6,125.6 L514.3,126.2 L513.3,127.8 L511.6,130.2 L510.3,131.4 L509.4,132.3 L509.2,132.8 L508.7,133.5 L507.6,134.8 L507.3,135.1 L507.3,135.4 L507.5,135.7 L506.1,136.2 L505.0,136.3 L502.2,136.2 L500.7,135.9 L499.6,136.1 L498.7,135.8 L498.4,135.4 L498.5,134.1 L498.3,132.7 L497.2,131.7 L494.8,129.7 L493.2,128.8 L492.3,127.1 L491.7,126.5 L491.1,126.2 L489.8,126.0 L487.4,126.1 L486.1,126.5 L484.8,126.4 L483.9,126.6 L482.2,126.0 L480.7,125.0 L480.3,124.3 L480.4,123.4 L480.9,122.7 L481.0,122.0 L480.8,121.6 L478.9,119.8 L478.0,119.3 L477.5,118.6 L476.0,114.9 L475.8,114.1 L475.5,113.3 L474.1,110.7 L472.7,109.7 L471.8,108.9 L471.1,107.7 L470.9,107.0 L471.2,106.3 L472.2,105.3 L473.9,103.0 L474.7,102.2 L475.1,101.6 L475.4,100.7 L475.4,99.9 L475.2,99.5 L474.5,98.9 L473.5,98.0 L472.4,97.1 L471.4,96.5 L470.3,96.3 L467.7,96.1 L466.8,95.7 L466.4,94.9 L466.4,94.1 L467.6,91.2 L468.1,90.2 L468.1,89.1 L467.9,88.3 L467.3,87.3 L466.6,86.6 L465.7,86.2 L465.5,85.4 L465.3,84.5 L464.9,83.6 L463.9,83.3 L462.7,83.0 L461.5,83.1 L460.9,82.5 L460.7,81.7 L460.3,81.2 L459.8,80.9 L458.8,80.7 L457.6,81.2 L457.0,81.1 L456.7,80.3 L456.6,79.2 L456.8,76.7 L456.6,75.0 L456.2,73.7 L455.8,73.3 L455.3,72.6 L454.8,72.1 L454.6,71.5 L454.7,71.2 L455.7,71.9 L456.4,72.6 L456.8,72.5 L457.3,72.2 L457.7,72.2 L458.1,72.3 L458.2,72.9 L458.4,72.9 L459.1,72.7 L459.6,72.6 L460.2,72.4 L460.8,72.4 L461.4,72.3 L461.8,72.1 L462.0,72.1 L462.7,72.3 L463.0,72.2 L463.2,71.8 L463.5,71.6 L464.1,71.4 L464.4,71.3 L465.1,71.1 L465.6,71.1 L466.1,71.4 L466.4,71.2 L466.9,71.4 L467.3,71.7 L467.4,72.1 L467.3,72.3 L467.7,72.4 L468.1,72.3 L468.5,71.8 L468.8,71.7 L469.3,71.7 L469.2,72.0 L469.0,72.1 L469.1,72.4 L469.5,72.4 L469.7,71.9 L470.0,71.8 L471.1,72.0 L471.5,71.8 L472.1,72.1 L472.6,72.0 L473.2,72.1 L473.5,72.3 L473.6,72.7 L473.4,73.0 L473.0,73.2 L473.3,73.6 L474.0,73.4 L474.7,72.8 L475.1,72.9 L475.2,73.2 L475.8,73.5 L475.8,73.7 L474.8,73.8 L474.7,74.1 L475.2,74.3 L475.3,74.5 L475.4,75.2 L475.5,75.3 L476.4,75.2 L476.8,75.1 L477.2,75.1 L478.1,74.7 L478.7,74.9 L478.9,75.4 L478.8,75.9 L478.7,76.3 L478.7,76.6 L479.0,76.7 L479.3,76.7 L480.0,76.4 L480.2,76.4 L480.3,76.6 L480.3,77.0 L480.5,77.5 L480.3,77.6 L480.3,77.9 L480.3,78.2 L480.6,78.5 L481.1,79.1 L481.2,79.6 L481.8,79.7 L482.6,79.8 L483.0,80.2 L483.6,80.3 L484.5,80.3 L484.9,80.5 L485.6,81.0 L486.0,81.1 L487.0,81.0 L487.5,81.4 L487.4,81.9 L488.2,82.8 L488.3,83.3 L488.3,83.8 L488.2,84.5 L488.3,86.0 L488.9,86.6 L489.4,86.9 L490.8,87.4 L491.6,87.5 L492.1,87.6 L493.5,88.5 L494.1,88.6 L494.5,88.5 L494.7,88.3 L495.0,88.0 L495.7,87.7 L496.2,87.3 L496.8,86.9 L497.8,86.9 L498.8,87.6 L499.9,87.6 L500.1,87.8 L500.4,89.1 L500.6,89.5 L501.2,89.5 L501.7,89.9 L504.2,89.8 L504.6,90.0 L504.6,90.2 L503.3,90.6 L502.6,91.1 L502.3,91.5 L502.1,92.0 L501.7,92.3 L501.7,93.3 L501.4,94.0 L501.5,95.0 L501.8,95.4 L502.4,96.1 L502.6,96.4 L503.5,95.9 L503.9,95.6 L504.7,95.6 L505.4,95.6 L506.1,95.8 L506.4,96.1 L506.3,96.7 L506.0,97.3 L505.2,98.1 L505.0,98.4 L505.2,98.8 L505.9,99.3 L506.2,99.8 L506.5,100.1 L507.6,100.0 L508.6,100.0 L509.7,100.0 L510.6,99.8 L511.9,99.0 L513.4,98.5 L514.3,98.3 L515.1,97.9 L515.6,97.2 L515.9,96.8 L516.3,96.6 L516.4,95.7 L516.5,95.4 L517.2,95.2 L517.9,94.7 L518.7,93.9 L519.3,93.4 L519.6,92.8 L521.1,92.4 L521.9,91.9 L522.6,91.4 L523.2,90.5 L524.1,89.3 L524.6,88.2 L525.1,88.0 L525.6,87.8 L525.9,87.3 L526.2,86.4 L526.7,86.3 L527.2,86.3 L527.5,86.8 L527.7,87.0 L528.8,87.4 L529.1,87.8 L529.3,87.9 L530.0,88.0 L531.0,89.0 L531.7,89.8 L532.3,90.0 L534.8,90.4 L535.6,90.6 L536.5,91.0 L537.6,91.7 L538.4,92.3 L539.0,92.5 L539.8,92.8 L541.9,93.2 L543.3,93.3 L543.2,93.9 L543.0,94.6 L542.5,95.8 L541.9,96.4 L541.4,97.2 L540.4,98.0 L538.9,99.5 L538.5,100.1 L537.9,101.3 L537.9,102.1 L538.0,102.6 L538.3,103.0 L538.7,103.3 L540.3,104.1 L541.1,104.6 L542.6,105.6 L543.8,106.7 L544.3,107.2 L544.9,108.3 L545.4,108.8 L547.4,110.7 L548.4,111.9 L549.0,113.2 L548.7,114.7 L547.8,115.8 L546.8,116.2 L545.4,116.5 L544.6,116.6 L543.7,116.8 L541.7,117.5 L539.4,118.3 L538.3,118.5 L537.1,118.7 L534.3,118.8 L530.7,118.3 L529.3,118.3 L526.7,118.2 L525.6,118.4 L524.7,118.3 L522.5,118.5 L521.9,118.7 L521.0,119.2 L520.0,119.7 L518.5,120.8 L517.0,122.2 Z" data-name="Fès-Meknès" fill="#DDD0BB" stroke="#B8A898" stroke-width="1" stroke-linejoin="round" stroke-linecap="round"/>
  <path d="M452.6,77.5 L452.8,77.8 L452.5,78.0 L451.9,78.1 L451.1,78.1 L450.5,78.3 L449.0,79.9 L448.4,79.7 L448.1,79.1 L448.4,78.5 L448.2,77.8 L447.6,77.4 L445.3,77.1 L444.6,77.1 L443.9,77.3 L443.1,77.1 L442.8,76.5 L443.5,75.6 L443.7,75.2 L443.2,74.7 L442.3,74.7 L441.8,74.6 L441.3,74.0 L440.0,73.9 L438.6,74.7 L438.7,75.7 L438.2,76.2 L437.7,76.4 L436.3,76.6 L435.9,76.9 L435.9,77.4 L436.3,77.8 L437.1,77.7 L437.5,77.9 L437.9,78.7 L438.2,79.9 L436.1,79.9 L435.3,79.7 L434.2,79.4 L432.6,79.4 L431.8,79.1 L429.8,78.5 L429.0,78.3 L428.2,78.2 L426.4,77.7 L425.6,77.6 L424.6,77.5 L423.5,77.6 L420.7,77.8 L419.8,78.0 L418.9,78.0 L417.7,77.9 L417.0,77.7 L416.4,77.4 L415.6,77.3 L415.0,77.3 L414.3,77.4 L413.4,77.8 L412.1,78.3 L411.5,78.6 L411.1,78.3 L410.0,78.4 L409.5,78.3 L408.8,78.0 L408.3,77.6 L408.1,77.1 L407.7,77.0 L407.1,77.0 L406.5,77.3 L406.2,77.2 L405.7,76.4 L406.3,75.3 L407.0,73.8 L407.0,73.6 L406.7,73.5 L407.0,73.6 L407.5,73.6 L407.7,73.4 L408.1,73.2 L408.1,73.2 L408.0,73.3 L407.9,73.2 L407.8,73.2 L407.6,73.3 L407.2,73.5 L406.8,73.4 L406.8,73.3 L407.1,73.4 L408.1,72.0 L408.3,71.8 L408.4,71.5 L408.8,71.0 L408.9,71.0 L408.9,70.8 L411.5,67.5 L412.9,65.6 L413.2,65.1 L413.3,64.8 L413.9,64.0 L413.9,63.9 L414.0,63.7 L414.9,62.3 L417.2,58.3 L418.0,56.9 L418.2,56.5 L419.1,54.8 L419.2,54.5 L419.6,53.8 L419.6,53.6 L419.8,53.4 L419.9,53.1 L420.2,52.6 L421.4,50.3 L421.8,50.2 L422.0,50.4 L422.2,50.4 L422.1,50.5 L422.0,50.5 L422.1,50.7 L422.0,50.7 L421.8,51.3 L421.6,51.3 L421.7,51.5 L421.8,51.5 L421.7,51.7 L421.9,51.6 L422.0,51.6 L422.5,52.0 L422.6,51.9 L422.6,52.0 L422.7,52.1 L422.7,52.2 L422.7,52.2 L423.0,51.9 L423.1,51.8 L423.1,51.6 L423.4,51.6 L423.4,51.5 L423.5,51.4 L423.5,51.3 L423.5,51.1 L423.4,51.0 L423.4,50.7 L423.3,50.7 L423.1,50.6 L422.6,50.5 L422.5,50.3 L422.2,50.3 L422.1,50.3 L421.9,50.1 L421.7,50.2 L421.6,50.1 L421.6,49.7 L421.9,49.3 L422.1,48.6 L422.5,47.9 L422.6,47.5 L423.4,45.8 L424.5,45.8 L427.0,46.1 L428.2,46.1 L429.6,46.0 L430.6,46.2 L434.9,46.8 L437.2,47.5 L437.9,47.6 L439.3,47.6 L439.7,47.9 L440.2,48.5 L440.8,48.6 L441.5,48.5 L441.9,48.7 L442.6,49.4 L443.6,49.6 L444.1,49.9 L444.9,50.8 L445.4,51.6 L445.7,51.8 L446.1,52.0 L446.7,52.0 L447.7,51.9 L448.1,52.0 L448.4,52.2 L449.0,52.1 L449.4,52.0 L450.2,51.4 L450.5,51.5 L450.9,51.8 L451.1,52.1 L452.2,52.6 L452.4,52.9 L452.7,53.4 L453.0,53.9 L453.7,54.6 L454.1,54.9 L454.4,55.1 L455.6,55.5 L457.6,55.8 L458.7,56.2 L459.7,56.2 L460.6,55.8 L461.3,55.7 L462.2,55.3 L462.5,55.1 L463.0,55.1 L465.0,55.6 L465.6,55.7 L465.2,56.9 L465.2,58.3 L464.9,59.4 L464.6,60.4 L464.6,60.8 L465.2,61.1 L465.0,61.6 L464.6,62.0 L463.5,61.8 L462.9,61.9 L462.3,62.2 L462.1,63.0 L461.6,63.3 L461.0,63.7 L460.1,63.8 L459.6,64.0 L459.3,64.4 L459.3,65.3 L458.8,65.7 L458.1,65.7 L457.7,65.9 L457.1,66.8 L454.6,68.1 L452.8,68.5 L452.5,69.0 L453.1,69.5 L453.3,69.7 L452.9,70.2 L453.1,70.8 L453.6,70.9 L454.4,70.5 L454.9,70.7 L454.6,71.5 L454.8,72.1 L455.3,72.6 L455.8,73.3 L455.3,73.7 L454.6,73.6 L454.2,73.7 L454.2,74.7 L454.0,75.2 L453.2,76.0 L452.3,76.4 L452.0,76.9 L452.6,77.5 Z M423.1,51.1 L423.0,51.1 L422.9,51.1 L423.1,51.1 L423.1,51.1 Z M422.3,50.5 L422.4,50.5 L422.4,50.6 L422.1,50.6 L422.2,50.5 L422.3,50.4 L422.3,50.5 Z M433.9,110.4 L433.1,111.3 L432.4,111.9 L431.6,112.2 L430.8,112.1 L430.4,111.6 L429.7,111.4 L428.9,111.5 L428.3,110.8 L428.2,109.0 L427.9,108.6 L427.9,107.9 L427.6,107.7 L426.6,107.8 L426.2,107.6 L425.8,106.9 L425.2,106.6 L425.0,106.8 L424.7,107.2 L424.1,107.3 L423.0,106.7 L421.9,106.7 L421.1,106.9 L419.6,107.1 L419.0,107.5 L418.5,109.1 L418.9,109.6 L418.5,110.3 L418.1,111.1 L418.8,112.0 L419.1,112.7 L417.6,113.3 L416.9,113.8 L416.1,113.7 L415.3,114.2 L414.5,114.6 L414.0,115.2 L413.5,116.2 L413.0,116.4 L411.3,114.5 L409.8,113.6 L409.0,113.6 L408.3,113.7 L406.8,113.8 L406.0,114.1 L405.2,113.7 L404.1,113.4 L403.8,113.4 L403.4,113.8 L402.8,113.9 L401.8,113.5 L400.6,113.1 L400.9,112.8 L401.1,112.1 L401.1,111.8 L400.7,110.4 L400.7,109.7 L400.8,109.2 L401.1,108.8 L401.8,108.2 L402.0,107.2 L401.7,106.7 L401.2,106.2 L400.7,105.7 L400.2,104.6 L400.2,104.1 L400.2,103.7 L400.4,103.3 L402.6,100.7 L402.9,99.3 L401.9,99.2 L401.4,99.5 L400.5,99.4 L399.0,99.7 L398.6,99.6 L398.2,99.1 L397.5,98.8 L397.3,98.5 L397.2,98.2 L396.7,97.8 L396.0,97.7 L395.3,97.3 L394.7,97.3 L394.7,97.6 L394.1,97.6 L394.1,97.3 L394.5,96.6 L394.2,96.1 L393.8,95.7 L393.7,95.4 L393.4,95.2 L393.3,94.9 L393.4,94.7 L393.3,93.3 L392.9,92.3 L392.3,91.7 L392.0,91.0 L390.3,90.9 L390.0,90.5 L389.8,90.1 L390.0,90.0 L390.0,90.1 L390.1,90.1 L390.1,89.9 L390.3,89.9 L390.5,89.7 L390.5,89.7 L390.7,89.6 L390.8,89.4 L390.9,89.4 L390.9,89.3 L391.0,89.3 L391.1,89.2 L391.4,89.1 L391.4,89.0 L391.5,89.0 L391.6,88.8 L391.7,88.9 L392.0,88.8 L392.1,88.6 L392.2,88.6 L392.2,88.6 L392.0,88.7 L392.0,88.7 L392.0,88.8 L391.7,88.8 L392.2,88.5 L392.3,88.5 L392.3,88.6 L392.6,88.6 L392.7,88.6 L392.7,88.4 L392.9,88.4 L392.7,88.5 L392.7,88.6 L392.9,88.5 L392.9,88.5 L392.9,88.4 L393.0,88.5 L393.0,88.4 L393.2,88.3 L393.4,88.2 L393.5,88.3 L393.6,88.1 L394.0,87.8 L394.2,87.7 L394.3,87.7 L394.6,87.6 L394.6,87.3 L394.7,87.3 L395.1,87.1 L395.0,87.2 L395.3,87.0 L395.4,87.1 L395.5,86.9 L395.4,87.0 L395.3,87.0 L395.4,86.9 L395.5,86.7 L395.6,86.7 L395.6,86.8 L395.7,86.8 L395.9,86.6 L395.8,86.6 L395.9,86.5 L396.0,86.5 L395.9,86.6 L396.1,86.6 L396.1,86.5 L396.1,86.5 L396.3,86.2 L396.4,86.1 L396.5,86.1 L397.0,85.6 L397.4,85.4 L397.6,85.1 L398.0,84.9 L398.1,84.7 L398.7,84.3 L399.0,83.9 L399.0,83.9 L399.3,83.6 L399.3,83.6 L400.3,82.6 L400.6,82.3 L400.8,82.3 L400.8,82.2 L400.9,82.2 L400.9,82.3 L401.0,82.3 L401.0,82.4 L401.1,82.5 L401.8,82.6 L401.7,82.5 L401.3,82.5 L401.2,82.4 L401.2,82.2 L400.9,82.1 L400.9,82.0 L401.0,82.0 L401.7,81.2 L401.9,81.2 L401.9,81.1 L402.1,80.8 L402.1,80.8 L402.2,80.8 L402.9,80.2 L403.2,79.6 L403.4,79.4 L403.9,78.9 L404.0,78.8 L404.0,78.7 L404.1,78.6 L404.2,78.5 L404.4,78.1 L404.7,77.9 L405.0,77.5 L405.5,76.9 L405.7,76.4 L406.2,77.2 L406.5,77.3 L407.1,77.0 L407.7,77.0 L408.1,77.1 L408.3,77.6 L408.8,78.0 L409.5,78.3 L410.0,78.4 L411.1,78.3 L411.5,78.6 L412.1,78.3 L413.4,77.8 L414.3,77.4 L415.0,77.3 L415.6,77.3 L416.4,77.4 L417.0,77.7 L417.7,77.9 L418.9,78.0 L419.8,78.0 L420.7,77.8 L423.5,77.6 L424.6,77.5 L425.6,77.6 L426.4,77.7 L428.2,78.2 L429.0,78.3 L429.8,78.5 L431.8,79.1 L432.6,79.4 L434.2,79.4 L435.3,79.7 L436.1,79.9 L438.2,79.9 L438.3,81.9 L438.8,82.5 L440.6,83.7 L441.3,84.2 L441.7,85.6 L441.4,86.0 L440.1,86.8 L439.6,87.2 L439.6,88.1 L439.8,88.5 L440.1,88.5 L440.6,88.3 L441.0,88.3 L441.2,88.5 L440.8,89.4 L440.9,90.1 L441.2,90.7 L442.2,91.2 L442.6,91.8 L442.7,93.2 L442.2,98.0 L441.4,100.3 L441.0,104.5 L441.2,107.4 L441.8,108.7 L441.7,109.8 L441.0,110.9 L440.1,111.2 L438.2,110.8 L436.1,110.2 L435.3,110.0 L433.9,110.4 Z M392.4,88.4 L392.4,88.5 L392.3,88.5 L392.3,88.3 L392.4,88.4 Z" data-name="Rabat-Salé-Kénitra" fill="#DDD0BB" stroke="#B8A898" stroke-width="1" stroke-linejoin="round" stroke-linecap="round"/>
  <path d="M220.0,319.0 L218.2,316.4 L217.9,315.1 L216.9,313.0 L215.8,311.7 L214.2,310.5 L211.9,305.0 L213.1,304.5 L213.2,304.5 L213.5,304.4 L213.6,304.4 L213.9,304.3 L214.0,304.3 L214.2,304.1 L214.4,304.1 L214.6,303.9 L214.9,303.9 L215.1,303.8 L215.8,303.7 L215.9,303.6 L216.4,303.6 L217.3,303.3 L217.4,303.3 L217.5,303.6 L217.6,303.3 L217.5,303.3 L217.5,303.2 L218.0,303.1 L218.4,302.9 L219.1,302.7 L219.4,302.5 L220.4,302.2 L220.8,302.0 L221.0,302.1 L221.1,302.1 L221.2,302.3 L221.1,302.2 L221.1,302.2 L221.1,302.4 L221.2,302.3 L221.4,302.5 L221.4,302.4 L221.4,302.3 L221.4,302.4 L221.6,302.4 L221.6,302.5 L221.7,302.5 L221.5,302.2 L221.3,302.1 L221.3,302.0 L221.4,302.0 L221.4,301.8 L221.5,301.8 L221.5,301.7 L221.8,301.5 L222.2,301.4 L222.7,300.9 L223.1,300.7 L223.3,300.6 L223.5,300.6 L223.9,300.3 L224.3,299.8 L224.5,299.0 L224.6,298.8 L225.0,298.6 L225.2,298.3 L225.5,298.2 L226.0,297.7 L226.4,297.1 L226.7,296.9 L226.8,296.6 L226.7,296.4 L227.0,296.2 L227.4,296.0 L227.8,295.6 L227.9,295.6 L228.1,295.3 L228.0,295.2 L228.1,295.3 L228.2,295.2 L228.1,295.1 L228.2,294.9 L228.1,294.9 L227.8,295.1 L228.1,294.8 L227.9,294.7 L228.2,294.8 L228.3,294.6 L228.5,294.5 L228.6,294.3 L228.8,294.1 L228.8,294.1 L229.3,293.5 L229.7,293.2 L229.9,292.9 L230.8,292.4 L231.4,291.8 L231.5,291.8 L231.5,291.7 L231.7,291.7 L231.9,291.5 L232.5,290.9 L232.7,290.6 L232.9,290.4 L233.5,289.7 L235.2,288.6 L236.5,287.3 L236.7,287.2 L236.7,287.2 L237.2,287.0 L237.3,286.8 L237.5,286.7 L237.9,286.3 L238.2,285.8 L238.7,285.3 L238.7,284.8 L239.0,284.8 L239.2,284.5 L239.5,284.5 L239.8,284.2 L240.0,284.1 L240.8,283.9 L241.4,283.7 L241.9,283.3 L242.5,283.0 L242.6,282.9 L243.0,282.8 L243.5,282.5 L243.8,282.5 L244.8,282.0 L245.1,281.9 L245.6,281.7 L245.7,281.6 L246.4,281.3 L248.5,280.3 L250.4,279.4 L250.6,279.2 L251.2,279.0 L251.7,278.7 L252.9,278.2 L253.9,277.6 L254.2,277.5 L255.7,276.6 L255.9,276.6 L256.6,276.1 L256.7,276.1 L256.9,276.0 L257.5,275.7 L257.6,275.6 L258.5,275.1 L258.6,275.0 L258.9,274.9 L259.1,274.7 L260.3,273.9 L260.5,273.6 L260.6,273.6 L260.5,273.5 L260.8,273.4 L261.0,273.1 L261.2,273.0 L261.3,272.9 L261.4,272.7 L261.5,272.7 L261.5,272.6 L261.8,272.5 L262.0,272.1 L262.1,272.1 L262.2,271.8 L262.3,271.7 L262.5,271.7 L262.7,271.5 L262.7,271.4 L263.0,271.4 L263.0,271.3 L264.8,272.6 L265.5,272.7 L266.8,272.5 L268.6,272.8 L269.5,272.8 L270.3,272.8 L271.0,272.9 L271.9,272.8 L272.8,272.6 L273.5,272.6 L273.8,272.8 L274.2,273.5 L274.7,273.8 L275.9,273.6 L277.1,272.7 L277.7,272.3 L278.3,271.9 L279.1,271.6 L279.9,271.0 L280.7,270.7 L281.3,270.6 L281.9,270.7 L282.2,270.9 L282.9,271.0 L283.6,270.9 L284.3,270.5 L284.8,270.1 L285.5,268.6 L286.0,267.1 L286.3,266.2 L286.8,265.5 L287.5,265.0 L288.5,264.7 L289.2,264.7 L289.9,264.8 L290.5,265.1 L291.1,265.8 L291.8,267.1 L292.1,267.3 L292.5,267.5 L293.0,267.5 L293.9,267.3 L294.5,267.5 L295.5,267.3 L296.0,267.1 L296.9,267.0 L299.3,265.9 L300.2,265.9 L302.3,265.4 L303.7,264.4 L304.2,263.8 L304.5,263.0 L305.3,262.8 L306.0,262.6 L307.1,263.1 L308.8,263.0 L310.2,263.7 L310.6,264.4 L310.8,265.0 L312.0,266.4 L312.2,267.0 L312.4,266.4 L312.5,265.2 L313.2,263.2 L313.6,261.6 L314.2,260.7 L314.3,260.3 L314.9,259.3 L315.9,258.7 L316.4,258.5 L317.6,258.7 L318.8,258.8 L320.4,258.8 L321.4,258.7 L322.5,258.2 L323.3,258.1 L324.7,257.6 L326.4,257.4 L327.4,257.0 L328.6,256.8 L329.4,256.4 L330.1,256.3 L330.9,256.0 L331.4,255.3 L331.1,254.5 L330.3,254.2 L329.8,253.7 L329.5,253.3 L329.2,252.6 L329.0,252.1 L329.1,251.0 L329.0,249.5 L329.1,248.7 L329.2,247.5 L329.3,246.9 L329.6,246.3 L330.7,244.7 L332.1,243.4 L332.4,242.7 L332.3,242.2 L332.1,241.9 L331.1,241.8 L329.9,242.3 L329.5,242.4 L329.1,242.3 L328.8,241.9 L328.7,241.4 L328.8,241.0 L328.6,240.6 L328.8,240.0 L329.4,239.4 L330.1,238.9 L330.8,238.7 L331.4,238.6 L333.1,238.7 L334.1,238.9 L334.9,239.4 L337.0,240.2 L338.9,241.0 L339.6,241.2 L340.4,241.6 L340.9,241.7 L341.6,241.6 L342.4,241.2 L343.2,240.2 L344.0,238.2 L344.4,237.5 L344.8,237.2 L345.6,236.6 L346.5,236.5 L347.5,236.7 L348.4,237.2 L349.1,237.8 L350.2,238.4 L351.1,239.0 L351.9,239.4 L352.9,239.7 L353.7,240.1 L354.5,240.3 L355.4,240.6 L355.9,240.6 L356.5,240.2 L357.4,240.1 L358.4,239.8 L358.9,239.5 L359.6,238.9 L360.2,238.2 L360.9,237.5 L361.8,236.9 L362.6,236.6 L363.3,236.4 L364.0,236.4 L364.8,236.5 L366.0,237.0 L366.3,237.0 L366.8,237.1 L367.7,237.1 L369.0,237.2 L369.6,236.9 L370.3,236.1 L370.4,235.6 L369.2,230.7 L369.4,230.0 L370.5,228.1 L372.0,227.0 L372.8,226.5 L373.7,226.1 L375.2,226.9 L376.0,227.5 L376.7,227.8 L377.3,228.4 L377.6,229.1 L377.6,229.8 L378.0,231.1 L378.4,231.7 L379.1,232.1 L379.9,232.3 L381.0,232.4 L382.4,232.4 L383.4,232.5 L384.3,232.4 L386.9,232.6 L387.4,232.5 L387.8,232.1 L388.4,229.2 L389.0,227.8 L389.8,226.7 L390.1,225.8 L391.9,224.2 L392.5,224.0 L393.2,224.0 L394.0,224.2 L395.4,224.7 L396.1,225.0 L396.8,225.4 L397.7,225.7 L398.6,225.7 L399.6,225.7 L400.2,225.4 L401.5,224.7 L402.6,224.4 L403.6,223.4 L404.5,222.1 L405.6,221.2 L406.5,221.0 L407.5,220.9 L408.3,221.4 L409.4,221.8 L411.0,223.3 L411.6,224.0 L412.2,224.9 L412.6,225.3 L413.5,226.5 L414.5,228.3 L416.8,231.3 L417.6,232.7 L418.4,234.6 L418.6,235.5 L418.5,237.1 L418.6,238.2 L418.6,240.2 L418.1,242.5 L417.8,243.5 L418.0,244.5 L418.0,246.6 L417.9,248.1 L417.5,250.0 L417.5,250.7 L417.9,252.5 L417.7,253.6 L417.2,253.4 L416.1,253.3 L415.3,253.5 L414.4,253.9 L413.3,254.5 L413.0,254.9 L412.8,255.1 L412.5,255.1 L412.0,254.9 L411.5,255.0 L410.9,255.0 L409.4,254.7 L409.1,254.8 L409.1,255.0 L408.8,255.1 L408.3,255.1 L407.8,255.2 L407.0,255.2 L406.4,255.3 L405.4,255.6 L404.4,256.8 L404.0,257.1 L403.8,257.2 L403.3,257.3 L401.9,257.2 L401.1,257.1 L400.6,256.9 L400.2,256.5 L400.0,256.4 L399.4,256.5 L398.9,256.4 L398.2,256.0 L398.0,256.0 L396.6,256.0 L396.1,256.1 L395.8,256.0 L395.4,255.7 L395.1,255.7 L394.6,255.8 L394.1,256.0 L393.9,256.1 L393.4,255.9 L393.1,255.9 L392.3,255.7 L391.6,255.3 L390.6,255.0 L390.3,255.0 L389.6,255.1 L389.0,255.0 L387.6,255.7 L386.3,256.1 L385.5,256.4 L384.7,257.0 L381.9,259.6 L381.2,259.9 L380.3,260.0 L380.1,260.1 L380.0,260.3 L379.8,260.5 L379.0,260.4 L377.1,260.8 L375.8,261.0 L374.2,261.0 L373.1,260.7 L372.0,260.6 L371.8,260.6 L371.1,260.9 L370.7,261.3 L370.7,261.5 L370.8,261.8 L370.7,262.0 L370.8,262.2 L370.5,262.6 L370.4,262.8 L370.0,263.1 L369.8,263.6 L369.3,263.4 L368.5,263.6 L367.8,264.0 L367.6,264.0 L366.1,264.5 L364.6,265.2 L362.4,266.9 L361.7,267.3 L361.2,267.4 L360.8,267.8 L360.6,267.8 L360.3,267.8 L359.8,268.1 L359.0,268.7 L358.1,269.6 L358.0,269.8 L358.0,270.0 L357.8,270.2 L357.6,270.3 L356.4,270.9 L354.5,271.9 L353.9,272.3 L353.4,272.5 L352.4,273.2 L350.8,274.2 L350.6,274.4 L350.1,274.5 L349.6,274.4 L347.9,275.5 L346.7,276.5 L346.0,276.9 L344.1,278.2 L342.2,279.7 L341.0,280.9 L339.8,282.0 L338.8,282.8 L337.1,283.4 L334.2,284.6 L333.9,284.8 L331.5,285.7 L330.9,285.9 L330.9,321.4 L330.9,325.3 L330.8,325.9 L219.3,325.6 L219.2,324.7 L218.7,322.6 L220.0,322.3 L223.2,322.4 L220.0,319.0 Z" data-name="Guelmim-Oued Noun" fill="#DDD0BB" stroke="#B8A898" stroke-width="1" stroke-linejoin="round" stroke-linecap="round"/>
  <path d="M158.5,325.9 L145.9,336.2 L126.7,347.7 L107.6,363.0 L88.5,382.2 L69.3,405.1 L50.2,428.1 L31.1,454.9 L11.9,477.8 L10.0,504.6 L50.2,504.6 L126.7,504.6 L203.3,504.6 L279.9,497.0 L329.6,485.5 L329.6,428.1 L330.4,351.5 L330.8,325.9 L279.9,325.9 L241.6,325.9 L203.3,325.9 L158.5,325.9 Z" data-name="Laâyoune-Saguia al Hamra" fill="#DDD0BB" stroke="#B8A898" stroke-width="1" stroke-linejoin="round" stroke-linecap="round"/>
  <path d="M478.1,229.4 L473.7,231.3 L466.7,236.5 L465.4,233.1 L464.9,232.9 L464.3,232.3 L463.9,231.7 L463.7,230.9 L463.5,230.0 L463.2,229.5 L463.0,229.2 L463.1,228.4 L463.1,227.3 L463.3,226.3 L463.3,224.9 L463.1,223.9 L463.2,222.7 L463.2,221.5 L463.3,220.5 L463.6,219.5 L463.6,218.5 L463.5,217.7 L463.7,214.8 L463.7,213.9 L463.6,213.2 L462.3,211.8 L461.7,211.0 L461.5,210.2 L460.3,209.0 L458.3,205.9 L458.2,205.0 L457.9,204.5 L457.7,203.9 L457.6,203.0 L457.5,201.8 L457.9,199.7 L458.2,198.8 L458.6,197.0 L458.7,195.7 L459.1,193.2 L459.4,192.1 L459.5,191.2 L460.0,190.2 L460.6,189.1 L461.1,188.0 L461.4,187.0 L461.8,186.0 L462.0,185.1 L462.2,182.8 L462.0,181.6 L461.5,180.7 L461.0,180.2 L460.3,179.6 L459.4,179.1 L456.4,178.3 L455.6,177.8 L454.7,177.3 L453.6,176.8 L453.1,176.0 L452.6,175.2 L452.0,174.8 L450.9,174.5 L449.1,174.0 L446.7,173.6 L444.7,173.9 L444.0,174.1 L441.2,173.8 L440.7,173.4 L440.7,172.9 L441.2,172.2 L445.1,168.8 L446.2,167.6 L449.3,164.9 L449.9,164.3 L450.5,163.5 L450.9,162.8 L450.9,162.5 L450.5,162.0 L449.5,161.4 L448.6,161.1 L446.9,159.9 L446.1,159.3 L445.2,158.9 L444.8,158.8 L444.3,158.9 L443.8,159.1 L441.8,160.4 L441.0,160.7 L440.3,160.7 L440.5,160.1 L440.2,158.9 L439.3,158.7 L439.0,158.0 L439.2,157.5 L439.7,157.4 L440.1,157.2 L440.1,156.7 L439.8,156.3 L439.9,155.8 L440.5,155.7 L440.9,155.3 L440.9,154.7 L440.9,153.9 L441.2,153.5 L441.8,153.2 L442.3,153.3 L443.2,153.2 L443.9,152.6 L444.5,151.9 L444.7,150.8 L445.0,150.5 L445.9,150.2 L448.2,149.8 L449.3,149.9 L450.2,150.2 L450.8,149.8 L451.0,149.3 L451.0,148.9 L450.0,148.2 L450.1,147.6 L450.7,147.1 L450.9,146.4 L450.5,146.1 L450.4,145.7 L451.1,144.9 L451.2,144.4 L451.2,144.0 L451.9,143.2 L452.1,142.9 L451.9,142.4 L451.1,141.0 L450.2,140.1 L449.7,139.3 L449.3,138.1 L448.8,137.9 L447.8,138.0 L447.0,137.9 L446.7,137.4 L446.1,137.0 L445.1,136.5 L444.0,136.3 L443.5,136.5 L442.7,137.2 L441.7,137.1 L441.4,136.6 L441.2,134.9 L440.8,134.3 L440.0,133.9 L439.2,133.0 L438.4,133.1 L437.7,132.9 L437.1,131.7 L435.4,130.9 L434.7,130.8 L433.0,131.2 L432.5,131.0 L432.2,130.5 L432.4,129.4 L432.1,129.0 L432.2,128.7 L432.6,128.5 L433.0,128.2 L431.6,126.7 L431.4,126.2 L431.3,125.6 L430.6,125.4 L430.0,125.5 L429.5,125.7 L428.8,126.0 L428.2,126.0 L427.6,125.6 L427.5,124.8 L427.7,124.2 L428.1,124.0 L428.8,124.0 L429.4,123.9 L430.0,123.5 L430.1,122.9 L429.8,122.5 L428.1,121.9 L427.9,121.4 L427.9,120.8 L427.8,120.5 L427.2,120.3 L426.7,120.1 L425.6,119.6 L425.0,119.0 L424.3,118.8 L424.1,118.6 L423.8,118.2 L423.4,118.0 L422.8,118.0 L422.3,117.8 L421.9,116.7 L421.4,116.6 L420.8,116.6 L419.9,116.2 L418.9,116.0 L418.1,115.7 L417.7,115.1 L417.8,114.5 L418.3,113.8 L419.0,113.3 L419.1,112.7 L418.8,112.0 L418.1,111.1 L418.5,110.3 L418.9,109.6 L418.5,109.1 L419.0,107.5 L419.6,107.1 L421.1,106.9 L421.9,106.7 L423.0,106.7 L424.1,107.3 L424.7,107.2 L425.0,106.8 L425.2,106.6 L425.8,106.9 L426.2,107.6 L426.6,107.8 L427.6,107.7 L427.9,107.9 L427.9,108.6 L428.2,109.0 L428.3,110.8 L428.9,111.5 L429.7,111.4 L430.4,111.6 L430.8,112.1 L431.6,112.2 L432.4,111.9 L433.1,111.3 L433.9,110.4 L435.3,110.0 L436.1,110.2 L438.2,110.8 L440.1,111.2 L441.0,110.9 L441.7,109.8 L441.8,108.7 L441.2,107.4 L441.0,104.5 L441.4,100.3 L442.2,98.0 L442.7,93.2 L442.6,91.8 L442.2,91.2 L441.2,90.7 L440.9,90.1 L440.8,89.4 L441.2,88.5 L441.0,88.3 L440.6,88.3 L440.1,88.5 L439.8,88.5 L439.6,88.1 L439.6,87.2 L440.1,86.8 L441.4,86.0 L441.7,85.6 L441.3,84.2 L440.6,83.7 L438.8,82.5 L438.3,81.9 L438.2,79.9 L437.9,78.7 L437.5,77.9 L437.1,77.7 L436.3,77.8 L435.9,77.4 L435.9,76.9 L436.3,76.6 L437.7,76.4 L438.2,76.2 L438.7,75.7 L438.6,74.7 L440.0,73.9 L441.3,74.0 L441.8,74.6 L442.3,74.7 L443.2,74.7 L443.7,75.2 L443.5,75.6 L442.8,76.5 L443.1,77.1 L443.9,77.3 L444.6,77.1 L445.3,77.1 L447.6,77.4 L448.2,77.8 L448.4,78.5 L448.1,79.1 L448.4,79.7 L449.0,79.9 L450.5,78.3 L451.1,78.1 L451.9,78.1 L452.5,78.0 L452.8,77.8 L452.6,77.5 L452.0,76.9 L452.3,76.4 L453.2,76.0 L454.0,75.2 L454.2,74.7 L454.2,73.7 L454.6,73.6 L455.3,73.7 L455.8,73.3 L456.2,73.7 L456.6,75.0 L456.8,76.7 L456.6,79.2 L456.7,80.3 L457.0,81.1 L457.6,81.2 L458.8,80.7 L459.8,80.9 L460.3,81.2 L460.7,81.7 L460.9,82.5 L461.5,83.1 L462.7,83.0 L463.9,83.3 L464.9,83.6 L465.3,84.5 L465.5,85.4 L465.7,86.2 L466.6,86.6 L467.3,87.3 L467.9,88.3 L468.1,89.1 L468.1,90.2 L467.6,91.2 L466.4,94.1 L466.4,94.9 L466.8,95.7 L467.7,96.1 L470.3,96.3 L471.4,96.5 L472.4,97.1 L473.5,98.0 L474.5,98.9 L475.2,99.5 L475.4,99.9 L475.4,100.7 L475.1,101.6 L474.7,102.2 L473.9,103.0 L472.2,105.3 L471.2,106.3 L470.9,107.0 L471.1,107.7 L471.8,108.9 L472.7,109.7 L474.1,110.7 L475.5,113.3 L475.8,114.1 L476.0,114.9 L477.5,118.6 L478.0,119.3 L478.9,119.8 L480.8,121.6 L481.0,122.0 L480.9,122.7 L480.4,123.4 L480.3,124.3 L480.7,125.0 L482.2,126.0 L483.9,126.6 L484.8,126.4 L486.1,126.5 L487.4,126.1 L488.5,126.0 L489.8,126.0 L491.1,126.2 L491.7,126.5 L492.3,127.1 L493.2,128.8 L494.8,129.7 L497.2,131.7 L498.3,132.7 L498.5,134.1 L498.4,135.4 L498.7,135.8 L499.6,136.1 L500.7,135.9 L502.2,136.2 L505.0,136.3 L506.1,136.2 L507.5,135.7 L508.8,136.2 L510.1,137.5 L511.6,140.4 L512.8,142.0 L514.5,145.2 L515.2,147.3 L515.2,148.1 L515.3,148.5 L516.3,148.9 L517.5,148.8 L518.2,148.9 L518.9,149.2 L519.5,149.7 L520.2,150.2 L521.5,150.5 L522.2,151.2 L522.2,151.5 L521.5,152.5 L521.6,153.1 L522.2,153.4 L523.7,153.5 L525.2,153.3 L526.5,153.1 L528.7,153.3 L530.1,153.4 L533.2,153.9 L533.9,153.9 L535.4,154.2 L536.7,154.3 L538.1,154.6 L538.4,155.1 L538.5,155.6 L538.1,156.3 L537.2,157.5 L536.9,158.2 L536.6,159.9 L536.4,161.8 L536.5,162.9 L536.5,163.9 L536.7,165.2 L536.9,166.2 L537.3,169.0 L537.4,169.8 L537.7,171.3 L522.5,174.2 L522.4,178.4 L522.4,183.1 L523.0,183.3 L522.9,183.6 L522.6,183.9 L522.3,183.9 L522.2,183.7 L522.0,184.1 L521.8,184.2 L521.5,184.3 L521.3,184.5 L521.1,184.5 L520.9,184.4 L520.8,184.5 L520.6,184.7 L520.5,185.1 L520.2,185.3 L520.0,185.4 L519.7,185.3 L519.5,184.8 L519.3,184.6 L519.2,184.6 L518.8,185.2 L518.9,185.5 L518.6,185.6 L518.6,185.8 L518.7,186.0 L518.6,186.6 L518.1,186.8 L517.8,187.3 L517.9,187.5 L518.2,187.3 L518.2,187.6 L518.4,187.8 L518.9,187.7 L518.9,187.9 L518.7,188.4 L518.3,188.6 L518.1,188.8 L517.9,188.9 L518.0,189.1 L517.6,189.4 L518.0,190.0 L518.2,189.9 L518.2,190.3 L518.4,190.6 L518.5,190.9 L518.5,191.4 L518.7,191.5 L518.7,191.8 L518.5,192.3 L518.2,192.5 L518.1,192.7 L518.1,193.0 L518.2,193.2 L518.1,193.8 L518.1,194.1 L518.3,193.9 L518.9,193.6 L519.1,193.7 L519.3,193.6 L519.5,193.7 L519.7,194.0 L519.9,194.0 L519.9,193.7 L520.1,193.5 L520.1,193.2 L519.7,192.9 L519.9,192.8 L520.2,192.8 L520.3,192.7 L520.7,192.5 L520.7,192.4 L520.5,192.2 L520.6,192.0 L521.0,191.7 L521.1,192.2 L521.3,192.1 L521.8,192.2 L522.1,192.7 L522.1,193.3 L522.1,193.6 L522.1,193.9 L522.0,194.2 L522.0,194.8 L521.8,195.1 L522.0,195.2 L522.1,195.2 L522.5,195.3 L522.7,195.3 L522.4,195.0 L522.5,194.9 L522.4,194.6 L522.5,194.5 L522.7,194.7 L523.2,194.9 L523.4,194.7 L523.2,194.2 L523.1,193.4 L522.9,193.2 L523.1,193.1 L523.3,193.1 L523.3,192.9 L523.4,192.7 L523.5,193.1 L523.4,193.4 L523.4,193.8 L523.4,194.1 L523.7,194.3 L524.0,194.0 L524.2,193.9 L524.3,194.1 L524.2,194.4 L524.3,194.6 L524.5,194.6 L524.6,194.7 L524.6,195.0 L524.7,195.6 L525.2,195.6 L525.2,196.1 L525.3,196.2 L525.5,196.5 L525.7,196.6 L525.9,196.8 L526.0,196.5 L526.2,196.5 L526.3,196.6 L526.5,196.5 L526.4,196.2 L526.5,196.1 L526.8,196.1 L526.7,196.6 L526.7,196.8 L526.6,196.9 L526.7,196.9 L526.8,197.1 L526.9,197.0 L527.1,197.0 L527.1,197.5 L527.3,198.0 L527.3,198.3 L527.1,198.5 L527.2,198.8 L527.1,199.1 L527.2,199.5 L526.9,199.6 L526.9,199.8 L527.1,199.9 L527.1,200.1 L527.0,200.2 L526.6,200.3 L526.5,200.5 L526.7,200.7 L526.5,200.7 L526.5,201.0 L526.4,201.2 L526.2,201.2 L525.9,201.0 L525.8,201.2 L525.8,201.5 L525.4,201.5 L525.4,201.7 L525.5,201.9 L525.1,202.5 L525.0,202.5 L524.8,202.4 L524.6,203.1 L524.4,203.1 L524.3,203.6 L524.1,203.7 L523.9,203.6 L523.9,203.5 L523.5,203.2 L523.6,203.4 L523.4,203.8 L523.1,204.1 L522.9,204.4 L522.8,205.1 L522.8,205.8 L522.4,206.2 L522.6,206.8 L522.6,207.3 L522.8,207.4 L522.9,207.1 L523.2,207.1 L523.8,207.4 L524.0,207.7 L524.0,208.3 L524.2,208.6 L524.2,208.8 L524.0,208.8 L523.9,208.8 L523.7,208.9 L523.6,209.2 L523.7,209.5 L523.2,209.9 L523.0,210.0 L520.6,210.9 L515.5,212.7 L509.7,214.0 L503.9,214.3 L497.3,216.5 L486.3,225.9 L478.1,229.4 Z M520.8,192.8 L520.9,192.6 L520.7,192.5 L520.8,192.8 Z M523.0,195.2 L522.9,195.1 L522.7,195.3 L523.0,195.2 Z M523.2,192.2 L523.4,192.0 L523.4,192.7 L523.2,192.4 L523.2,192.2 Z" data-name="Drâa-Tafilalet" fill="#DDD0BB" stroke="#B8A898" stroke-width="1" stroke-linejoin="round" stroke-linecap="round"/>
  <path d="M568.4,154.0 L567.5,154.3 L566.8,154.4 L565.2,154.6 L564.7,154.9 L563.5,155.7 L563.1,155.8 L560.7,155.7 L559.4,155.7 L558.2,155.9 L557.3,155.9 L556.9,155.8 L555.5,155.9 L554.7,155.7 L552.4,155.9 L551.8,155.9 L551.6,155.8 L551.4,155.5 L551.0,155.6 L551.0,155.9 L550.9,156.1 L550.5,156.5 L550.5,156.7 L550.6,157.0 L550.4,157.3 L550.4,157.8 L550.1,158.8 L550.2,159.0 L550.7,159.7 L550.8,160.1 L551.3,160.9 L551.9,161.6 L552.1,161.9 L551.9,162.1 L552.1,162.7 L552.3,162.9 L552.5,163.3 L553.0,163.9 L553.1,164.3 L553.5,164.7 L553.5,165.3 L553.6,165.6 L553.6,165.8 L553.4,166.3 L553.4,166.5 L553.6,166.7 L554.0,166.8 L554.2,167.2 L554.3,167.4 L554.2,167.9 L553.8,168.0 L552.8,168.3 L548.1,169.1 L547.8,169.2 L547.8,169.4 L537.7,171.3 L537.4,169.8 L537.3,169.0 L536.9,166.2 L536.7,165.2 L536.5,163.9 L536.5,162.9 L536.4,161.8 L536.6,159.9 L536.9,158.2 L537.2,157.5 L538.1,156.3 L538.5,155.6 L538.4,155.1 L538.1,154.6 L536.7,154.3 L535.4,154.2 L533.9,153.9 L533.2,153.9 L530.1,153.4 L528.7,153.3 L526.5,153.1 L525.2,153.3 L523.7,153.5 L522.2,153.4 L521.6,153.1 L521.5,152.5 L522.2,151.5 L522.2,151.2 L521.5,150.5 L520.2,150.2 L519.5,149.7 L518.9,149.2 L518.2,148.9 L517.5,148.8 L516.3,148.9 L515.3,148.5 L515.2,148.1 L515.2,147.3 L514.5,145.2 L512.8,142.0 L511.6,140.4 L510.1,137.5 L508.8,136.2 L507.5,135.7 L507.3,135.4 L507.3,135.1 L507.6,134.8 L508.7,133.5 L509.2,132.8 L509.4,132.3 L510.3,131.4 L511.6,130.2 L513.3,127.8 L514.3,126.2 L514.6,125.6 L515.0,124.8 L517.0,122.2 L518.5,120.8 L520.0,119.7 L521.0,119.2 L521.9,118.7 L522.5,118.5 L524.7,118.3 L525.6,118.4 L526.7,118.2 L529.3,118.3 L530.7,118.3 L534.3,118.8 L537.1,118.7 L538.3,118.5 L539.4,118.3 L541.7,117.5 L543.7,116.8 L544.6,116.6 L545.4,116.5 L546.8,116.2 L547.8,115.8 L548.7,114.7 L549.0,113.2 L548.4,111.9 L547.4,110.7 L545.4,108.8 L544.9,108.3 L544.3,107.2 L543.8,106.7 L542.6,105.6 L541.1,104.6 L540.3,104.1 L538.7,103.3 L538.3,103.0 L538.0,102.6 L537.9,102.1 L537.9,101.3 L538.5,100.1 L538.9,99.5 L539.3,99.1 L541.4,97.2 L541.9,96.4 L542.5,95.8 L543.0,94.6 L543.2,93.9 L543.3,92.3 L543.2,91.5 L543.0,90.9 L542.1,89.5 L541.6,88.8 L540.5,87.5 L539.5,86.4 L538.0,85.6 L537.7,85.3 L537.7,85.0 L537.8,84.5 L537.9,83.5 L538.2,83.0 L538.7,82.7 L539.4,82.5 L540.2,82.4 L542.0,81.8 L542.5,81.6 L543.0,81.2 L543.4,80.9 L543.5,80.1 L544.0,79.4 L544.3,79.0 L544.5,78.6 L544.4,78.1 L544.1,77.8 L543.2,77.3 L542.8,76.9 L542.7,76.3 L542.6,75.5 L542.8,74.2 L542.8,73.4 L542.6,73.1 L542.1,72.8 L541.7,72.7 L540.8,72.1 L539.7,71.1 L539.0,70.3 L538.8,70.0 L538.8,69.6 L539.2,69.3 L539.1,68.9 L539.2,68.5 L539.4,68.3 L540.0,67.9 L541.8,67.3 L542.2,67.1 L542.3,66.9 L542.3,66.6 L542.6,66.5 L543.0,66.5 L543.4,66.2 L543.4,66.0 L543.4,65.7 L543.1,65.4 L543.2,65.2 L543.4,65.1 L544.3,65.2 L544.6,65.1 L544.7,64.9 L544.8,64.5 L545.0,64.3 L545.2,63.0 L545.1,62.6 L545.0,62.2 L545.1,61.8 L546.0,61.3 L546.9,61.0 L547.4,60.9 L547.8,61.0 L548.2,61.1 L548.9,61.4 L549.5,61.7 L549.9,61.5 L549.9,61.3 L549.7,61.0 L548.3,60.3 L548.4,59.8 L548.8,59.3 L548.9,58.9 L548.8,58.5 L548.6,58.3 L547.6,58.2 L547.2,58.0 L546.7,57.5 L546.4,57.3 L546.0,57.2 L544.8,56.5 L543.6,56.6 L543.2,56.1 L542.7,55.5 L542.2,55.1 L541.4,54.7 L540.2,54.6 L538.8,54.7 L537.2,54.6 L536.5,54.6 L536.1,54.9 L535.9,55.3 L536.1,56.0 L535.9,56.4 L535.5,57.0 L534.7,57.5 L533.5,57.9 L533.0,58.1 L532.2,59.1 L531.8,59.3 L531.4,59.2 L530.9,58.9 L530.6,58.9 L530.4,59.1 L530.3,59.5 L530.4,59.8 L530.3,59.9 L529.9,59.8 L529.7,60.0 L529.4,60.9 L529.2,61.4 L529.0,62.2 L528.8,62.5 L528.4,62.6 L528.1,62.6 L527.6,62.3 L527.2,62.1 L526.7,62.1 L526.1,61.9 L525.8,61.6 L525.8,61.3 L525.8,60.8 L525.4,60.4 L525.1,60.2 L524.7,60.2 L524.3,60.3 L523.5,60.7 L523.2,60.8 L523.0,60.5 L523.1,60.3 L523.9,59.8 L524.0,59.3 L523.6,58.0 L523.6,57.7 L523.8,57.5 L524.2,57.4 L525.3,57.5 L525.6,57.4 L525.9,57.2 L525.9,57.0 L525.8,56.8 L525.5,56.6 L524.9,56.4 L524.6,56.2 L524.5,55.9 L524.9,55.3 L525.4,54.6 L525.6,53.5 L525.1,53.0 L525.1,52.7 L525.5,52.2 L525.4,51.9 L525.1,51.8 L524.5,51.8 L524.1,51.9 L523.4,52.0 L522.8,51.6 L521.9,51.1 L521.6,51.1 L521.4,51.3 L520.9,51.3 L520.8,51.2 L520.5,51.2 L520.2,51.3 L519.9,51.3 L519.6,51.1 L519.5,51.0 L520.1,50.5 L520.0,50.3 L519.7,50.3 L518.9,50.3 L518.3,50.5 L517.9,50.4 L517.8,50.2 L517.8,49.6 L517.7,49.5 L517.3,49.4 L517.2,48.9 L517.3,47.8 L517.2,47.3 L517.2,46.9 L517.5,45.3 L517.4,44.8 L517.1,44.4 L517.2,43.9 L517.1,42.4 L517.0,41.9 L516.8,41.1 L516.8,40.6 L517.1,39.7 L517.3,38.6 L517.0,37.5 L517.2,37.5 L517.9,37.1 L518.3,36.8 L518.3,36.6 L518.5,36.5 L518.5,36.1 L518.6,36.0 L518.7,35.5 L518.8,35.4 L518.8,35.1 L519.1,34.8 L519.4,34.8 L519.5,34.8 L519.7,34.5 L519.8,34.5 L520.2,34.4 L520.4,34.5 L520.7,34.3 L521.6,34.4 L521.8,34.4 L522.0,34.7 L522.3,35.0 L522.9,35.3 L522.9,35.4 L523.4,35.6 L523.5,35.7 L523.7,35.8 L524.0,35.8 L524.0,36.0 L524.2,36.0 L524.2,36.1 L525.1,36.6 L526.0,36.9 L526.4,36.8 L527.3,37.0 L527.9,37.3 L529.0,37.7 L529.3,37.7 L529.7,37.7 L530.4,37.5 L530.5,37.4 L530.7,37.5 L530.7,37.7 L531.4,37.9 L532.4,38.0 L532.9,38.1 L533.8,38.0 L534.1,38.1 L534.4,38.2 L535.0,38.2 L535.7,37.9 L535.8,37.8 L535.9,37.6 L536.0,37.6 L536.1,37.5 L537.1,37.3 L537.2,37.2 L537.9,37.2 L538.2,37.0 L538.6,36.9 L538.6,36.8 L539.1,36.8 L539.3,36.7 L539.4,36.6 L539.8,36.6 L539.8,36.7 L539.9,36.8 L540.3,36.7 L540.4,36.8 L540.4,36.7 L540.4,36.6 L540.8,36.4 L541.3,36.1 L541.8,35.7 L542.3,35.0 L542.3,34.8 L542.6,34.6 L542.6,34.4 L543.1,34.5 L543.2,34.7 L543.5,34.8 L543.6,34.9 L544.2,34.8 L544.5,34.6 L544.6,34.6 L544.6,34.5 L545.0,34.3 L545.0,34.2 L545.3,34.0 L545.3,33.9 L545.5,33.7 L545.5,33.6 L545.7,33.4 L545.9,33.2 L545.9,33.0 L546.6,32.1 L546.7,31.9 L546.7,31.8 L546.7,31.8 L546.7,31.7 L546.9,31.4 L547.0,31.2 L547.2,31.1 L547.2,31.0 L547.3,30.9 L547.3,30.7 L547.4,30.6 L547.4,30.4 L547.5,30.4 L547.5,30.3 L547.3,30.3 L547.4,30.2 L547.6,30.2 L547.6,30.1 L547.7,30.1 L547.6,30.0 L547.5,30.0 L547.4,30.0 L547.6,29.8 L547.5,29.8 L547.6,29.6 L547.7,29.5 L547.8,29.5 L547.9,29.3 L547.9,29.3 L547.9,29.2 L548.0,29.1 L548.0,28.7 L548.4,28.7 L548.6,28.5 L548.7,28.6 L548.7,28.5 L548.8,28.5 L548.9,28.5 L548.9,28.6 L549.1,28.6 L549.2,28.5 L549.3,28.6 L549.5,28.6 L549.7,29.0 L549.7,29.1 L549.5,29.1 L549.5,29.2 L549.3,29.3 L549.3,29.3 L549.3,29.5 L549.2,29.5 L549.2,29.6 L549.3,29.7 L549.3,29.8 L549.5,29.9 L549.2,30.3 L549.2,30.5 L549.4,30.6 L549.2,30.8 L549.1,31.0 L548.9,31.3 L549.0,31.6 L549.2,31.6 L549.3,31.9 L549.5,32.0 L549.3,32.3 L549.3,32.7 L549.6,32.9 L549.3,33.4 L549.3,33.7 L549.2,33.8 L549.3,34.1 L549.3,34.2 L549.6,34.5 L550.2,34.6 L550.4,34.8 L550.6,34.8 L550.5,35.0 L550.6,35.0 L550.7,34.9 L550.7,35.0 L550.9,34.9 L550.8,34.7 L551.0,34.8 L550.8,34.6 L551.1,34.7 L551.0,34.5 L551.0,34.5 L551.1,34.7 L551.1,34.8 L550.8,35.2 L550.9,35.4 L552.3,36.7 L553.7,37.8 L553.6,37.9 L553.5,37.7 L553.3,37.6 L553.4,37.7 L553.5,37.7 L553.4,37.8 L553.3,37.7 L553.2,37.4 L552.9,37.3 L552.6,37.3 L552.6,37.2 L552.5,37.2 L552.5,37.0 L552.4,36.8 L551.9,36.4 L551.6,36.4 L551.6,36.3 L551.7,36.3 L551.7,36.2 L551.5,36.3 L551.4,36.0 L551.0,35.9 L551.1,35.7 L550.9,35.6 L550.7,35.5 L550.5,35.7 L550.5,35.8 L550.4,35.9 L550.4,36.2 L550.6,36.4 L550.7,36.7 L551.0,37.1 L551.1,37.0 L551.1,37.0 L551.4,37.0 L551.6,37.1 L551.7,37.2 L551.7,37.3 L551.5,37.4 L551.5,37.5 L551.2,37.2 L551.2,37.4 L550.9,37.5 L550.8,37.7 L550.7,37.7 L550.6,38.0 L550.7,38.1 L550.7,38.3 L550.9,38.6 L551.1,38.7 L551.2,39.0 L551.3,39.0 L551.4,39.0 L551.5,39.2 L551.4,39.4 L551.5,39.4 L551.5,39.6 L551.6,39.8 L552.4,40.3 L552.9,40.5 L553.2,40.6 L553.3,40.7 L553.6,40.8 L554.3,41.2 L554.8,41.3 L555.0,41.4 L555.6,41.4 L555.7,41.3 L556.0,41.4 L556.1,41.3 L556.1,41.4 L556.8,41.5 L557.2,41.5 L557.4,41.4 L557.5,41.0 L557.3,40.7 L557.1,40.6 L556.9,40.6 L557.0,40.6 L557.0,40.7 L556.7,40.4 L556.5,40.1 L556.2,40.1 L556.1,40.0 L555.8,39.5 L555.5,39.4 L555.4,39.2 L555.2,39.2 L555.0,39.0 L554.8,38.8 L554.2,38.4 L554.1,38.2 L553.7,38.0 L553.7,37.9 L553.8,37.9 L555.9,39.4 L556.1,39.6 L556.7,40.1 L557.5,40.6 L557.8,40.7 L558.0,40.6 L558.2,40.8 L558.4,40.8 L558.5,40.9 L558.6,41.0 L558.7,41.0 L559.2,41.2 L559.3,41.3 L559.6,41.4 L560.0,41.5 L560.3,41.5 L560.7,41.7 L561.3,41.9 L561.6,41.9 L561.7,41.9 L562.2,42.0 L562.9,42.0 L563.2,42.0 L563.4,42.1 L563.8,42.1 L564.3,42.2 L565.6,42.0 L565.8,42.0 L565.8,41.9 L565.8,42.0 L566.2,41.9 L566.4,41.8 L566.7,41.7 L566.9,41.5 L567.1,41.5 L567.2,41.5 L567.3,41.5 L567.5,41.4 L567.6,41.3 L568.1,40.9 L568.7,40.5 L569.5,39.9 L569.8,39.7 L569.9,39.6 L570.1,39.7 L570.0,39.7 L570.0,39.9 L570.5,40.1 L572.0,40.5 L573.1,40.6 L573.3,40.7 L574.3,41.0 L576.1,41.6 L577.4,42.0 L577.9,42.0 L578.0,42.1 L578.0,42.9 L577.8,43.5 L578.9,44.1 L579.1,44.5 L579.6,44.9 L580.1,45.0 L580.0,45.1 L580.7,45.3 L580.9,45.3 L581.0,45.4 L581.3,45.5 L581.5,45.7 L581.4,45.7 L581.5,46.0 L582.5,46.8 L583.1,47.3 L584.4,48.1 L584.8,48.2 L585.5,47.9 L586.0,48.0 L586.3,48.0 L587.1,47.8 L587.2,48.9 L587.1,49.3 L587.2,49.5 L587.2,49.9 L588.0,50.3 L588.5,50.6 L589.1,50.8 L590.2,51.3 L590.3,51.5 L590.4,51.9 L590.4,52.6 L590.6,52.7 L591.6,52.9 L592.4,53.4 L592.9,53.6 L593.3,53.6 L593.5,53.5 L593.4,53.8 L593.6,54.0 L595.6,54.8 L596.1,55.1 L594.9,55.8 L594.8,56.1 L594.8,56.6 L594.6,56.9 L594.1,57.4 L593.7,57.9 L592.9,58.7 L592.5,59.5 L592.1,59.7 L591.9,59.9 L592.4,59.9 L592.5,60.1 L593.2,60.4 L593.4,60.8 L593.6,61.1 L593.8,61.2 L593.9,61.4 L594.2,61.7 L594.2,62.1 L594.7,62.5 L595.0,62.7 L595.2,63.2 L595.6,63.4 L595.6,63.7 L595.9,63.9 L596.3,64.2 L596.7,64.2 L597.2,64.4 L598.1,64.7 L594.5,68.5 L594.8,69.2 L596.3,70.4 L597.4,71.7 L597.4,72.0 L597.2,72.4 L597.3,73.1 L597.0,74.0 L597.1,74.5 L599.6,79.5 L599.6,79.8 L599.4,80.0 L598.7,83.6 L597.6,88.6 L598.7,92.3 L596.5,93.7 L596.1,95.1 L597.2,95.5 L597.3,95.9 L598.1,96.0 L598.9,95.7 L599.4,95.7 L599.5,95.9 L599.7,96.2 L599.7,96.6 L600.2,97.7 L600.5,98.0 L601.4,98.3 L601.6,98.7 L601.5,98.9 L601.4,99.1 L601.5,99.4 L601.3,99.7 L601.6,100.0 L601.6,100.2 L601.5,100.4 L601.3,100.5 L601.3,100.9 L601.5,101.1 L601.8,101.6 L601.5,101.9 L601.3,102.4 L601.2,102.6 L600.6,103.0 L600.5,103.3 L600.6,103.8 L600.5,104.1 L600.5,104.5 L600.4,104.7 L600.3,104.9 L600.2,105.3 L599.6,105.6 L599.5,106.2 L599.0,107.3 L598.9,108.3 L599.1,109.0 L599.0,109.2 L599.0,109.7 L599.0,109.9 L599.0,110.3 L598.7,110.9 L598.7,111.2 L599.2,112.0 L599.6,112.3 L600.2,113.2 L600.4,113.4 L600.8,113.6 L601.1,113.7 L601.3,114.0 L601.4,114.4 L601.8,114.8 L602.2,115.5 L602.3,115.9 L602.3,116.1 L603.8,117.4 L603.9,117.8 L604.4,118.0 L604.6,118.1 L604.7,118.3 L605.3,118.4 L605.6,118.6 L605.7,118.6 L605.9,118.8 L606.0,118.8 L606.2,119.0 L606.3,119.2 L606.7,120.3 L606.6,120.5 L606.4,120.6 L606.1,121.1 L606.1,121.3 L606.3,121.8 L605.8,122.8 L605.4,123.1 L605.2,123.1 L604.8,123.1 L603.6,123.5 L609.8,131.8 L614.0,133.5 L623.8,140.0 L624.4,140.3 L624.5,140.4 L624.4,140.5 L624.3,140.8 L623.6,141.1 L623.0,141.6 L622.6,142.0 L622.4,142.2 L622.1,142.4 L621.8,142.9 L621.3,143.2 L621.0,143.3 L620.4,143.6 L620.1,144.0 L619.9,144.0 L619.8,144.1 L619.7,144.3 L618.5,144.2 L617.7,144.3 L616.8,144.7 L616.6,144.8 L616.4,145.2 L616.4,145.4 L616.3,145.9 L615.8,146.9 L615.6,147.1 L615.4,147.3 L614.8,147.6 L614.8,147.8 L614.9,148.0 L615.3,148.2 L615.3,148.8 L615.1,149.7 L615.0,150.2 L614.9,150.4 L614.9,150.9 L615.0,151.6 L615.0,152.3 L614.3,152.7 L613.8,153.0 L613.6,153.2 L613.0,153.5 L612.9,153.7 L612.9,153.9 L613.3,154.1 L613.8,153.9 L614.3,153.9 L614.5,153.8 L614.8,153.8 L615.3,153.7 L615.4,153.5 L616.0,153.4 L617.0,153.7 L617.4,153.9 L617.8,155.0 L617.9,155.1 L618.3,155.2 L618.3,155.6 L618.4,155.8 L618.3,155.9 L618.0,155.9 L617.7,156.1 L617.2,156.3 L616.8,156.5 L616.7,156.8 L616.5,156.9 L615.5,157.1 L615.1,157.2 L614.7,157.2 L614.4,157.2 L614.0,156.9 L613.8,156.8 L611.9,157.0 L611.4,157.0 L610.9,156.7 L610.5,156.7 L609.7,156.9 L608.2,156.8 L607.1,156.6 L605.8,156.5 L605.3,156.2 L605.1,156.2 L602.2,156.6 L599.3,155.9 L598.7,155.9 L598.1,155.7 L597.0,155.8 L596.5,155.5 L595.5,155.4 L594.6,155.1 L594.1,154.9 L593.6,154.9 L592.9,154.6 L592.4,154.5 L590.9,154.5 L590.5,154.3 L590.1,154.0 L589.7,153.9 L589.2,153.9 L589.0,154.1 L588.9,154.4 L588.2,154.1 L587.3,154.1 L587.0,154.0 L586.9,153.8 L586.6,153.5 L585.5,153.2 L582.8,154.0 L582.2,154.3 L581.0,154.6 L579.5,154.7 L578.8,154.7 L577.2,154.1 L576.7,153.9 L576.2,153.9 L575.6,153.7 L575.3,153.8 L575.0,154.0 L574.8,154.1 L574.0,154.2 L572.2,154.1 L571.4,154.1 L568.4,154.0 Z" data-name="Oriental" fill="#DDD0BB" stroke="#B8A898" stroke-width="1" stroke-linejoin="round" stroke-linecap="round"/>
  <path d="M274.7,273.8 L274.2,273.5 L273.8,272.8 L273.5,272.6 L272.8,272.6 L271.9,272.8 L271.0,272.9 L270.3,272.8 L269.5,272.8 L268.6,272.8 L266.8,272.5 L265.5,272.7 L264.8,272.6 L263.1,271.4 L263.0,271.1 L263.1,271.0 L263.2,270.9 L263.3,270.6 L263.4,270.6 L263.5,270.4 L263.6,270.4 L263.5,270.3 L263.6,270.3 L263.6,270.0 L263.7,270.0 L263.8,269.8 L264.0,269.7 L264.3,269.7 L264.3,269.4 L264.4,269.2 L264.4,269.0 L264.6,269.0 L264.7,268.9 L265.0,268.4 L265.8,267.7 L266.0,267.4 L266.2,267.2 L266.4,267.0 L266.5,266.9 L266.7,266.7 L266.8,266.6 L266.8,266.6 L266.9,266.3 L267.1,266.3 L267.2,266.1 L267.3,266.1 L267.2,266.0 L267.2,265.9 L267.3,266.0 L267.8,265.7 L268.0,265.4 L268.2,265.4 L268.2,265.3 L268.5,265.0 L268.5,264.9 L268.7,264.9 L268.8,264.8 L268.9,264.8 L269.8,264.4 L270.0,264.2 L270.2,264.2 L270.5,263.9 L270.8,263.6 L271.0,263.6 L271.2,263.3 L271.6,263.0 L271.6,262.7 L271.9,262.1 L272.3,261.7 L272.5,261.4 L272.5,261.4 L272.6,261.1 L272.7,261.1 L272.7,260.8 L272.9,260.5 L273.1,260.2 L273.3,260.2 L273.2,260.2 L273.2,260.1 L273.9,259.4 L273.9,259.2 L274.1,259.1 L274.5,258.7 L274.6,258.7 L275.2,258.1 L275.4,257.9 L275.4,257.7 L275.6,257.6 L275.6,257.5 L276.0,256.6 L276.2,256.3 L276.9,255.8 L276.9,255.4 L277.2,255.3 L277.1,255.1 L277.1,254.7 L277.0,254.6 L277.1,254.5 L277.2,254.5 L277.4,254.4 L277.3,254.2 L277.3,254.0 L277.4,253.9 L277.7,253.9 L277.7,253.8 L277.7,253.7 L277.6,253.5 L277.6,253.4 L277.7,253.2 L277.8,253.2 L277.9,253.2 L277.9,253.2 L277.7,253.1 L278.0,252.9 L278.0,252.9 L277.9,252.7 L278.0,252.6 L278.1,252.4 L278.3,252.3 L278.4,252.4 L278.7,251.9 L278.6,251.8 L278.7,251.7 L278.7,251.6 L278.9,251.6 L278.9,251.4 L279.1,251.3 L279.2,251.0 L279.3,251.0 L279.4,250.8 L279.5,250.8 L279.5,250.7 L279.5,250.7 L279.5,250.6 L279.6,250.6 L279.7,250.3 L279.8,250.3 L279.8,250.2 L280.1,250.1 L280.2,249.8 L280.3,249.8 L280.3,249.7 L280.4,249.7 L280.5,249.4 L280.4,249.3 L280.5,249.2 L280.5,249.1 L281.1,248.7 L281.1,248.4 L281.4,248.2 L281.6,248.1 L282.0,247.7 L282.3,247.4 L283.0,246.9 L284.0,246.2 L285.9,244.4 L286.0,244.2 L286.3,244.1 L286.5,243.5 L286.9,243.0 L287.7,242.2 L287.9,241.9 L288.0,241.6 L287.8,241.5 L287.9,241.4 L288.0,241.4 L287.9,241.3 L288.2,241.0 L288.2,240.9 L288.4,240.7 L288.5,240.6 L288.8,240.3 L288.8,240.2 L288.9,240.1 L289.0,239.9 L288.9,239.7 L289.0,239.5 L289.1,239.4 L289.1,239.2 L289.2,239.2 L289.6,238.6 L289.7,238.5 L289.8,238.1 L290.0,237.8 L290.0,237.7 L290.1,237.7 L290.1,237.6 L290.1,237.4 L290.4,237.1 L290.4,237.0 L290.5,237.0 L290.5,236.8 L290.6,236.7 L290.7,236.5 L290.7,236.4 L290.8,236.4 L290.9,236.2 L290.9,236.1 L291.0,236.1 L291.0,235.8 L291.1,235.8 L291.2,235.5 L291.5,234.7 L291.8,234.4 L292.0,234.3 L292.4,233.8 L292.6,234.0 L292.7,234.3 L292.8,234.4 L292.9,234.5 L293.0,234.7 L293.0,234.6 L293.1,234.6 L292.8,234.3 L292.7,234.1 L292.5,233.7 L292.5,233.5 L292.6,233.4 L292.6,233.2 L292.7,232.7 L293.1,232.0 L293.1,231.8 L293.1,231.3 L293.3,231.0 L293.3,230.9 L293.4,230.7 L293.4,230.6 L293.5,230.5 L293.5,230.3 L293.6,229.9 L293.7,229.6 L293.6,229.3 L293.7,229.3 L293.7,229.1 L293.6,229.0 L293.5,228.9 L293.8,228.2 L293.9,227.9 L294.0,227.6 L294.1,226.5 L294.2,226.1 L294.4,225.1 L294.5,225.0 L294.5,224.6 L294.7,223.8 L294.7,223.6 L294.9,223.0 L294.9,222.9 L295.0,222.9 L295.0,222.8 L295.6,222.9 L295.5,222.8 L295.2,222.8 L295.0,222.6 L295.0,222.3 L294.9,222.3 L294.9,222.2 L295.0,222.3 L295.0,222.2 L294.9,222.1 L295.0,222.2 L295.1,222.0 L295.1,222.0 L295.3,221.6 L295.2,221.5 L295.2,221.4 L295.2,221.3 L295.1,221.0 L294.9,220.7 L294.5,220.5 L294.5,220.6 L294.5,220.5 L294.5,220.5 L294.5,220.7 L294.4,220.6 L294.2,220.6 L294.3,220.6 L294.3,220.5 L294.1,220.6 L294.0,220.5 L294.0,220.7 L293.9,220.7 L293.9,220.6 L293.7,220.6 L293.9,220.6 L293.9,220.5 L293.6,220.6 L293.7,220.4 L293.7,220.4 L293.6,220.5 L293.4,220.3 L293.3,220.4 L293.3,220.5 L293.6,220.7 L293.6,220.8 L293.2,220.4 L293.2,220.3 L293.4,220.2 L293.4,220.0 L293.2,219.9 L293.0,219.8 L293.0,219.7 L292.9,219.7 L292.8,219.5 L292.7,219.4 L292.5,218.9 L292.5,218.5 L292.3,218.3 L292.3,218.1 L292.2,218.1 L292.3,217.9 L292.2,217.6 L292.1,217.4 L291.9,217.4 L291.8,217.3 L291.8,217.1 L291.7,216.8 L291.5,216.4 L291.3,216.2 L291.3,216.0 L290.7,215.8 L290.3,215.8 L290.1,215.6 L289.8,215.6 L289.6,214.8 L289.3,214.7 L288.9,214.1 L288.9,214.0 L288.5,213.9 L288.1,213.4 L287.3,213.1 L286.8,212.8 L286.5,212.7 L286.0,212.7 L285.6,212.8 L285.3,212.8 L285.2,212.8 L284.9,212.9 L284.6,212.8 L284.4,212.8 L284.2,212.7 L284.1,212.6 L284.1,212.3 L284.0,212.2 L284.1,212.1 L284.1,211.8 L284.2,211.7 L284.2,211.3 L284.3,211.0 L284.4,210.9 L284.5,210.3 L284.7,210.1 L284.7,209.9 L284.9,209.8 L284.9,209.8 L285.2,209.6 L285.6,209.1 L285.6,208.9 L285.5,208.8 L285.5,208.6 L285.8,208.4 L285.9,208.1 L286.0,208.0 L286.3,207.5 L286.4,207.4 L286.4,207.1 L286.4,207.0 L286.6,206.9 L286.6,206.8 L286.9,206.5 L286.9,206.1 L287.2,205.8 L287.2,205.6 L287.3,205.5 L287.3,205.1 L287.2,204.8 L287.1,204.6 L287.0,204.5 L286.8,204.5 L286.6,204.7 L286.7,204.4 L286.5,204.4 L286.5,204.3 L286.9,203.6 L286.9,203.3 L287.0,203.2 L287.0,202.8 L287.2,202.6 L287.0,202.1 L286.9,202.1 L286.8,201.9 L286.7,201.8 L286.8,201.2 L286.8,201.1 L286.7,200.3 L288.5,201.7 L289.6,202.8 L290.0,203.7 L290.2,204.4 L290.5,204.8 L290.3,205.0 L291.6,205.1 L292.4,205.0 L293.3,204.8 L295.2,205.5 L295.8,205.4 L296.3,205.1 L297.1,204.0 L297.7,203.3 L298.0,203.3 L298.1,203.6 L297.9,204.5 L298.0,204.7 L298.4,204.9 L299.3,204.9 L299.9,205.2 L300.6,205.6 L301.2,205.5 L301.7,205.4 L302.4,205.0 L303.2,205.0 L304.9,204.8 L305.8,205.5 L307.1,205.7 L307.9,205.7 L308.4,205.5 L308.6,205.2 L309.1,205.0 L310.3,205.1 L311.0,205.0 L311.7,204.6 L312.5,204.3 L313.0,204.2 L314.9,204.4 L316.5,204.7 L317.0,204.6 L317.4,204.3 L317.6,203.8 L318.0,203.4 L318.3,203.0 L319.9,202.2 L321.1,202.0 L322.5,201.4 L323.6,200.8 L324.4,200.0 L325.1,199.2 L325.9,199.2 L326.5,199.3 L326.8,199.6 L326.9,200.1 L328.4,200.5 L329.2,201.1 L329.6,202.9 L330.2,204.2 L330.7,204.3 L331.5,204.1 L332.1,203.5 L332.9,203.0 L334.0,202.8 L335.3,202.7 L337.8,203.0 L339.3,203.0 L340.2,202.9 L340.7,202.3 L341.5,201.8 L342.3,201.6 L344.1,202.0 L346.1,201.8 L348.1,201.4 L349.4,201.1 L351.6,200.3 L352.7,199.8 L353.2,200.2 L353.4,200.5 L353.9,200.7 L353.8,201.0 L353.7,201.6 L353.7,201.9 L354.2,202.0 L354.7,201.9 L356.8,200.7 L357.5,200.1 L358.8,199.1 L360.0,198.3 L360.3,197.8 L360.3,197.3 L360.0,196.8 L360.1,196.5 L361.9,195.8 L362.9,195.3 L364.9,193.4 L366.0,192.7 L366.7,192.3 L368.2,191.8 L369.2,191.8 L370.4,191.8 L371.1,191.7 L371.9,191.5 L372.9,190.9 L374.9,189.2 L376.0,188.1 L377.9,187.3 L381.4,187.2 L382.8,186.9 L384.0,186.7 L384.4,186.3 L386.0,184.3 L387.0,183.7 L388.2,183.3 L389.2,183.1 L390.6,183.0 L391.9,183.2 L393.2,183.5 L394.6,183.8 L397.2,184.6 L398.1,184.8 L398.6,184.6 L399.2,184.3 L401.1,184.1 L401.6,184.7 L401.8,184.8 L402.1,184.5 L402.4,184.4 L403.2,184.6 L403.5,184.0 L404.0,182.6 L404.6,182.1 L404.5,181.5 L404.1,181.1 L404.0,180.7 L404.1,180.1 L404.5,179.5 L405.2,178.9 L406.1,178.8 L407.1,178.6 L408.2,178.2 L408.7,178.2 L409.5,178.5 L410.2,178.6 L412.5,177.9 L413.8,177.2 L415.8,176.0 L417.1,175.5 L418.3,174.8 L420.6,174.1 L422.9,173.2 L424.4,172.8 L425.3,172.0 L425.4,171.7 L426.4,171.2 L426.8,170.9 L427.4,170.9 L428.4,171.1 L429.2,170.9 L430.2,171.0 L430.6,170.9 L430.8,170.5 L431.0,170.0 L430.9,169.2 L431.1,168.4 L431.9,168.0 L432.6,167.8 L433.5,167.5 L434.2,167.2 L434.7,167.0 L436.2,165.4 L436.6,165.3 L437.0,165.5 L437.6,165.6 L438.1,165.5 L438.2,165.0 L439.4,164.3 L440.1,163.8 L440.5,163.2 L440.5,162.5 L440.4,162.2 L440.2,161.9 L440.2,161.3 L440.3,160.7 L441.0,160.7 L441.8,160.4 L443.8,159.1 L444.3,158.9 L444.8,158.8 L445.2,158.9 L446.1,159.3 L446.9,159.9 L448.6,161.1 L449.5,161.4 L450.5,162.0 L450.9,162.5 L450.9,162.8 L450.5,163.5 L449.9,164.3 L449.3,164.9 L446.2,167.6 L445.1,168.8 L441.2,172.2 L440.7,172.9 L440.7,173.4 L441.2,173.8 L444.0,174.1 L444.7,173.9 L446.7,173.6 L449.1,174.0 L450.9,174.5 L452.0,174.8 L452.6,175.2 L453.1,176.0 L453.6,176.8 L454.7,177.3 L455.6,177.8 L456.4,178.3 L459.4,179.1 L460.3,179.6 L461.0,180.2 L461.5,180.7 L462.0,181.6 L462.2,182.8 L462.0,185.1 L461.8,186.0 L461.4,187.0 L461.1,188.0 L460.6,189.1 L460.0,190.2 L459.5,191.2 L459.4,192.1 L459.1,193.2 L458.7,195.7 L458.6,197.0 L458.2,198.8 L457.9,199.7 L457.5,201.8 L457.6,203.0 L457.7,203.9 L457.9,204.5 L458.2,205.0 L458.3,205.9 L460.3,209.0 L461.5,210.2 L461.7,211.0 L462.3,211.8 L463.6,213.2 L463.7,213.9 L463.7,214.8 L463.5,217.7 L463.6,218.5 L463.6,219.5 L463.3,220.5 L463.2,221.5 L463.2,222.7 L463.1,223.9 L463.3,224.9 L463.3,226.3 L463.1,227.3 L463.1,228.4 L463.0,229.2 L463.2,229.5 L463.5,230.0 L463.7,230.9 L463.9,231.7 L464.3,232.3 L464.9,232.9 L465.4,233.1 L466.7,236.5 L466.5,236.6 L466.0,236.7 L465.7,236.9 L464.2,237.9 L462.1,239.3 L461.6,239.9 L460.8,240.3 L460.3,240.6 L458.9,242.6 L458.7,243.0 L458.7,243.3 L459.0,244.5 L458.8,245.0 L458.5,245.6 L454.3,250.7 L450.7,255.2 L450.6,255.4 L450.3,255.3 L450.1,255.4 L450.3,255.8 L450.1,256.3 L450.1,256.5 L449.9,256.7 L449.6,256.8 L449.5,256.6 L449.4,256.4 L449.2,256.3 L448.9,256.2 L448.4,256.3 L448.1,256.3 L447.6,256.1 L447.2,255.8 L446.4,255.7 L445.9,255.4 L445.7,255.0 L445.5,254.9 L445.3,254.7 L444.9,254.3 L444.7,254.4 L444.6,254.6 L444.2,255.0 L443.9,255.1 L442.8,255.3 L442.6,255.2 L442.5,254.9 L442.5,254.7 L442.8,254.0 L442.9,253.8 L443.6,253.0 L443.6,252.8 L443.6,252.6 L443.2,252.2 L442.7,252.0 L441.7,251.7 L441.2,251.7 L440.7,251.5 L439.9,251.6 L438.2,251.7 L438.0,251.8 L437.6,252.2 L436.0,252.2 L434.6,252.4 L433.1,252.9 L432.5,252.9 L432.4,253.1 L432.1,253.1 L431.8,253.0 L431.6,253.1 L431.1,253.3 L430.6,253.5 L430.3,253.5 L429.5,253.3 L429.0,253.2 L428.5,253.2 L427.7,252.9 L426.7,252.7 L425.9,252.9 L425.4,252.9 L424.8,253.0 L424.6,252.9 L424.6,253.1 L424.0,253.2 L423.5,253.4 L423.0,253.3 L422.5,253.3 L421.9,253.2 L421.4,253.3 L420.9,253.2 L419.8,253.3 L419.2,253.2 L418.7,253.3 L418.2,253.5 L418.0,253.9 L417.9,253.8 L417.7,253.6 L417.9,252.5 L417.5,250.7 L417.5,250.0 L417.9,248.1 L418.0,246.6 L418.0,244.5 L417.8,243.5 L418.1,242.5 L418.6,240.2 L418.6,238.2 L418.5,237.1 L418.6,235.5 L418.4,234.6 L417.6,232.7 L416.8,231.3 L414.5,228.3 L413.5,226.5 L412.6,225.3 L412.2,224.9 L411.6,224.0 L411.0,223.3 L409.4,221.8 L408.3,221.4 L407.5,220.9 L406.5,221.0 L405.6,221.2 L404.5,222.1 L403.6,223.4 L402.6,224.4 L401.5,224.7 L400.2,225.4 L399.6,225.7 L398.6,225.7 L397.7,225.7 L396.8,225.4 L396.1,225.0 L395.4,224.7 L394.0,224.2 L393.2,224.0 L392.5,224.0 L391.9,224.2 L390.1,225.8 L389.8,226.7 L389.0,227.8 L388.4,229.2 L387.8,232.1 L387.4,232.5 L386.9,232.6 L384.3,232.4 L383.4,232.5 L382.4,232.4 L381.0,232.4 L379.9,232.3 L379.1,232.1 L378.4,231.7 L378.0,231.1 L377.6,229.8 L377.6,229.1 L377.3,228.4 L376.7,227.8 L376.0,227.5 L375.2,226.9 L373.7,226.1 L372.8,226.5 L372.0,227.0 L370.5,228.1 L369.4,230.0 L369.2,230.7 L370.4,235.6 L370.3,236.1 L369.6,236.9 L369.0,237.2 L367.7,237.1 L366.8,237.1 L366.3,237.0 L366.0,237.0 L364.8,236.5 L364.0,236.4 L363.3,236.4 L362.6,236.6 L361.8,236.9 L360.9,237.5 L360.2,238.2 L359.6,238.9 L358.9,239.5 L358.4,239.8 L357.4,240.1 L356.5,240.2 L355.9,240.6 L355.4,240.6 L354.5,240.3 L353.7,240.1 L352.9,239.7 L351.9,239.4 L351.1,239.0 L350.2,238.4 L349.1,237.8 L348.4,237.2 L347.5,236.7 L346.5,236.5 L345.6,236.6 L344.8,237.2 L344.4,237.5 L344.0,238.2 L343.2,240.2 L342.4,241.2 L341.6,241.6 L340.9,241.7 L340.4,241.6 L339.6,241.2 L338.9,241.0 L337.0,240.2 L334.9,239.4 L334.1,238.9 L333.1,238.7 L331.4,238.6 L330.8,238.7 L330.1,238.9 L329.4,239.4 L328.8,240.0 L328.6,240.6 L328.8,241.0 L328.7,241.4 L328.8,241.9 L329.1,242.3 L329.5,242.4 L329.9,242.3 L331.1,241.8 L332.1,241.9 L332.3,242.2 L332.4,242.7 L332.1,243.4 L330.7,244.7 L329.6,246.3 L329.3,246.9 L329.2,247.5 L329.1,248.7 L329.0,249.5 L329.1,251.0 L329.0,252.1 L329.2,252.6 L329.5,253.3 L329.8,253.7 L330.3,254.2 L331.1,254.5 L331.4,255.3 L330.9,256.0 L330.1,256.3 L329.4,256.4 L328.6,256.8 L327.4,257.0 L326.4,257.4 L324.7,257.6 L323.3,258.1 L322.5,258.2 L321.4,258.7 L320.4,258.8 L318.8,258.8 L317.6,258.7 L316.4,258.5 L315.9,258.7 L314.9,259.3 L314.3,260.3 L314.2,260.7 L313.6,261.6 L313.2,263.2 L312.5,265.2 L312.4,266.4 L312.2,267.0 L312.0,266.4 L310.8,265.0 L310.6,264.4 L310.2,263.7 L308.8,263.0 L307.1,263.1 L306.0,262.6 L305.3,262.8 L304.5,263.0 L304.2,263.8 L303.7,264.4 L302.3,265.4 L300.2,265.9 L299.3,265.9 L296.9,267.0 L296.0,267.1 L295.5,267.3 L294.5,267.5 L293.9,267.3 L293.0,267.5 L292.5,267.5 L292.1,267.3 L291.8,267.1 L291.1,265.8 L290.5,265.1 L289.9,264.8 L289.2,264.7 L288.5,264.7 L287.5,265.0 L286.8,265.5 L286.3,266.2 L286.0,267.1 L285.5,268.6 L284.8,270.1 L284.3,270.5 L283.6,270.9 L282.9,271.0 L282.2,270.9 L281.9,270.7 L281.3,270.6 L280.7,270.7 L279.9,271.0 L279.1,271.6 L278.3,271.9 L277.7,272.3 L277.1,272.7 L275.9,273.6 L274.7,273.8 Z M272.3,261.2 L272.2,261.3 L272.2,261.3 L272.3,261.1 L272.4,261.2 L272.3,261.2 Z M275.3,257.8 L275.4,257.9 L275.3,257.9 L275.2,257.8 L275.3,257.8 Z" data-name="Souss-Massa" fill="#DDD0BB" stroke="#B8A898" stroke-width="1" stroke-linejoin="round" stroke-linecap="round"/>
  <path d="M388.7,174.9 L388.3,175.0 L387.9,175.0 L387.3,175.1 L386.9,175.3 L386.2,175.0 L386.4,174.5 L386.4,173.6 L386.1,173.3 L384.9,172.8 L384.5,172.2 L384.5,171.0 L384.5,169.8 L385.2,169.1 L386.3,168.5 L387.2,168.3 L388.2,168.4 L389.3,168.8 L389.7,169.1 L390.5,169.0 L391.4,168.9 L392.2,168.6 L393.4,168.7 L394.0,168.9 L394.3,168.7 L394.7,168.3 L394.3,167.7 L394.3,167.0 L394.5,166.4 L394.7,166.3 L395.3,166.3 L395.6,165.9 L394.4,164.5 L393.9,164.3 L393.7,163.9 L393.8,163.2 L393.4,162.7 L393.5,162.2 L393.7,161.9 L394.4,161.3 L394.2,160.6 L393.9,159.9 L393.3,159.8 L392.6,159.4 L392.1,158.8 L391.5,157.8 L391.3,155.9 L391.1,155.1 L391.1,154.5 L391.5,153.1 L391.3,152.3 L391.1,151.5 L390.8,150.6 L390.7,150.1 L391.1,148.9 L391.1,147.1 L391.0,146.8 L391.6,146.1 L392.0,146.0 L392.8,145.3 L393.2,144.9 L393.5,144.4 L393.7,143.4 L394.9,140.8 L395.1,140.2 L395.1,139.0 L395.3,138.4 L395.2,137.3 L395.6,136.3 L395.5,135.8 L396.4,136.1 L397.2,136.9 L398.1,136.9 L398.7,136.7 L399.0,136.5 L399.9,136.3 L400.6,135.9 L401.2,135.3 L402.8,135.2 L403.1,134.6 L403.5,134.6 L403.8,134.7 L404.7,135.1 L406.6,135.1 L407.7,135.6 L408.8,135.8 L409.5,135.8 L409.6,135.6 L409.6,135.3 L409.1,134.9 L409.4,134.6 L409.9,134.5 L410.1,134.2 L410.5,134.0 L410.9,133.9 L412.4,133.7 L414.6,134.0 L415.1,134.4 L416.1,134.6 L418.3,134.5 L419.0,134.6 L421.0,134.5 L421.6,134.6 L423.1,134.6 L424.1,134.3 L424.3,134.2 L424.7,134.0 L425.1,133.8 L425.9,133.6 L426.8,133.5 L427.9,133.6 L429.0,133.5 L429.7,133.3 L430.5,133.0 L431.1,132.6 L431.6,131.8 L431.9,131.4 L432.6,131.0 L433.0,131.2 L434.7,130.8 L435.4,130.9 L437.1,131.7 L437.7,132.9 L438.4,133.1 L439.2,133.0 L440.0,133.9 L440.8,134.3 L441.2,134.9 L441.4,136.6 L441.7,137.1 L442.7,137.2 L443.5,136.5 L444.0,136.3 L445.1,136.5 L446.1,137.0 L446.7,137.4 L447.0,137.9 L447.8,138.0 L448.8,137.9 L449.3,138.1 L449.7,139.3 L450.2,140.1 L451.1,141.0 L451.9,142.4 L452.1,142.9 L451.9,143.2 L451.2,144.0 L451.2,144.4 L451.1,144.9 L450.4,145.7 L450.5,146.1 L450.9,146.4 L450.7,147.1 L450.1,147.6 L450.0,148.2 L451.0,148.9 L451.0,149.3 L450.8,149.8 L450.2,150.2 L449.3,149.9 L448.2,149.8 L445.9,150.2 L445.0,150.5 L444.7,150.8 L444.5,151.9 L443.9,152.6 L443.2,153.2 L442.3,153.3 L441.8,153.2 L441.2,153.5 L440.9,153.9 L440.9,154.7 L440.9,155.3 L440.5,155.7 L439.9,155.8 L439.8,156.3 L440.1,156.7 L440.1,157.2 L439.7,157.4 L439.2,157.5 L439.0,158.0 L439.3,158.7 L440.2,158.9 L440.3,159.3 L440.5,160.1 L440.3,160.7 L440.2,161.3 L440.2,161.9 L440.4,162.2 L440.5,162.5 L440.5,163.2 L440.1,163.8 L439.4,164.3 L438.2,165.0 L438.1,165.5 L437.6,165.6 L437.0,165.5 L436.6,165.3 L436.2,165.4 L434.7,167.0 L434.2,167.2 L433.5,167.5 L432.6,167.8 L431.9,168.0 L431.1,168.4 L430.9,169.2 L431.0,170.0 L430.8,170.5 L430.6,170.9 L430.2,171.0 L429.2,170.9 L428.4,171.1 L427.4,170.9 L426.8,170.9 L426.4,171.2 L425.4,171.7 L425.3,172.0 L424.4,172.8 L422.9,173.2 L420.6,174.1 L418.3,174.8 L417.1,175.5 L415.8,176.0 L413.8,177.2 L412.5,177.9 L410.2,178.6 L409.5,178.5 L408.7,178.2 L408.2,178.2 L407.1,178.6 L406.1,178.8 L405.2,178.9 L404.5,179.5 L404.1,180.1 L404.0,180.7 L404.1,181.1 L404.5,181.5 L404.6,182.1 L404.0,182.6 L403.5,184.0 L403.2,184.6 L402.4,184.4 L402.1,184.5 L401.8,184.8 L401.6,184.7 L401.1,184.1 L399.2,184.3 L398.6,184.6 L398.1,184.8 L397.2,184.6 L394.6,183.8 L393.2,183.5 L391.9,183.2 L390.6,183.0 L389.2,183.1 L388.8,182.1 L388.7,180.9 L388.9,179.8 L389.3,178.6 L389.9,177.7 L390.1,176.8 L390.2,175.6 L390.0,174.9 L389.3,174.8 L388.7,174.9 Z" data-name="Béni Mellal-Khénifra" fill="#DDD0BB" stroke="#B8A898" stroke-width="1" stroke-linejoin="round" stroke-linecap="round"/>
  <path d="M461.3,55.7 L460.6,55.8 L459.7,56.2 L458.7,56.2 L457.6,55.8 L455.6,55.5 L454.4,55.1 L454.1,54.9 L453.7,54.6 L453.0,53.9 L452.7,53.4 L452.4,52.9 L452.2,52.6 L451.1,52.1 L450.9,51.8 L450.5,51.5 L450.2,51.4 L449.4,52.0 L449.0,52.1 L448.4,52.2 L448.1,52.0 L447.7,51.9 L446.7,52.0 L446.1,52.0 L445.7,51.8 L445.4,51.6 L444.9,50.8 L444.1,49.9 L443.6,49.6 L442.6,49.4 L441.9,48.7 L441.5,48.5 L440.8,48.6 L440.2,48.5 L439.7,47.9 L439.3,47.6 L437.9,47.6 L437.2,47.5 L434.9,46.8 L430.6,46.2 L429.6,46.0 L428.2,46.1 L427.0,46.1 L424.5,45.8 L423.4,45.8 L423.4,45.8 L423.8,45.0 L424.2,43.7 L424.3,43.7 L424.4,43.3 L424.5,42.8 L424.8,41.8 L425.0,41.5 L425.3,40.8 L425.5,40.5 L425.5,40.3 L425.6,40.2 L425.9,39.4 L425.9,39.2 L426.0,39.2 L426.5,37.9 L426.6,37.8 L426.8,37.9 L426.8,37.8 L427.0,37.7 L427.2,37.5 L427.3,37.3 L427.4,37.2 L427.5,36.7 L427.5,36.6 L427.8,36.1 L427.8,35.9 L427.9,35.7 L428.0,35.5 L428.1,35.3 L428.3,34.6 L428.6,34.1 L429.3,31.8 L429.4,31.6 L429.5,31.5 L429.6,31.1 L429.8,30.4 L429.8,30.2 L430.1,29.9 L430.1,29.8 L430.3,29.6 L430.6,29.2 L430.6,29.0 L430.7,28.6 L431.0,28.1 L430.9,28.0 L431.0,27.9 L431.3,27.5 L431.8,27.3 L431.9,27.2 L431.9,26.9 L432.4,26.0 L432.3,25.9 L432.4,25.8 L432.5,25.7 L432.4,25.7 L432.4,25.5 L432.6,25.2 L432.8,25.2 L432.8,25.1 L432.6,25.1 L432.7,24.9 L432.9,23.7 L433.3,23.4 L433.4,23.3 L433.4,23.2 L433.4,23.2 L433.4,23.3 L433.5,23.3 L433.5,23.2 L433.8,22.6 L433.9,22.5 L433.9,22.8 L434.0,22.9 L434.1,22.9 L434.0,22.8 L434.0,22.6 L434.0,22.5 L434.1,22.4 L434.4,22.5 L434.2,22.4 L434.0,22.4 L433.6,22.7 L433.3,23.3 L433.1,23.3 L433.2,22.9 L433.4,22.1 L433.6,21.7 L433.6,21.4 L433.9,20.6 L434.2,19.5 L434.3,19.2 L434.4,19.0 L434.5,18.9 L434.5,18.7 L434.7,18.3 L434.7,18.1 L434.8,17.8 L434.9,17.4 L435.3,16.5 L435.3,16.3 L435.3,16.2 L435.4,16.2 L435.4,16.0 L435.4,15.7 L435.5,15.6 L435.7,15.7 L435.7,15.5 L435.5,15.4 L435.6,15.3 L435.6,15.1 L435.8,15.0 L436.0,15.0 L436.5,14.6 L436.6,14.7 L437.2,14.6 L437.3,14.7 L437.6,14.8 L437.9,14.7 L438.2,14.8 L438.7,14.8 L438.8,14.7 L438.8,14.6 L438.9,14.8 L439.0,14.8 L439.3,14.9 L439.6,14.9 L439.8,15.0 L440.3,15.1 L440.5,15.0 L440.8,15.0 L440.8,15.0 L440.5,15.0 L440.6,15.1 L440.5,15.1 L440.5,15.2 L440.7,15.1 L440.7,15.2 L440.5,15.4 L440.5,15.4 L440.9,15.6 L441.4,15.6 L441.9,15.3 L441.9,15.2 L442.0,15.2 L442.2,15.0 L442.2,15.0 L442.3,14.9 L442.5,14.7 L442.5,14.6 L442.6,14.5 L442.6,14.3 L442.5,14.2 L442.5,14.0 L442.8,13.9 L442.9,14.0 L443.0,13.9 L443.2,13.9 L443.3,13.8 L443.6,13.8 L443.6,13.5 L443.7,13.5 L443.8,13.6 L444.0,13.5 L444.2,13.6 L444.3,13.5 L444.4,13.5 L444.9,13.2 L445.3,13.3 L445.4,13.4 L445.9,13.5 L446.2,13.7 L446.6,13.6 L446.6,13.5 L447.0,13.5 L447.1,13.3 L447.5,13.4 L447.6,13.5 L447.9,13.4 L448.2,13.5 L448.4,13.5 L448.9,13.4 L449.1,13.2 L449.2,13.2 L449.5,13.1 L449.7,12.8 L449.8,12.8 L449.8,13.0 L450.1,13.0 L450.3,12.8 L450.7,12.5 L451.1,12.1 L451.7,11.7 L451.7,11.6 L451.8,11.5 L451.8,11.4 L452.1,11.4 L452.4,11.3 L452.6,11.1 L452.6,10.8 L452.7,10.6 L452.8,10.5 L452.9,10.6 L452.9,10.7 L453.0,10.7 L453.1,10.6 L453.4,10.3 L453.8,10.3 L454.0,10.4 L454.0,10.6 L454.3,10.7 L454.4,10.7 L454.5,10.5 L454.6,10.6 L455.4,10.5 L455.8,10.1 L455.8,10.0 L455.9,10.0 L455.9,10.1 L456.1,10.2 L456.0,10.3 L456.1,10.4 L456.3,10.5 L456.5,10.4 L456.8,11.3 L456.8,11.5 L458.2,11.8 L458.1,12.0 L458.1,12.1 L458.0,12.6 L457.7,12.9 L457.8,13.4 L457.7,13.6 L457.9,15.3 L458.0,15.7 L458.0,15.8 L458.1,16.3 L458.3,16.4 L458.3,16.5 L458.3,16.6 L458.2,16.4 L458.1,16.4 L458.1,16.5 L458.3,16.5 L458.1,16.6 L458.2,17.2 L458.4,17.7 L458.5,17.7 L458.4,17.8 L458.4,18.0 L458.8,18.8 L459.0,19.2 L459.3,19.1 L459.4,19.2 L459.5,19.2 L460.2,19.0 L460.8,19.1 L460.8,19.2 L460.5,19.5 L460.4,19.7 L460.4,19.8 L460.4,19.9 L461.1,22.2 L460.9,22.2 L461.1,22.3 L461.1,22.3 L461.3,22.8 L461.4,22.9 L461.4,23.0 L461.6,23.1 L461.6,23.6 L461.9,24.2 L462.1,24.3 L462.3,24.4 L462.4,24.3 L462.6,24.2 L462.7,24.5 L462.9,24.7 L463.2,24.7 L463.4,24.6 L463.6,24.6 L463.9,24.8 L464.2,24.8 L464.6,25.0 L464.7,25.3 L464.9,25.3 L465.1,25.5 L465.4,26.0 L465.7,26.2 L465.8,26.3 L466.1,26.4 L466.1,26.4 L466.2,26.4 L466.4,26.5 L467.0,27.1 L467.2,27.1 L467.4,27.4 L467.5,27.6 L467.6,27.7 L467.6,27.9 L468.2,28.6 L468.2,28.9 L468.1,29.0 L468.2,28.9 L468.2,28.8 L468.9,29.7 L469.7,29.9 L470.1,30.0 L470.4,29.9 L470.6,29.9 L470.7,30.1 L470.9,30.2 L471.0,30.4 L471.2,30.5 L471.7,31.0 L472.3,31.3 L472.4,31.5 L472.7,31.8 L472.9,31.9 L473.5,32.5 L473.6,32.7 L473.9,32.9 L474.0,33.1 L475.2,33.6 L475.5,33.7 L475.9,33.8 L476.3,33.8 L476.8,34.3 L477.1,34.6 L477.3,34.7 L477.6,35.0 L478.2,35.4 L478.6,35.5 L479.1,35.7 L479.3,36.0 L479.6,36.2 L480.2,36.3 L480.8,36.7 L481.4,36.7 L481.5,36.9 L481.8,37.0 L482.4,37.1 L482.7,37.3 L483.1,37.3 L483.4,37.5 L483.6,37.5 L483.9,37.4 L484.2,37.2 L484.3,37.2 L484.3,37.2 L484.4,37.3 L484.4,37.2 L484.4,37.2 L484.7,37.1 L484.7,37.2 L484.7,37.3 L485.4,37.8 L486.0,38.1 L486.6,38.1 L486.8,38.0 L487.0,38.0 L487.5,38.1 L487.9,38.2 L488.1,38.2 L488.4,38.3 L489.6,38.6 L490.1,38.5 L490.7,38.6 L491.3,38.8 L491.7,39.0 L492.2,39.1 L491.1,40.2 L490.9,41.3 L491.6,41.9 L491.8,42.7 L491.8,43.8 L491.4,44.9 L490.8,45.8 L489.6,46.5 L488.3,47.2 L486.3,47.4 L484.4,47.8 L483.8,48.1 L482.4,49.3 L480.6,50.4 L480.4,50.7 L479.5,50.7 L478.9,51.1 L478.4,52.0 L478.1,52.2 L477.3,52.3 L476.3,52.8 L475.8,52.9 L474.6,52.9 L471.8,53.5 L470.8,53.2 L470.2,53.6 L469.3,53.6 L467.9,54.0 L466.8,54.6 L465.6,55.7 L465.0,55.6 L463.0,55.1 L462.5,55.1 L462.2,55.3 L461.3,55.7 Z M476.4,33.7 L476.4,33.7 L476.2,33.7 L476.2,33.6 L476.4,33.6 L476.4,33.7 Z M458.4,17.1 L458.4,17.1 L458.4,17.2 L458.3,17.1 L458.3,17.0 L458.4,17.1 Z M496.2,87.3 L495.7,87.7 L495.0,88.0 L494.7,88.3 L494.5,88.5 L494.1,88.6 L493.5,88.5 L492.1,87.6 L491.6,87.5 L490.8,87.4 L489.4,86.9 L488.9,86.6 L488.3,86.0 L488.2,84.5 L488.3,83.8 L488.3,83.3 L488.2,82.8 L487.4,81.9 L487.5,81.4 L487.0,81.0 L486.0,81.1 L485.6,81.0 L484.9,80.5 L484.5,80.3 L483.6,80.3 L483.0,80.2 L482.6,79.8 L481.8,79.7 L481.2,79.6 L481.1,79.1 L480.6,78.5 L480.3,78.2 L480.3,77.9 L480.3,77.6 L480.5,77.5 L480.3,77.0 L480.3,76.6 L480.2,76.4 L480.0,76.4 L479.3,76.7 L479.0,76.7 L478.7,76.6 L478.7,76.3 L478.8,75.9 L478.9,75.4 L478.7,74.9 L478.1,74.7 L477.2,75.1 L476.8,75.1 L476.4,75.2 L475.5,75.3 L475.4,75.2 L475.3,74.5 L475.2,74.3 L474.7,74.1 L474.8,73.8 L475.8,73.7 L475.8,73.5 L475.2,73.2 L475.1,72.9 L474.7,72.8 L474.0,73.4 L473.3,73.6 L473.0,73.2 L473.4,73.0 L473.6,72.7 L473.5,72.3 L473.2,72.1 L472.6,72.0 L472.1,72.1 L471.5,71.8 L471.1,72.0 L470.0,71.8 L469.7,71.9 L469.5,72.4 L469.1,72.4 L469.0,72.1 L469.2,72.0 L469.3,71.7 L468.8,71.7 L468.5,71.8 L468.1,72.3 L467.7,72.4 L467.3,72.3 L467.4,72.1 L467.3,71.7 L466.9,71.4 L466.4,71.2 L466.1,71.4 L465.6,71.1 L465.1,71.1 L464.4,71.3 L464.1,71.4 L463.5,71.6 L463.2,71.8 L463.0,72.2 L462.7,72.3 L462.0,72.1 L461.8,72.1 L461.4,72.3 L460.8,72.4 L460.2,72.4 L459.6,72.6 L459.1,72.7 L458.4,72.9 L458.2,72.9 L458.1,72.3 L457.7,72.2 L457.3,72.2 L456.8,72.5 L456.4,72.6 L455.7,71.9 L454.7,71.2 L454.9,70.7 L454.4,70.5 L453.6,70.9 L453.1,70.8 L452.9,70.2 L453.3,69.7 L453.1,69.5 L452.5,69.0 L452.8,68.5 L454.6,68.1 L455.1,67.8 L457.1,66.8 L457.7,65.9 L458.1,65.7 L458.8,65.7 L459.1,65.5 L459.3,65.3 L459.3,64.4 L459.6,64.0 L460.1,63.8 L461.0,63.7 L461.6,63.3 L462.1,63.0 L462.3,62.2 L462.9,61.9 L463.5,61.8 L464.6,62.0 L465.0,61.6 L465.2,61.1 L464.6,60.8 L464.6,60.4 L464.9,59.4 L465.2,58.3 L465.2,56.9 L465.6,55.6 L466.8,54.6 L467.9,54.0 L469.3,53.6 L470.2,53.6 L470.8,53.2 L471.8,53.5 L474.6,52.9 L475.8,52.9 L476.3,52.8 L477.3,52.3 L478.1,52.2 L478.4,52.0 L478.9,51.1 L479.5,50.7 L480.4,50.7 L480.6,50.4 L482.4,49.3 L483.8,48.1 L484.4,47.8 L486.3,47.4 L488.3,47.2 L489.6,46.5 L490.8,45.8 L491.4,44.9 L491.8,43.8 L491.8,42.7 L491.6,41.9 L490.9,41.3 L491.1,40.2 L492.2,39.1 L493.2,39.4 L493.6,39.4 L493.8,39.2 L494.0,39.2 L494.7,39.5 L495.1,39.4 L495.1,39.6 L495.4,39.6 L495.4,39.5 L495.5,39.5 L495.5,39.6 L495.9,39.7 L496.0,39.6 L496.3,39.5 L496.5,39.3 L497.1,39.3 L497.2,39.1 L497.3,39.0 L497.4,39.0 L497.5,38.9 L497.6,38.9 L497.8,38.8 L498.0,38.9 L498.1,38.7 L498.3,38.8 L498.4,38.7 L498.4,38.6 L498.5,38.4 L498.6,38.4 L498.6,38.5 L498.7,38.5 L499.2,38.3 L499.6,38.2 L499.9,38.1 L499.9,38.2 L500.1,38.1 L500.3,38.2 L501.2,38.2 L501.3,38.2 L501.3,38.0 L501.5,38.1 L501.6,38.0 L501.8,38.0 L502.0,37.8 L502.2,37.7 L502.8,37.7 L503.2,37.6 L503.4,37.6 L503.5,37.7 L503.7,37.8 L503.8,37.7 L504.3,37.7 L504.4,37.5 L504.6,37.6 L504.8,37.4 L505.2,37.5 L505.4,37.2 L505.8,37.0 L505.8,37.0 L506.1,36.9 L506.5,36.9 L506.5,36.8 L507.0,36.7 L507.2,36.5 L507.5,36.6 L507.6,36.5 L507.8,36.4 L507.8,36.2 L508.2,36.4 L508.4,36.2 L508.6,36.3 L508.6,36.2 L508.9,36.1 L508.8,36.3 L509.2,36.4 L509.4,36.4 L509.7,36.2 L509.8,36.3 L510.3,36.3 L510.8,35.9 L511.4,35.7 L511.7,35.4 L512.2,35.3 L512.6,35.4 L512.7,35.5 L512.8,35.6 L512.7,35.6 L512.6,35.7 L512.7,35.9 L512.6,35.8 L512.5,35.8 L512.6,35.8 L512.4,35.9 L512.4,36.0 L512.6,36.1 L512.6,36.2 L512.5,36.2 L512.6,36.3 L512.5,36.4 L512.7,36.5 L512.6,36.6 L512.8,36.7 L512.8,36.9 L513.0,36.9 L513.1,37.1 L513.4,37.3 L514.1,37.5 L515.3,37.8 L515.9,37.8 L517.0,37.5 L517.3,38.6 L517.1,39.7 L516.8,40.6 L516.8,41.1 L517.0,41.9 L517.1,42.4 L517.2,43.9 L517.1,44.4 L517.4,44.8 L517.5,45.3 L517.2,46.9 L517.2,47.3 L517.3,47.8 L517.2,48.9 L517.3,49.4 L517.7,49.5 L517.8,49.6 L517.8,50.2 L517.9,50.4 L518.3,50.5 L518.9,50.3 L519.7,50.3 L520.0,50.3 L520.1,50.5 L519.5,51.0 L519.6,51.1 L519.9,51.3 L520.2,51.3 L520.5,51.2 L520.8,51.2 L520.9,51.3 L521.4,51.3 L521.6,51.1 L521.9,51.1 L522.8,51.6 L523.4,52.0 L524.1,51.9 L524.5,51.8 L525.1,51.8 L525.4,51.9 L525.5,52.2 L525.1,52.7 L525.1,53.0 L525.6,53.5 L525.4,54.6 L524.9,55.3 L524.5,55.9 L524.6,56.2 L524.9,56.4 L525.5,56.6 L525.8,56.8 L525.9,57.0 L525.9,57.2 L525.6,57.4 L525.3,57.5 L524.2,57.4 L523.8,57.5 L523.6,57.7 L523.6,58.0 L524.0,59.3 L523.9,59.8 L523.1,60.3 L523.0,60.5 L523.2,60.8 L523.5,60.7 L524.3,60.3 L524.7,60.2 L525.1,60.2 L525.4,60.4 L525.8,60.8 L525.8,61.3 L525.8,61.6 L526.1,61.9 L526.7,62.1 L527.2,62.1 L527.6,62.3 L528.1,62.6 L528.4,62.6 L528.8,62.5 L529.0,62.2 L529.2,61.4 L529.4,60.9 L529.7,60.0 L529.9,59.8 L530.3,59.9 L530.4,59.8 L530.3,59.5 L530.4,59.1 L530.6,58.9 L530.9,58.9 L531.4,59.2 L531.8,59.3 L532.2,59.1 L533.0,58.1 L533.5,57.9 L534.7,57.5 L535.5,57.0 L535.9,56.4 L536.1,56.0 L535.9,55.3 L536.1,54.9 L536.5,54.6 L537.2,54.6 L538.8,54.7 L540.2,54.6 L541.4,54.7 L542.2,55.1 L542.7,55.5 L543.2,56.1 L543.6,56.6 L544.8,56.5 L546.0,57.2 L546.4,57.3 L546.7,57.5 L547.2,58.0 L547.6,58.2 L548.6,58.3 L548.8,58.5 L548.9,58.9 L548.8,59.3 L548.4,59.8 L548.3,60.3 L549.7,61.0 L549.9,61.3 L549.9,61.5 L549.5,61.7 L548.9,61.4 L548.2,61.1 L547.8,61.0 L547.4,60.9 L546.9,61.0 L546.0,61.3 L545.1,61.8 L545.0,62.2 L545.1,62.6 L545.2,63.0 L545.0,64.3 L544.8,64.5 L544.7,64.9 L544.6,65.1 L544.3,65.2 L543.4,65.1 L543.2,65.2 L543.1,65.4 L543.4,65.7 L543.4,66.0 L543.4,66.2 L543.2,66.4 L543.0,66.5 L542.6,66.5 L542.3,66.6 L542.3,66.9 L542.2,67.1 L541.8,67.3 L540.0,67.9 L539.4,68.3 L539.2,68.5 L539.1,68.9 L539.2,69.3 L538.8,69.6 L538.8,70.0 L539.0,70.3 L539.7,71.1 L540.8,72.1 L541.7,72.7 L542.1,72.8 L542.6,73.1 L542.8,73.4 L542.8,74.2 L542.6,75.5 L542.7,76.3 L542.8,76.9 L543.2,77.3 L544.1,77.8 L544.4,78.1 L544.5,78.6 L544.3,79.0 L544.0,79.4 L543.5,80.1 L543.4,80.9 L543.0,81.2 L542.5,81.6 L542.0,81.8 L540.2,82.4 L539.4,82.5 L538.7,82.7 L538.2,83.0 L537.9,83.5 L537.8,84.5 L537.7,85.0 L537.7,85.3 L538.0,85.6 L539.5,86.4 L540.5,87.5 L541.6,88.8 L542.1,89.5 L543.0,90.9 L543.2,91.5 L543.3,92.3 L543.3,93.3 L541.9,93.2 L539.8,92.8 L539.0,92.5 L538.4,92.3 L537.6,91.7 L536.5,91.0 L535.6,90.6 L534.8,90.4 L532.3,90.0 L531.7,89.8 L531.0,89.0 L530.0,88.0 L529.3,87.9 L529.1,87.8 L528.8,87.4 L527.7,87.0 L527.5,86.8 L527.2,86.3 L526.7,86.3 L526.2,86.4 L525.9,87.3 L525.6,87.8 L525.1,88.0 L524.6,88.2 L524.1,89.3 L523.2,90.5 L522.6,91.4 L521.9,91.9 L521.1,92.4 L519.6,92.8 L519.3,93.4 L518.7,93.9 L517.9,94.7 L517.2,95.2 L516.5,95.4 L516.4,95.7 L516.3,96.6 L515.9,96.8 L515.6,97.2 L515.1,97.9 L514.3,98.3 L513.4,98.5 L511.9,99.0 L510.6,99.8 L509.7,100.0 L508.6,100.0 L507.6,100.0 L506.5,100.1 L506.2,99.8 L505.9,99.3 L505.2,98.8 L505.0,98.4 L505.2,98.1 L506.0,97.3 L506.3,96.7 L506.4,96.1 L506.1,95.8 L505.4,95.6 L504.7,95.6 L503.9,95.6 L503.5,95.9 L502.6,96.4 L502.4,96.1 L501.8,95.4 L501.5,95.0 L501.4,94.0 L501.7,93.3 L501.7,92.3 L502.1,92.0 L502.3,91.5 L502.6,91.1 L503.3,90.6 L504.6,90.2 L504.6,90.0 L504.2,89.8 L501.7,89.9 L501.2,89.5 L500.6,89.5 L500.4,89.1 L500.1,87.8 L499.9,87.6 L498.8,87.6 L497.8,86.9 L497.4,86.9 L496.8,86.9 L496.2,87.3 Z M495.8,39.5 L495.7,39.5 L495.7,39.5 L495.7,39.4 L495.8,39.5 Z" data-name="Tanger-Tétouan-Al Hoceïma" fill="#DDD0BB" stroke="#B8A898" stroke-width="1" stroke-linejoin="round" stroke-linecap="round"/>
  <path d="M10.0,504.6 L10.0,523.8 L10.0,562.1 L10.0,590.0 L88.5,590.0 L203.3,585.0 L279.9,581.2 L330.8,568.6 L329.6,485.5 L279.9,497.0 L203.3,504.6 L126.7,504.6 L50.2,504.6 L10.0,504.6 Z" data-name="Ed Dakhla-Oued ed Dahab" fill="#DDD0BB" stroke="#B8A898" stroke-width="1" stroke-linejoin="round" stroke-linecap="round"/>
</svg>